<svg width="93" height="110" viewBox="0 0 93 110" fill="none" xmlns="http://www.w3.org/2000/svg">
<g clip-path="url(#clip0_3402_4)">
<path d="M19.3706 35.7123L18.0633 32.5188L16.5918 30.2002L14.8752 28.2857L13.316 27.0834L13.1742 26.9735L13.2531 26.8154L14.081 25.1142L14.7422 23.8219L15.3206 22.4525L16.0563 20.7755L16.3827 18.6216L16.547 16.9357V12.9996L16.0563 10.6853L15.4828 9.00407L14.5019 6.68742L13.1902 4.92479L11.5613 2.85894L9.3769 1.59282L6.85044 0.636972L5.47787 0.478902L3.3359 0.399868H2.22006L1.61488 0.619756L1.03013 0.980106L0.663256 1.76693V3.66376L0.579948 16.4615V22.2924L0.496641 24.4882L0.413333 26.1913L0.246718 28.6989V32.176L0.163411 35.6641L0.165814 43.1916V43.2025L0.163411 43.2135L-0.000801086 44.8133L0.163411 46.9011L0.165814 46.9097V51.4374L0.483023 53.5427L1.03654 54.1492H1.67336L2.99386 54.0702L4.73731 53.9888H6.78235L9.21429 53.1163L11.6867 51.7492L13.2279 50.8744L14.0357 50.0085L14.0425 50.0018L14.0493 49.9952L16.0179 48.2326L17.6556 45.6741L18.308 44.4765L19.534 41.4434L19.6958 38.5798L19.3694 35.7115L19.3706 35.7123ZM6.51561 12.633L6.52001 12.6111L6.61894 11.0265L6.59851 9.03537L6.59611 9.01776L6.59851 9.00015L6.67942 7.13658L6.68382 7.0509L6.74671 6.99142L7.16084 6.58491L7.28901 6.46166L7.4396 6.55634L8.35318 7.12328L8.39804 7.15184L8.42487 7.19566L9.75218 9.38241L9.75659 9.39102L9.761 9.39963L10.9217 11.7491L10.9329 11.7711L10.9373 11.7953L11.2701 13.2547L11.2725 13.2633V13.2719L11.4392 14.4872L11.4436 14.5134L11.4392 14.542L11.1916 16.6473L11.1892 16.6626L11.1848 16.6778L10.7707 18.2163L10.7663 18.2296L10.7619 18.2405L10.1815 19.6976L10.1727 19.7218L10.1591 19.7418L8.99841 21.443L8.9916 21.4516L8.98479 21.4602L8.15452 22.4337L8.11848 22.4755L8.0624 22.4974L6.98461 22.902L6.67862 23.0163V21.8186L6.51441 20.3725V12.6318L6.51561 12.633ZM13.7622 38.3583L13.4313 41.112L13.4269 41.1472L13.4113 41.1782L12.1673 43.7714L12.1537 43.8L12.1333 43.8219L10.3085 45.8482L10.2905 45.8682L10.268 45.8815L8.85983 46.8549L8.76972 46.9164L8.66638 46.8855L6.67742 46.3185L6.52001 46.2747L6.51561 46.1143L6.4323 43.2792V37.2792L6.51561 34.4375V34.4156L6.67982 33.1342V31.1803L6.68663 31.156L6.85084 30.4263L6.88008 30.3054L6.99943 30.2659L7.49888 30.1032L7.5934 30.0722L7.68111 30.1208L9.42256 31.0942L9.44298 31.1052L9.45861 31.1185L10.8692 32.3337L10.8897 32.3513L10.9053 32.3756L13.0605 35.4525L13.0853 35.4877L13.0941 35.5272L13.7578 38.2809L13.7666 38.318L13.7622 38.3576V38.3583Z" fill="white"/>
<path d="M35.0881 36.1321V36.1516L35.171 38.4945V47.5318L35.2835 47.5956L36.4446 48.242L36.4963 48.2725H36.5572L42.0354 48.2705L44.8475 48.1911H47.5493L49.4598 48.787L49.9252 51.4483L49.4686 53.4614L47.7204 53.9078H45.5788L45.5652 53.9098L43.6776 54.1496L42.0398 54.0702L42.0238 54.0682L42.0062 54.0702L40.3637 54.231L38.6403 54.1496H38.6202L36.4646 54.231H36.4578L36.4514 54.2329L33.2273 54.5561L31.8435 54.6352L29.6659 54.2548L28.8224 52.3803V49.3539L28.9033 46.189V25.4593L29.0695 22.7932V22.7627L28.9053 20.6683L28.9866 18.2593L29.1528 16.7166L29.3194 13.8001V7.8835L29.4836 5.54063L29.486 5.53398V4.3825L29.4836 4.3735L29.3218 2.47237L29.9314 0.538374L32.0145 0.237495L34.9731 0.156113L37.4455 0.397911L37.4547 0.399868H37.4615L39.8618 0.48125L42.9286 0.641666H44.8543L47.7496 0.562632H49.2235L49.6913 1.0834L49.93 2.86833V4.27686L49.32 6.21751L47.5766 6.43975L45.9253 6.35837H43.6756L43.6639 6.36032L42.1139 6.52074L40.8135 6.36032L40.7958 6.35837H40.7754L36.6313 6.52074L36.5504 6.52543L36.4895 6.57786L35.6592 7.30756L35.5851 7.37134V20.8573L35.5895 20.8792L36.0037 22.8242L36.0417 22.9998H39.9656L39.9744 22.9979L41.9497 22.8375L43.3423 22.9188H43.3583L43.3716 22.9165L45.6036 22.7561H47.8914L49.57 23.1297L50.0942 24.5958L50.0129 27.121L49.642 28.499L47.8149 28.7979H37.5985L37.5673 28.8065L35.7425 29.3735L35.5919 29.4196L35.5851 29.5738L35.5018 31.4397L35.4209 33.8573L35.0901 36.1145L35.0881 36.1321Z" fill="white"/>
<path d="M92.1 53.3295L91.9919 53.7032L90.5681 54.0682H87.5217L87.5129 54.0702L86.4103 54.1473L84.7926 53.3933L83.5871 51.1165L83.0087 49.8266L83.0063 49.8199L83.0019 49.8133L81.5124 46.9825L80.0164 43.9804L77.2829 38.9628L74.8778 34.1848L74.8758 34.1781L74.871 34.1715L73.4672 31.831L72.8079 30.4615L72.8035 30.4529L72.7967 30.4416L72.2997 29.6329L72.1803 29.4396L71.9869 29.5581L70.6596 30.3692L70.6211 30.3935L70.5943 30.4306L68.6886 33.1033L68.6706 33.1276L68.6594 33.1581L67.6649 35.9912L67.6537 36.0241L67.6517 36.0593L67.5684 40.5999V43.6024L67.5704 43.6087L67.6517 45.0485L67.3229 48.1097L67.3209 48.1211V52.0967L67.242 53.4637L66.801 53.8968L66.1622 53.8264L66.1329 53.8241L66.1061 53.8288L63.6445 54.1496L61.2799 53.9188L60.5533 52.9958L60.4748 51.0395L60.3915 48.9341L60.3082 46.9187V44.9057L60.5557 42.8946V40.3628L60.639 38.9914L60.8053 35.6637L60.8886 31.7758L60.9719 27.9626V24.4021L61.0552 16.3868L61.1361 13.3165L61.3856 11.057V8.53416L61.4689 6.82866L61.5522 4.23069V2.61753L61.6311 1.36041L62.0136 0.39126L62.4814 0L63.4759 0.0747307L65.8742 0.156113L67.5772 0.30753L67.9801 0.964847L67.9012 2.5295V4.95179L67.737 7.37369L67.7346 7.38229V10.699L67.6517 12.4812V12.5011L67.7346 14.6793L67.6517 17.1098V20.0967L67.5704 21.9606L67.566 22.035L67.6108 22.0968L68.0274 22.6637L68.2004 22.9012L68.385 22.6727L69.6315 21.1296L70.7136 19.7473L71.7101 18.3669L73.5369 15.7736L74.3628 14.5627L76.2684 12.0528L80.9973 5.65058L81.9061 4.36059L83.8097 1.85262L84.8491 0.525462L85.4294 0.312225L86.4464 0.160417L87.6499 0.395564L87.6859 0.402215L87.722 0.397911L88.982 0.244146L89.5848 0.538374L89.6321 0.562632H90.4779L91.5601 0.914375L91.6815 1.5713L90.9281 2.38003L90.9077 2.40234L90.8965 2.4262L90.1583 3.78701L88.8422 5.4749L88.8354 5.48116L88.831 5.49016L88.0056 6.78014L86.1067 9.27912L84.1177 11.7891L82.8757 13.3275L82.8693 13.3361L82.8625 13.3451L81.6205 15.2044L80.6304 16.6571L79.4742 18.1075L79.4697 18.1142L79.4673 18.1189L77.4764 20.9539L77.4628 20.9735L77.4539 20.9958L76.6237 23.0221L76.5856 23.1145L76.6305 23.2021L77.5417 24.9804L78.867 27.6527L79.5326 29.0307L80.9432 31.8705L86.0843 41.8351L87.5802 44.6725L89.8996 48.8836L91.3867 51.6287L92.1 53.3295Z" fill="white"/>
<path d="M12.6483 85.824L11.7932 83.7363L10.8348 82.2288L9.71453 80.9826L8.63674 80.1539L9.21268 78.9715L9.64484 78.1276L10.0181 77.2418L10.4971 76.1494L10.711 74.7451L10.8168 73.6461V71.0943L10.4971 69.5801L10.1239 68.4901L9.48504 66.9845L8.63234 65.8393L7.57257 64.4922L6.13712 63.6615L4.4994 63.0441L3.59944 62.9408L2.20925 62.888H1.48271L1.07979 63.0351L0.688485 63.2746L0.443369 63.802V65.0395L0.389299 73.3429V77.1252L0.33523 78.5493L0.28116 79.6547L0.175423 81.2854V83.5383L0.121354 85.7998V90.6855L0.0132141 91.7469L0.121354 93.0941V96.0457L0.330423 97.4151L0.703705 97.8283H1.13787L1.99297 97.7755L3.12243 97.7226H4.45414L6.0494 97.1514L8.65236 95.6963L9.17864 95.1313L10.4655 93.9775L11.5341 92.3096L11.9594 91.5271L12.7537 89.5578L12.8618 87.6833L12.6479 85.824H12.6483ZM4.30836 70.8724L4.29714 69.8176L4.36243 68.521L4.4165 67.2505L4.78097 66.8968L5.47146 67.3253L6.34659 68.7671L7.11157 70.3231L7.32745 71.268L7.43759 72.0791L7.27579 73.4594L7.00343 74.4748L6.61213 75.4529L5.85836 76.5563L5.29363 77.2179L4.41409 77.5497V76.8114L4.30836 75.8774V70.8732V70.8724ZM8.71805 89.3649L7.89458 91.0728L6.69103 92.4046L5.73259 93.0663L4.31076 92.6617L4.25469 90.741V86.8488L4.30876 85.0071L4.4169 84.1565L4.41449 82.8951L4.54066 82.35L4.97041 82.2092L6.16275 82.8775L7.09635 83.6862L8.51138 85.7215L8.94554 87.526L8.71845 89.3657L8.71805 89.3649Z" fill="white"/>
<path d="M20.5846 90.2355L19.3205 89.64L18.6973 89.2667L18.121 88.8219L17.046 87.5965L16.5429 86.8535L15.8328 85.1703L15.3122 83.5457L15.1612 82.8027L15.0142 81.3336L14.9793 80.6031L14.9833 79.8769L15.0686 78.4328L15.3126 76.2789L15.6254 74.8973L15.7756 74.2635L16.0799 72.9575L16.3114 72.2939L16.5001 71.664L16.9635 70.3372L17.2767 69.6443L17.9291 68.3762L18.3112 67.7674L18.7278 67.2005L19.8316 66.0959L20.48 65.554L21.1589 65.092L21.9063 64.7136L23.5992 64.2844L25.245 64.2711L26.4529 64.6694L27.7638 65.1933L28.4559 65.6507L29.1007 66.1793L29.6555 66.8127L30.5242 68.1305L30.8382 68.8148L31.0709 69.5285L31.2647 70.2378L31.5191 71.7954L31.6616 72.6139L31.7826 73.6214L31.7958 74.5409L31.7878 75.305L31.7365 76.1028L31.6897 76.8626L31.4714 78.7896L31.2659 80.2592L31.1117 80.9309L30.9531 81.6407L30.5586 83.0516L30.0908 84.4163L29.8249 85.038L29.138 86.2642L28.7559 86.873L28.3394 87.44L27.3945 88.5237L26.8747 88.9647L25.6419 89.8259L24.937 90.1706L24.2064 90.3975L23.4499 90.507L22.2767 90.4949L21.5806 90.4198L20.5834 90.2355H20.5846Z" fill="#C8432A"/>
<path d="M51.5878 95.4968L50.6742 92.5561L50.4042 91.6088L49.5964 88.7166L47.8213 82.253L47.2834 80.0948L46.4219 76.8399L45.884 74.7365L45.5624 73.7431L45.0225 71.5826L44.8066 70.4197L44.2691 68.2702L44.0532 67.2682L43.5178 65.277L43.3063 64.2418L42.2669 62.7714L41.3129 62.5758L40.1634 62.8195L39.7 64.3337L39.2727 66.5314L39.1109 67.4215L38.247 70.428L37.9794 71.6303L37.6013 72.9512L37.2797 74.2107L36.85 76.2546L36.3641 78.0481L36.1527 79.8722L35.3428 83.0391L35.0753 84.1401L34.8614 85.3424L34.6972 85.9821L34.3215 87.7119L33.7836 90.0262L33.3538 92.1777L32.868 93.868L32.6025 95.4854L32.3842 96.3865L32.2356 97.5513L33.2613 97.9316L34.1589 97.8811L35.3873 97.9844L36.1771 97.7911L36.7935 96.5364L37.0074 95.4991L37.1672 94.4529L37.6105 92.3651L38.3439 91.0971L39.489 91.1542L40.7802 90.9938L41.8083 91.207H43.5182L45.2167 91.2598L45.7679 91.5587L46.1572 93.0224L46.4271 94.1829L46.8569 95.8094L47.0659 96.9347L48.1345 97.8291L50.1932 97.8819L51.5025 97.9828L51.8129 97.7676L52.0107 96.9941L51.5878 95.4976V95.4968ZM43.6011 87.4834L39.7785 87.481L38.6042 87.1931L38.8337 85.7798L39.2659 83.8306L39.8058 81.6724L40.2331 79.5228L40.6112 77.3713L40.9036 76.2217L41.7763 76.2879L42.1204 77.4636L42.9282 80.6219L43.5198 82.613L44.3252 85.558L44.6132 86.9603L43.6007 87.4834H43.6011Z" fill="white"/>
<path d="M74.0183 97.1319L73.2265 95.8943L71.296 93.5381L69.9531 91.9645L68.0162 89.5974L66.7269 88.0742L65.4356 86.6038L64.7564 85.7751L65.0399 84.1135L65.9287 83.3004L67.3729 81.6278L67.8992 80.7486L68.2681 79.7685L68.6394 78.3596L68.9634 77.0473L69.1208 75.3813L69.0667 73.5021L68.9069 72.4649L68.3174 70.5352L67.9977 69.6998L67.3521 67.911L66.8751 67.0889L66.2899 66.3111L64.9017 64.9045L64.0515 64.23L63.1988 63.6564L62.2495 63.1423L60.6591 62.6763L59.4331 62.573H58.2047L57.064 62.6235L56.1685 63.3532L56.2181 64.1905L56.1665 64.9926L56.1124 66.252L56.2181 68.9224L56.1124 70.5113V76.2323L56.1665 78.0673V79.9641L56.0583 81.7577L55.8445 83.0124L56.0043 83.953L55.8961 85.2278L55.9502 86.4763L55.8961 87.7995L55.9502 88.9995L55.8961 90.2699L56.0043 93.0983L55.9502 94.2103V95.5203L56.0559 96.8654L56.2991 97.626L57.2351 97.7226L59.1071 97.5137L60.4208 97.4632L60.5694 96.3994L60.5133 94.6301L60.4592 88.2146V86.6058L61.5078 87.5002L62.9725 89.1947L63.6205 90.041L64.3158 90.8236L65.6635 92.4543L66.9572 94.1927L67.6545 95.03L69.0944 96.8541L70.8807 97.8275L71.9292 97.8803H72.6762L73.4456 97.8256L73.8841 97.9684L74.0664 97.7903L74.0191 97.1311L74.0183 97.1319ZM64.6122 76.0836L64.448 77.0903L63.8384 79.1343L63.2308 79.9915L62.4049 80.7431L61.0123 81.5366L60.5129 80.6222V79.7012L60.567 77.4926V75.708L60.4588 74.2443L60.5129 73.3366L60.6186 72.4574L60.5129 72.029V71.1346L60.621 70.1259V69.192L60.6751 68.2404L60.565 67.4536L60.7091 66.7591L61.7889 67.3879L63.1343 69.0186L63.6854 70.034L64.0679 71.1549L64.502 73.3745L64.7203 74.7592L64.6122 76.0844V76.0836Z" fill="white"/>
<path d="M92.7861 76.7319L92.676 75.3473L92.5162 73.7208L92.2506 72.7935L91.8773 71.8572L91.2317 70.1208L90.3814 68.4615L89.7426 67.6837L89.0453 66.8968L87.4953 65.4879L86.5953 64.921L85.6345 64.4002L84.622 63.9847L82.5409 63.4639L78.6399 62.8903L77.794 62.9936L76.8331 62.9432L75.9985 63.3278L75.7938 64.5321V67.3519L75.8479 68.9255V70.1365L75.7397 71.6683V74.499L75.5258 78.8134V83.3806L75.6316 87.3719V88.6356L75.5775 90.0598V93.418L75.5258 95.4706L75.5775 96.4616L75.5258 97.187L75.8294 98.0243L76.2436 98.2947L77.3438 98.0904L79.0156 98.2485L80.5115 98.0924L81.6341 98.0396L82.7524 97.7273L83.6095 97.466L85.425 96.6287L86.2733 96.1099L87.0675 95.4373L87.8145 94.7076L89.097 93.1383L89.6841 92.3053L90.2737 91.4128L90.7527 90.5293L91.2341 89.4831L91.7716 88.2765L92.0888 87.0831L92.4645 85.7665L92.9483 83.5665L93 81.7467V77.6103L92.7861 76.7312V76.7319ZM88.8671 82.0683L88.4349 84.2418L87.8409 86.6132L87.4068 87.7803L86.327 89.9452L85.6025 90.9253L83.879 92.4485L82.8958 93.0397L81.8408 93.5252L80.4662 93.8613L80.0881 93.1844V88.057L80.0341 87.0659L79.8723 84.9648L79.8182 82.7515V77.5998L79.7641 75.6043V73.7099L79.8182 71.5536V69.2945L79.8743 67.6923L81.222 67.2353L83.3572 67.9298L85.3437 68.9627L86.8104 70.7167L87.8409 72.6859L88.3788 74.8398L88.543 76.0089L88.8106 78.1123L88.9207 80.0639L88.8667 82.0683H88.8671Z" fill="white"/>
<path d="M67.0225 109.887L66.9648 109.794L66.9552 109.569V109.381L67.1374 109.147L67.4442 109.185L67.7991 109.147L67.9813 109.1L68.1732 109.034L68.3554 108.903L68.48 108.744L68.5661 108.36L68.4511 107.994L68.3742 107.826L68.2881 107.657L68.1155 107.357L68.029 107.217L67.8564 106.927L67.6837 106.627L67.5876 106.477L67.3285 106.009L67.2324 105.859L67.1462 105.7L67.0697 105.54L67.0025 105.372L66.9163 105.081L66.8683 104.941L66.8779 104.772L66.9067 104.473L67.0217 104.154L67.2135 103.883L67.5015 103.686L67.6741 103.63L68.0482 103.555L68.2401 103.545H68.6526L68.9117 103.602L68.9882 103.873L68.9305 104.155L68.6426 104.211L68.2401 104.22L68.077 104.267L67.7991 104.426L67.713 104.567L67.6745 104.876L67.7895 105.176L67.8568 105.326L68.039 105.597L68.202 105.887L68.2981 106.037L68.4515 106.29L68.5761 106.534L68.6622 106.684L68.7483 106.843L68.8344 106.993L69.0167 107.292L69.0936 107.452L69.1701 107.602L69.2758 107.854L69.3719 108.126L69.4008 108.341L69.3719 108.735L69.3142 108.913L69.1897 109.194L69.0267 109.438L68.9021 109.559L68.7583 109.672L68.6049 109.756L68.2693 109.878L68.0582 109.887L67.8375 109.934H67.262L67.0221 109.887H67.0225Z" fill="white"/>
<path d="M71.5587 109.813L71.5395 109.55V108.885L71.5203 108.717L71.5107 108.464V108.314L71.5011 108.061L71.4914 107.339L71.5107 107.021L71.5011 106.749V105.616L71.5107 105.335L71.5011 105.016L71.4914 104.613V104.351L71.3573 104.276H70.8202L70.5707 104.286L70.3596 104.267L70.2827 104.014V103.817L70.513 103.611L70.8678 103.648L71.1458 103.63L71.2992 103.648L71.5583 103.611L71.8844 103.63L72.2488 103.62L72.4791 103.63L72.719 103.601L72.9686 103.63L73.2181 103.611L73.5056 103.779L73.5249 103.948L73.5056 104.191L73.4388 104.266L73.2085 104.276H72.4218L72.3353 104.313L72.3257 104.501L72.3161 104.745L72.345 105.035V105.644L72.3546 105.934V106.225L72.345 106.534V106.787L72.3353 106.937L72.3546 107.078V108.089L72.3642 108.408L72.3834 108.633V108.904L72.393 109.082V109.27L72.3834 109.485L72.393 109.654L72.3546 109.842L72.1339 109.898H71.7982L71.5583 109.814L71.5587 109.813Z" fill="white"/>
<path d="M76.1907 109.972L76.0085 109.944L75.8359 109.897L75.5098 109.766L75.366 109.681L75.2415 109.578L75.0304 109.353L74.8674 109.063L74.7905 108.885L74.7328 108.697L74.6848 108.445V108.192L74.6944 106.346V105.662L74.7232 105.522L74.704 105.381L74.7136 105.222L74.7328 105.091L74.7232 104.81L74.7328 104.426V103.882L74.7809 103.592L74.9631 103.535L75.2411 103.516L75.4425 103.554L75.5002 103.779V105.222L75.4906 105.428V105.634L75.4618 105.841V106.056L75.4522 106.272L75.4425 106.478L75.4233 106.693L75.4618 106.9L75.4522 107.199L75.4618 107.799L75.4714 108.099L75.5098 108.38L75.5483 108.577L75.5963 108.783L75.7305 108.961L75.8839 109.083L76.0662 109.167L76.3441 109.214L76.5936 109.243L76.7663 109.214L77.0923 109.027L77.313 108.69L77.3802 108.502L77.4187 108.296L77.4475 107.94L77.4764 107.724V106.74L77.4668 106.478L77.4764 106.31L77.4475 106.197L77.486 105.982V105.785L77.4764 105.41V103.639L77.5244 103.574L77.649 103.555L77.812 103.545H77.9654L78.1188 103.555L78.2149 103.639L78.2438 103.845L78.2245 104.051L78.2534 104.304V104.482L78.2438 104.67L78.2341 104.923L78.2149 105.026L78.2341 105.279L78.2438 105.494V105.7L78.2245 105.935L78.2341 106.132L78.2149 106.31L78.2053 106.488L78.2149 106.872V107.275L78.2245 107.509V107.725L78.2149 107.884L78.1765 108.24L78.138 108.437L78.09 108.634L77.975 109.027L77.8408 109.252L77.7643 109.393L77.5437 109.646L77.1984 109.871L76.8051 109.974L76.594 110.002L76.1911 109.974L76.1907 109.972Z" fill="white"/>
<path d="M80.1418 109.869L80.0841 109.71L80.0937 109.579L80.0841 109.401L80.0937 109.035V108.435L80.1034 108.182V107.957L80.0937 107.62L80.0841 107.245V106.43L80.1034 106.037L80.1226 105.662V105.156L80.1418 104.884V104.669L80.1322 104.387V103.881L80.1706 103.656L80.3337 103.582L80.5063 103.591L80.6597 103.572L81.3598 103.676L81.7339 103.77L81.9161 103.844L82.0887 103.938L82.2517 104.041L82.5297 104.294L82.6543 104.435L82.7692 104.575L82.9226 104.875L83.0375 105.184L83.1048 105.353L83.1529 105.521L83.1817 105.812L83.201 106.055L83.2394 106.215V106.955L83.2298 107.283L83.1437 107.676L83.0764 107.911L83.0187 108.126L82.9226 108.342L82.8365 108.529L82.7504 108.688L82.6446 108.848L82.5389 108.998L82.3086 109.279L82.1744 109.41L82.0307 109.532L81.8773 109.626L81.5512 109.775L81.3978 109.822L81.1964 109.879L80.9949 109.888L80.7266 109.916L80.429 109.888L80.2275 109.926L80.1414 109.869L80.1418 109.869ZM81.2252 109.035L81.4074 108.951L81.5801 108.848L81.8869 108.576L82.0114 108.408L82.2033 108.023L82.2802 107.817L82.3855 107.396L82.4624 107.012L82.472 106.656L82.4624 106.487L82.4528 106.309L82.4047 105.934L82.3759 105.728L82.2798 105.344L82.0975 104.997L81.8384 104.688L81.4932 104.51L81.1191 104.388L80.8984 104.463L80.8888 104.734V105.137L80.8792 105.522V105.859L80.8888 106.215V107.133L80.8984 107.527L80.9272 107.902L80.9368 108.08V108.989L80.9945 109.092L81.2248 109.036L81.2252 109.035Z" fill="white"/>
<path d="M84.8503 109.831L84.7738 109.55V108.126L84.7834 107.845V107.62L84.7738 107.339V107.086L84.7834 106.871L84.8218 106.552L84.8122 106.168L84.8411 105.981L84.8218 105.765L84.8507 105.381L84.8603 105.203V104.65L84.8699 104.378L84.8507 103.779L84.8795 103.591L85.1675 103.544H85.3882L85.6469 103.591L85.7142 103.666L85.7238 103.872V104.575L85.7142 104.931L85.695 105.268L85.6757 105.643V106.215L85.6661 107.283V107.817L85.6565 108.033L85.6469 108.239L85.6757 108.37L85.6661 108.52L85.6565 108.745L85.6757 109.063V109.27L85.6854 109.56V109.71L85.6565 109.813L85.4647 109.851L85.244 109.841L85.0906 109.888L84.8507 109.832L84.8503 109.831Z" fill="white"/>
<path d="M88.9359 109.981L88.6099 109.869L88.4469 109.794L88.2935 109.7L87.9963 109.429L87.8525 109.26L87.6319 108.867L87.4592 108.483L87.4016 108.305L87.3247 107.949L87.2958 107.771L87.2766 107.593L87.2574 107.237V106.702L87.2958 106.356L87.3151 106.197L87.3535 105.869L87.392 105.7L87.4208 105.541L87.4973 105.204L87.555 105.026L87.6795 104.698L87.7564 104.538L87.8425 104.389L88.0824 104.089L88.2262 103.939L88.3796 103.808L88.5522 103.696L88.9552 103.546L89.3581 103.499L89.6649 103.564L90.0005 103.658L90.1828 103.752L90.3554 103.864L90.5088 104.005L90.7583 104.304L90.8544 104.464L90.9313 104.632L90.9982 104.801L91.1039 105.176L91.1616 105.373L91.2193 105.616L91.2481 105.841L91.2674 106.029L91.277 106.226L91.2866 106.413V106.891L91.277 107.256L91.2577 107.425L91.2385 107.603L91.1808 107.959L91.1043 108.305L91.0563 108.465L90.9221 108.783L90.8452 108.942L90.7591 109.092L90.5576 109.383L90.4423 109.504L90.1643 109.748L90.0013 109.851L89.8287 109.926L89.6465 109.973L89.3589 110.001H89.1863L88.9372 109.982L88.9359 109.981ZM89.5207 109.241L89.751 109.091L89.914 108.96L90.1155 108.632L90.2016 108.464L90.355 108.126L90.4126 107.77L90.4607 107.424L90.4799 107.217L90.4992 107.021L90.5088 106.814L90.4992 106.421L90.4799 106.233L90.4223 105.821L90.3934 105.605L90.3073 105.184L90.2304 104.987L90.0001 104.668L89.8756 104.537L89.6549 104.369L89.3481 104.312L88.974 104.397L88.8206 104.481L88.6095 104.715L88.4369 105.015L88.3696 105.193L88.2735 105.474L88.197 105.765L88.1682 105.971V106.233L88.1297 106.411L88.1201 106.767L88.0913 107.142V107.507L88.1393 107.863L88.1682 108.032L88.2066 108.201L88.3312 108.566L88.4465 108.753L88.7629 109.072L89.1178 109.25L89.2808 109.278L89.5207 109.241V109.241Z" fill="white"/>
</g>
<defs>
<clipPath id="clip0_3402_4">
<rect width="93" height="110" fill="white"/>
</clipPath>
</defs>
</svg>
