<svg width="588" height="339" viewBox="0 0 588 339" fill="none" xmlns="http://www.w3.org/2000/svg">
<path d="M239.511 213.064L238.811 215.154L238.341 216.204L237.741 217.194L236.001 219.114L234.911 220.044L232.361 221.494L229.871 222.634L228.711 223.024L226.391 223.554L225.231 223.754L224.071 223.894L221.751 224.054L218.271 224.114L216.001 223.904L214.961 223.794L212.821 223.584L211.721 223.354L210.681 223.184L208.471 222.734L207.301 222.384L205.151 221.624L204.101 221.154L203.111 220.624L201.131 219.124L200.141 218.224L199.271 217.264L198.521 216.174L197.501 213.624L197.151 211.064L197.551 209.104L198.131 206.954L198.721 205.784L199.441 204.674L200.341 203.684L202.271 202.064L203.301 201.434L204.391 200.924L205.481 200.474L207.911 199.764L209.191 199.374L210.771 198.984L212.231 198.774L213.451 198.634L214.731 198.554L215.951 198.474L219.071 198.424L221.461 198.444L222.561 198.544L223.721 198.644L226.051 198.974L228.321 199.424L229.361 199.714L231.451 200.534L232.501 201.004L233.491 201.534L235.411 202.784L236.221 203.504L237.841 205.254L238.531 206.284L239.041 207.374L239.361 208.534L239.571 210.364L239.591 211.464L239.491 213.054L239.511 213.064Z" fill="#C8432A"/>
<path d="M42.7814 110.694L42.0814 112.784L41.6114 113.834L41.0114 114.824L39.2714 116.744L38.1814 117.674L35.6314 119.124L33.1414 120.264L31.9814 120.654L29.6614 121.184L28.5014 121.384L27.3414 121.524L25.0214 121.684L21.5414 121.744L19.2714 121.534L18.2314 121.424L16.0914 121.214L14.9914 120.984L13.9514 120.814L11.7414 120.364L10.5714 120.014L8.42139 119.254L7.37139 118.784L6.38139 118.254L4.40139 116.754L3.41139 115.854L2.54139 114.894L1.79139 113.804L0.771387 111.254L0.421387 108.694L0.821387 106.734L1.40139 104.584L1.99139 103.414L2.71139 102.304L3.61139 101.314L5.54139 99.694L6.57139 99.0639L7.66139 98.554L8.75139 98.104L11.1814 97.394L12.4614 97.004L14.0414 96.614L15.5014 96.404L16.7214 96.264L18.0014 96.184L19.2214 96.104L22.3414 96.054L24.7314 96.074L25.8314 96.174L26.9914 96.274L29.3214 96.604L31.5914 97.054L32.6314 97.344L34.7214 98.164L35.7714 98.6339L36.7614 99.164L38.6814 100.414L39.4914 101.134L41.1114 102.884L41.8014 103.914L42.3114 105.004L42.6314 106.164L42.8414 107.994L42.8614 109.094L42.7614 110.684L42.7814 110.694Z" fill="#C8432A"/>
<path d="M422.971 59.3439L422.751 60.0039L422.601 60.3339L422.411 60.6439L421.861 61.2439L421.521 61.5339L420.721 61.9839L419.941 62.3439L419.581 62.4639L418.851 62.6339L418.491 62.6939L418.131 62.7339L417.401 62.7839L416.311 62.8039L415.601 62.7339L415.271 62.7039L414.601 62.6339L414.251 62.5639L413.921 62.5139L413.231 62.3739L412.861 62.2639L412.191 62.0239L411.861 61.8739L411.551 61.7039L410.931 61.2339L410.621 60.9539L410.351 60.6539L410.111 60.3139L409.791 59.5139L409.681 58.7139L409.801 58.0939L409.981 57.4239L410.171 57.0539L410.391 56.7039L410.671 56.3939L411.281 55.8839L411.601 55.6839L411.941 55.5239L412.281 55.3839L413.041 55.1639L413.441 55.0439L413.941 54.9239L414.401 54.8639L414.781 54.8239L415.181 54.7939L415.561 54.7639L416.541 54.7439H417.291L417.641 54.7839L418.001 54.8139L418.731 54.9139L419.441 55.0539L419.771 55.1439L420.431 55.4039L420.761 55.5539L421.071 55.7239L421.671 56.1139L421.921 56.3439L422.431 56.8939L422.651 57.2139L422.811 57.5539L422.911 57.9139L422.981 58.4839V58.8239L422.961 59.3239L422.971 59.3439Z" fill="#C8432A"/>
<path d="M306.231 158.304L306.011 158.964L305.861 159.294L305.671 159.604L305.121 160.204L304.781 160.494L303.981 160.944L303.201 161.304L302.841 161.424L302.111 161.594L301.751 161.654L301.391 161.694L300.661 161.744L299.571 161.764L298.861 161.694L298.531 161.664L297.861 161.594L297.511 161.524L297.181 161.474L296.491 161.334L296.121 161.224L295.451 160.984L295.121 160.834L294.811 160.664L294.191 160.194L293.881 159.914L293.611 159.614L293.371 159.274L293.051 158.474L292.941 157.674L293.061 157.054L293.241 156.384L293.431 156.014L293.651 155.664L293.931 155.354L294.541 154.844L294.861 154.644L295.201 154.484L295.541 154.344L296.301 154.124L296.701 154.004L297.201 153.884L297.661 153.824L298.041 153.784L298.441 153.754L298.821 153.724L299.801 153.704H300.551L300.901 153.744L301.261 153.774L301.991 153.874L302.701 154.014L303.031 154.104L303.691 154.364L304.021 154.514L304.331 154.684L304.931 155.074L305.181 155.304L305.691 155.854L305.911 156.174L306.071 156.514L306.171 156.874L306.241 157.444V157.784L306.221 158.284L306.231 158.304Z" fill="#C8432A"/>
<path d="M108.571 40.464L108.351 41.124L108.201 41.454L108.011 41.764L107.461 42.364L107.121 42.654L106.321 43.104L105.541 43.464L105.181 43.584L104.451 43.754L104.091 43.814L103.731 43.854L103.001 43.904L101.911 43.924L101.201 43.854L100.871 43.824L100.201 43.754L99.8508 43.684L99.5208 43.634L98.8308 43.494L98.4608 43.384L97.7908 43.144L97.4608 42.994L97.1508 42.824L96.5308 42.354L96.2208 42.074L95.9508 41.774L95.7108 41.434L95.3908 40.634L95.2808 39.834L95.4008 39.214L95.5808 38.544L95.7708 38.174L95.9908 37.824L96.2708 37.514L96.8808 37.004L97.2008 36.804L97.5408 36.644L97.8808 36.504L98.6408 36.284L99.0408 36.164L99.5408 36.044L100.001 35.984L100.381 35.944L100.781 35.914L101.161 35.884L102.141 35.864H102.891L103.241 35.904L103.601 35.934L104.331 36.034L105.041 36.174L105.371 36.264L106.031 36.524L106.361 36.674L106.671 36.844L107.271 37.234L107.521 37.464L108.031 38.014L108.251 38.334L108.411 38.674L108.511 39.034L108.581 39.604V39.944L108.561 40.444L108.571 40.464Z" fill="#C8432A"/>
<path d="M472.321 324.004L464.451 329.944L460.061 332.614L455.361 334.754L444.071 337.444L437.701 338.144L424.651 337.054L412.581 334.974L407.341 333.474L397.471 329.564L392.681 327.384L388.041 324.974L379.071 319.694L366.071 311.094L358.231 304.604L354.651 301.584L347.271 295.394L343.771 291.764L340.351 288.514L333.351 281.254L329.921 277.024L323.901 268.774L321.231 264.384L318.941 259.914L315.411 249.384L314.021 243.544L313.241 237.784L313.221 231.864L315.911 219.874L321.111 209.544L327.541 203.304L335.101 196.834L340.251 194.004L345.701 191.714L351.531 190.324L362.751 189.224L368.141 189.504L373.451 190.394L378.611 191.514L389.391 195.044L395.091 196.844L401.921 199.404L407.851 202.344L412.711 204.904L417.651 207.844L422.361 210.634L433.991 218.334L442.731 224.444L446.531 227.614L450.561 230.934L458.321 238.034L465.551 245.444L468.671 249.154L474.311 257.474L476.981 261.864L479.271 266.334L483.171 275.804L484.321 280.504L485.871 291.044L485.811 296.584L484.921 301.894L483.191 306.984L479.351 314.274L476.631 318.374L472.251 324.004H472.321Z" fill="#C8432A"/>
<path d="M152.071 161.104L147.641 162.794L145.261 163.434L142.811 163.794L137.241 163.524L134.211 162.994L128.331 160.734L123.041 158.154L120.821 156.764L116.791 153.634L114.871 151.984L113.051 150.244L109.621 146.604L104.781 140.894L102.041 136.844L100.801 134.974L98.2314 131.124L97.1014 128.984L95.9614 127.024L93.7014 122.734L92.6914 120.324L91.0214 115.714L90.3814 113.334L89.9214 110.964L89.7114 105.634L89.8514 102.754L90.2614 99.994L91.0414 97.264L93.8914 92.094L97.6814 88.024L101.481 86.004L105.841 84.034L108.601 83.424L111.421 83.094L114.301 83.234L119.631 84.234L122.081 85.084L124.411 86.204L126.641 87.414L131.141 90.494L133.531 92.094L136.341 94.194L138.681 96.344L140.581 98.174L142.461 100.194L144.261 102.114L148.591 107.224L151.801 111.214L153.131 113.184L154.541 115.264L157.171 119.584L159.511 123.974L160.451 126.104L161.941 130.704L162.581 133.084L163.041 135.454L163.571 140.344L163.471 142.664L162.771 147.734L162.001 150.284L160.881 152.614L159.401 154.734L156.651 157.584L154.851 159.114L152.071 161.124V161.104Z" fill="#C8432A"/>
<path d="M334.841 110.614L330.581 111.354L328.341 111.514L326.081 111.404L321.141 110.194L318.521 109.194L313.651 106.154L309.371 102.924L307.631 101.294L304.571 97.7942L303.141 95.9842L301.821 94.1142L299.381 90.2642L296.041 84.3142L294.291 80.2142L293.501 78.3242L291.871 74.4342L291.231 72.3242L290.551 70.3742L289.281 66.1442L288.791 63.8042L288.101 59.3842L287.941 57.1342V54.9342L288.681 50.1242L289.311 47.5742L290.161 45.1742L291.341 42.8642L294.791 38.7342L298.881 35.7542L302.631 34.6042L306.871 33.5942L309.441 33.5242L312.021 33.7242L314.571 34.3542L319.161 36.1742L321.201 37.3642L323.091 38.7742L324.881 40.2442L328.371 43.7742L330.231 45.6142L332.381 47.9742L334.101 50.3042L335.481 52.2742L336.821 54.4142L338.101 56.4442L341.091 61.7742L343.271 65.9042L344.121 67.9042L345.021 70.0042L346.621 74.3242L347.951 78.6542L348.421 80.7242L348.951 85.0942L349.111 87.3342V89.5342L348.731 94.0042L348.241 96.0642L346.741 100.484L345.611 102.634L344.201 104.524L342.511 106.164L339.551 108.234L337.671 109.294L334.841 110.614Z" fill="#C8432A"/>
<path d="M502.331 135.854L502.131 139.714L501.821 141.704L501.281 143.654L499.241 147.724L497.851 149.814L494.231 153.454L490.561 156.544L488.791 157.734L485.131 159.714L483.271 160.604L481.381 161.384L477.531 162.744L471.671 164.474L467.751 165.184L465.941 165.494L462.221 166.144L460.251 166.284L458.411 166.494L454.471 166.764L452.331 166.724L448.341 166.454L446.351 166.144L444.431 165.704L440.381 164.104L438.281 163.044L436.361 161.824L434.581 160.334L431.661 156.504L429.871 152.334L429.621 148.834L429.591 144.934L430.041 142.674L430.731 140.464L431.791 138.364L434.291 134.724L435.731 133.184L437.341 131.814L438.981 130.544L442.761 128.194L444.741 126.944L447.231 125.534L449.611 124.494L451.601 123.684L453.731 122.944L455.761 122.234L461.001 120.684L465.041 119.604L466.951 119.264L468.961 118.894L473.051 118.354L477.101 118.054H479.001L482.921 118.454L484.911 118.764L486.831 119.204L490.651 120.424L492.351 121.264L495.901 123.454L497.551 124.864L498.921 126.474L500.011 128.274L501.231 131.264L501.781 133.114L502.361 135.844L502.331 135.854Z" fill="#C8432A"/>
<path d="M77.011 178.724L76.811 182.584L76.501 184.574L75.961 186.524L73.921 190.594L72.531 192.684L68.911 196.324L65.241 199.414L63.471 200.604L59.811 202.584L57.951 203.474L56.061 204.254L52.211 205.614L46.351 207.344L42.431 208.054L40.621 208.364L36.901 209.014L34.931 209.154L33.091 209.364L29.151 209.634L27.011 209.594L23.021 209.324L21.031 209.014L19.111 208.574L15.061 206.974L12.961 205.914L11.041 204.694L9.261 203.204L6.341 199.374L4.551 195.204L4.301 191.704L4.271 187.804L4.721 185.544L5.411 183.334L6.471 181.234L8.971 177.594L10.411 176.054L12.021 174.684L13.661 173.414L17.441 171.064L19.421 169.814L21.911 168.404L24.291 167.364L26.281 166.554L28.411 165.814L30.441 165.104L35.681 163.554L39.721 162.474L41.631 162.134L43.641 161.764L47.731 161.224L51.781 160.924H53.681L57.601 161.324L59.591 161.634L61.511 162.074L65.331 163.294L67.031 164.134L70.581 166.324L72.231 167.734L73.601 169.344L74.691 171.144L75.911 174.134L76.461 175.984L77.041 178.714L77.011 178.724Z" fill="#C8432A"/>
<path d="M245.641 119.354L243.851 120.644L242.861 121.224L241.801 121.684L239.261 122.234L237.831 122.364L234.921 122.054L232.231 121.534L231.071 121.174L228.881 120.254L227.821 119.744L226.791 119.184L224.811 117.964L221.941 115.974L220.221 114.484L219.431 113.794L217.811 112.374L217.041 111.544L216.291 110.804L214.761 109.144L214.011 108.184L212.701 106.314L212.121 105.324L211.631 104.314L210.891 101.944L210.611 100.634L210.461 99.3441L210.481 98.0241L211.141 95.3541L212.351 93.0641L213.821 91.6941L215.541 90.2841L216.711 89.6741L217.941 89.1841L219.251 88.9041L221.771 88.7141L222.971 88.8041L224.151 89.0241L225.301 89.3041L227.701 90.1441L228.971 90.5741L230.491 91.1741L231.801 91.8641L232.881 92.4641L233.971 93.1441L235.011 93.7941L237.581 95.5741L239.511 96.9841L240.351 97.7141L241.241 98.4741L242.941 100.104L244.521 101.794L245.201 102.634L246.421 104.524L247.001 105.514L247.491 106.524L248.321 108.664L248.561 109.724L248.861 112.084L248.821 113.324L248.601 114.504L248.191 115.634L247.301 117.244L246.671 118.154L245.661 119.394L245.641 119.354Z" fill="#C8432A"/>
<path d="M584.601 274.634L582.811 275.924L581.821 276.504L580.761 276.964L578.221 277.514L576.791 277.644L573.881 277.334L571.191 276.814L570.031 276.454L567.841 275.534L566.781 275.024L565.751 274.464L563.771 273.244L560.901 271.254L559.181 269.764L558.391 269.074L556.771 267.654L556.001 266.824L555.251 266.084L553.721 264.424L552.971 263.464L551.661 261.594L551.081 260.604L550.591 259.594L549.851 257.224L549.571 255.914L549.421 254.624L549.441 253.304L550.101 250.634L551.311 248.344L552.781 246.974L554.501 245.564L555.671 244.954L556.901 244.464L558.211 244.184L560.731 243.994L561.931 244.084L563.111 244.304L564.261 244.584L566.661 245.424L567.931 245.854L569.451 246.454L570.761 247.144L571.841 247.744L572.931 248.424L573.971 249.074L576.541 250.854L578.471 252.264L579.311 252.994L580.201 253.754L581.901 255.384L583.481 257.074L584.161 257.914L585.381 259.804L585.961 260.794L586.451 261.804L587.281 263.944L587.521 265.004L587.821 267.364L587.781 268.604L587.561 269.784L587.151 270.914L586.261 272.524L585.631 273.434L584.621 274.674L584.601 274.634Z" fill="#C8432A"/>
<path d="M226.471 31.034L224.682 32.324L223.691 32.904L222.632 33.364L220.092 33.914L218.661 34.044L215.752 33.734L213.062 33.214L211.902 32.854L209.712 31.934L208.652 31.424L207.622 30.864L205.642 29.644L202.771 27.654L201.051 26.164L200.262 25.474L198.642 24.054L197.872 23.224L197.122 22.484L195.592 20.824L194.842 19.864L193.532 17.994L192.952 17.004L192.462 15.994L191.721 13.624L191.441 12.314L191.292 11.024L191.312 9.70404L191.971 7.03404L193.182 4.74404L194.652 3.37404L196.372 1.96404L197.542 1.35404L198.771 0.864043L200.081 0.584043L202.602 0.394043L203.801 0.484043L204.982 0.704043L206.132 0.984043L208.532 1.82404L209.801 2.25404L211.322 2.85404L212.632 3.54404L213.712 4.14404L214.801 4.82404L215.842 5.47404L218.411 7.25404L220.342 8.66404L221.182 9.39404L222.072 10.154L223.771 11.784L225.352 13.474L226.032 14.314L227.252 16.204L227.831 17.194L228.322 18.204L229.152 20.344L229.392 21.404L229.691 23.764L229.652 25.004L229.432 26.184L229.021 27.314L228.132 28.924L227.502 29.834L226.492 31.074L226.471 31.034Z" fill="#C8432A"/>
</svg>
