<svg width="57" height="26" viewBox="0 0 57 26" fill="none" xmlns="http://www.w3.org/2000/svg">
<path d="M1.44017 24.622L0.845166 24.657L0.110166 24.377L0.215166 23.537L0.355166 22.942L0.530166 21.857L0.845166 20.737L0.985166 20.037L1.12517 19.302L1.47517 17.762L1.72017 16.607L1.82517 16.187L1.96517 15.382L2.14017 14.647L2.66517 12.547L2.80517 11.322L3.12017 10.132L3.26017 9.46697L3.40017 8.76697L3.57517 7.96197L3.85517 7.05197L4.03017 6.24697L4.41517 4.88197L4.59017 4.25197L4.69517 3.65697L4.97517 2.18697L5.29017 1.13697L6.09517 0.961971L6.76017 1.10197L7.46017 2.11697L7.60017 2.81697L7.95017 4.14697L8.09017 4.81197L8.44017 6.24697L8.58017 7.01697L8.93017 8.45197L9.49017 10.517L9.66517 11.252L9.87517 11.952L10.0502 12.687L10.4002 14.122L10.6102 14.822L10.9602 16.292L11.1702 16.992L11.5552 18.427L12.0802 20.352L12.2552 20.982L12.6402 22.242L12.8502 22.942L13.1302 23.957L12.9902 24.517L12.7452 24.692L11.8702 24.622L10.5052 24.587L9.77017 23.957L9.63017 23.187L9.35017 22.102L9.17517 21.332L8.93017 20.422L8.61517 20.212L7.53017 20.177H6.41017L5.74517 20.037L4.90517 20.142L4.20517 20.107L3.75017 20.912L3.61017 21.612L3.47017 22.277L3.36517 22.977L3.22517 23.677L2.80517 24.552L2.24517 24.692L1.44017 24.622ZM7.56517 17.552L8.16017 17.237L7.98517 16.362L7.46017 14.402L7.07517 13.072L6.55017 10.972L6.34017 10.237L5.88517 10.202L5.71017 10.902L5.46517 12.337L4.83517 15.207L4.55517 16.502L4.41517 17.377L5.11517 17.552H7.56517ZM18.4693 24.692L17.6293 24.622L17.4193 24.447L17.3493 23.817L17.3143 22.697L17.3493 21.472V9.50197L17.4193 8.80197L17.4543 8.10197V6.91197L17.4893 5.47697L17.5243 4.77697V1.73197L17.6643 1.31197L18.1543 1.10197L19.2043 1.20697L20.1143 1.45197L20.2543 2.04697L20.3243 3.02697V5.54697L20.2893 6.73697L20.1843 7.92697V8.55697L20.2193 9.64197L20.2893 10.447L20.2543 11.497L20.1843 12.197V15.382L20.1493 16.467V20.247L20.1843 21.297V23.432L20.2893 24.377L20.0443 24.657L19.1343 24.727L18.4693 24.692ZM32.0362 24.972L30.7062 24.517L30.1112 24.167L29.5512 23.712L29.0612 23.187L28.6762 22.592L28.3612 21.927L27.9762 20.667L27.7662 19.407L27.6262 18.042L27.5912 17.412V12.057L27.0662 11.742L25.1062 11.777L24.3712 11.602L24.1612 10.657L24.1962 9.92197L25.0012 8.94197H27.0662L27.6962 8.48697L27.7662 7.33197V6.66697L28.0112 5.82697L28.9562 5.61697L30.0062 5.65197L30.4612 5.89697L30.6012 6.77197V8.17197L30.7062 8.87197H32.2462L33.1912 8.83697H34.9412L35.3962 9.29197L35.5012 10.377L35.4662 10.972L35.0462 11.567L34.5212 11.637H33.4712L32.8062 11.672L32.1062 11.742L30.7062 11.812L30.6012 12.022L30.5662 12.932V15.627L30.4262 16.607L30.5312 17.412V18.357L30.6362 19.512L31.1612 20.947L32.4212 21.822L33.0862 22.102L33.7862 22.242L34.8362 22.277L35.2912 22.452L35.3962 22.837L35.4662 23.362L35.3612 24.307L35.2212 25.042L34.3112 25.252H33.5062L32.0362 24.972ZM41.2152 25.112H40.4102L39.5002 24.972L39.3602 24.167L39.5002 23.187V21.577L39.5352 20.667L39.5702 20.037L39.6752 19.302V15.837L39.7802 15.067L39.8152 14.437V13.807L39.8502 12.827L39.8852 12.127L40.0252 11.392L41.1802 11.112L42.5102 11.217L42.9652 12.162L43.0002 12.792L42.9652 13.457V14.087L43.1402 14.682L43.6302 14.087L44.0852 13.632L44.5752 13.177L45.0652 12.757L46.0802 11.917L46.6402 11.602L47.6552 11.147L48.3902 11.392L48.5302 12.442L48.4952 13.142L47.8302 14.157L47.3052 14.507L46.7802 14.892L45.9752 15.452L45.2752 16.292L44.7852 16.817L43.9102 18.007L43.5252 18.567L43.1402 19.197L42.7902 20.492V22.557L42.7202 23.642L42.6852 24.342L42.7552 24.867L42.3702 25.147L41.2152 25.112ZM53.3895 24.902L52.8645 24.482L52.7595 23.712L52.7245 23.117L52.8295 21.717V20.912L52.8645 19.477L52.8995 18.812V16.922L52.9345 16.292V13.562L52.8645 12.582V11.672L53.2495 11.112L54.2295 11.077H54.8945L55.8395 11.322L55.8745 12.372V17.377L55.8395 18.672L55.7695 19.477L55.8395 19.792L55.7345 20.562L55.7695 21.227L55.7345 21.927L55.7695 22.522V24.307L55.5595 24.797L54.5095 24.937L53.3895 24.902ZM53.1095 7.96197L52.8295 6.98197V5.54697L53.1445 4.42697L54.2295 4.18197H55.5245L56.3995 4.35697L56.6095 5.16197V5.75697L56.4695 7.05197L56.3295 7.96197L55.6295 8.20697H54.7545L53.8445 8.24197L53.1095 7.96197Z" fill="white"/>
</svg>
