<svg width="99" height="63" viewBox="0 0 99 63" fill="none" xmlns="http://www.w3.org/2000/svg">
<path d="M0.578648 33.6154L1.50106 28.5019L2.24199 25.9042L3.28522 23.4058L6.65223 18.3651L8.83689 15.8431L14.1994 11.6724L19.5334 8.23862L22.0569 6.98114L27.1927 5.03913L29.783 4.21092L32.3952 3.52639L37.6646 2.44289L45.636 1.24599L50.8995 1.03989L53.3208 0.969333L58.3049 0.805698L60.9113 0.99856L63.3555 1.06988L68.5671 1.45742L71.3575 1.91552L76.5403 3.03859L79.0948 3.8251L81.5321 4.77563L86.5619 7.67744L89.1325 9.48504L91.4456 11.4788L93.5239 13.7991L96.6951 19.4671L98.3268 25.3657L98.0587 30.088L97.4386 35.3008L96.4618 38.227L95.1838 41.052L93.4423 43.6541L89.5451 48.0428L87.3893 49.8293L85.0499 51.352L82.6885 52.7311L77.3384 55.1437L74.5356 56.4437L71.0331 57.8478L67.7432 58.7802L64.9908 59.4869L62.0759 60.0706L59.3015 60.6336L52.1699 61.7041L46.6935 62.3805L44.1321 62.4732L41.43 62.5866L35.9825 62.5275L30.6303 62.1606L28.1412 61.8037L23.0756 60.5167L20.5211 59.7302L18.0838 58.7796L13.2815 56.429L11.1973 54.9861L6.91754 51.3868L5.00095 49.1865L3.48273 46.7809L2.36105 44.1687L1.27555 39.9433L0.875408 37.3707L0.57749 33.6111L0.578648 33.6154Z" fill="#C8432A"/>
</svg>
