<svg width="179" height="36" viewBox="0 0 179 36" fill="none" xmlns="http://www.w3.org/2000/svg">
<path d="M2.12486 23.9754L1.52986 24.0104L0.794858 23.7304L0.899858 22.8904L1.03986 22.2954L1.21486 21.2104L1.52986 20.0904L1.66986 19.3904L1.80986 18.6554L2.15986 17.1154L2.40486 15.9604L2.50986 15.5404L2.64986 14.7354L2.82486 14.0004L3.34986 11.9004L3.48986 10.6754L3.80486 9.48537L3.94486 8.82037L4.08486 8.12037L4.25986 7.31537L4.53986 6.40537L4.71486 5.60037L5.09986 4.23536L5.27486 3.60537L5.37986 3.01037L5.65986 1.54037L5.97486 0.490364L6.77986 0.315365L7.44486 0.455365L8.14486 1.47036L8.28486 2.17037L8.63486 3.50037L8.77486 4.16537L9.12486 5.60037L9.26486 6.37037L9.61486 7.80537L10.1749 9.87037L10.3499 10.6054L10.5599 11.3054L10.7349 12.0404L11.0849 13.4754L11.2949 14.1754L11.6449 15.6454L11.8549 16.3454L12.2399 17.7804L12.7649 19.7054L12.9399 20.3354L13.3249 21.5954L13.5349 22.2954L13.8149 23.3104L13.6749 23.8704L13.4299 24.0454L12.5549 23.9754L11.1899 23.9404L10.4549 23.3104L10.3149 22.5404L10.0349 21.4554L9.85986 20.6854L9.61486 19.7754L9.29986 19.5654L8.21486 19.5304H7.09486L6.42986 19.3904L5.58986 19.4954L4.88986 19.4604L4.43486 20.2654L4.29486 20.9654L4.15486 21.6304L4.04986 22.3304L3.90986 23.0304L3.48986 23.9054L2.92986 24.0454L2.12486 23.9754ZM8.24986 16.9054L8.84486 16.5904L8.66986 15.7154L8.14486 13.7554L7.75986 12.4254L7.23486 10.3254L7.02486 9.59037L6.56986 9.55537L6.39486 10.2554L6.14986 11.6904L5.51986 14.5604L5.23986 15.8554L5.09986 16.7304L5.79986 16.9054H8.24986ZM19.154 24.0454L18.314 23.9754L18.104 23.8004L18.034 23.1704L17.999 22.0504L18.034 20.8254V8.85537L18.104 8.15537L18.139 7.45537V6.26537L18.174 4.83036L18.209 4.13037V1.08537L18.349 0.665364L18.839 0.455365L19.889 0.560366L20.799 0.805365L20.939 1.40037L21.009 2.38037V4.90037L20.974 6.09037L20.869 7.28037V7.91036L20.904 8.99537L20.974 9.80037L20.939 10.8504L20.869 11.5504V14.7354L20.834 15.8204V19.6004L20.869 20.6504V22.7854L20.974 23.7304L20.729 24.0104L19.819 24.0804L19.154 24.0454ZM32.7209 24.3254L31.3909 23.8704L30.7959 23.5204L30.2359 23.0654L29.7459 22.5404L29.3609 21.9454L29.0459 21.2804L28.6609 20.0204L28.4509 18.7604L28.3109 17.3954L28.2759 16.7654V11.4104L27.7509 11.0954L25.7909 11.1304L25.0559 10.9554L24.8459 10.0104L24.8809 9.27537L25.6859 8.29537H27.7509L28.3809 7.84037L28.4509 6.68537V6.02037L28.6959 5.18036L29.6409 4.97037L30.6909 5.00536L31.1459 5.25037L31.2859 6.12536V7.52537L31.3909 8.22537H32.9309L33.8759 8.19037H35.6259L36.0809 8.64537L36.1859 9.73037L36.1509 10.3254L35.7309 10.9204L35.2059 10.9904H34.1559L33.4909 11.0254L32.7909 11.0954L31.3909 11.1654L31.2859 11.3754L31.2509 12.2854V14.9804L31.1109 15.9604L31.2159 16.7654V17.7104L31.3209 18.8654L31.8459 20.3004L33.1059 21.1754L33.7709 21.4554L34.4709 21.5954L35.5209 21.6304L35.9759 21.8054L36.0809 22.1904L36.1509 22.7154L36.0459 23.6604L35.9059 24.3954L34.9959 24.6054H34.1909L32.7209 24.3254ZM41.8999 24.4654H41.0949L40.1849 24.3254L40.0449 23.5204L40.1849 22.5404V20.9304L40.2199 20.0204L40.2549 19.3904L40.3599 18.6554V15.1904L40.4649 14.4204L40.4999 13.7904V13.1604L40.5349 12.1804L40.5699 11.4804L40.7099 10.7454L41.8649 10.4654L43.1949 10.5704L43.6499 11.5154L43.6849 12.1454L43.6499 12.8104V13.4404L43.8249 14.0354L44.3149 13.4404L44.7699 12.9854L45.2599 12.5304L45.7499 12.1104L46.7649 11.2704L47.3249 10.9554L48.3399 10.5004L49.0749 10.7454L49.2149 11.7954L49.1799 12.4954L48.5149 13.5104L47.9899 13.8604L47.4649 14.2454L46.6599 14.8054L45.9599 15.6454L45.4699 16.1704L44.5949 17.3604L44.2099 17.9204L43.8249 18.5504L43.4749 19.8454V21.9104L43.4049 22.9954L43.3699 23.6954L43.4399 24.2204L43.0549 24.5004L41.8999 24.4654ZM54.0742 24.2554L53.5492 23.8354L53.4442 23.0654L53.4092 22.4704L53.5142 21.0704V20.2654L53.5492 18.8304L53.5842 18.1654V16.2754L53.6192 15.6454V12.9154L53.5492 11.9354V11.0254L53.9342 10.4654L54.9142 10.4304H55.5792L56.5242 10.6754L56.5592 11.7254V16.7304L56.5242 18.0254L56.4542 18.8304L56.5242 19.1454L56.4192 19.9154L56.4542 20.5804L56.4192 21.2804L56.4542 21.8754V23.6604L56.2442 24.1504L55.1942 24.2904L54.0742 24.2554ZM53.7942 7.31537L53.5142 6.33536V4.90037L53.8292 3.78037L54.9142 3.53536H56.2092L57.0842 3.71036L57.2942 4.51536V5.11037L57.1542 6.40537L57.0142 7.31537L56.3142 7.56037H55.4392L54.5292 7.59537L53.7942 7.31537ZM72.9307 35.2454L72.7207 34.4054V33.7054L72.8257 32.3404L72.8957 31.0804V30.4854L72.8607 29.2254L72.8957 28.5604V25.3754L72.8607 24.1854L72.9307 23.1354L72.9657 22.7504L72.8957 21.9104V21.1754L72.9657 19.8804L73.0357 18.7954V17.6404L73.0707 16.5554V15.3304L73.1407 14.5954L73.0707 13.9304L73.1407 12.6004L73.1757 11.8654L73.2107 10.9554L73.2807 10.5704L74.1557 10.3604H74.9257L75.9407 10.5004L76.1857 11.2354V11.8654L76.7107 11.9354L77.7957 10.9904L79.0907 10.1854L79.8607 9.94037L81.0157 10.0104L82.0657 10.6054L82.5907 11.2004L83.2907 12.5304L83.5007 13.1604L83.7807 14.3854L83.9557 15.8204L84.0607 17.1154L83.9207 17.8154L83.8857 18.8654L83.7457 19.6704L83.5007 20.7204L83.1857 21.7354L82.8007 22.4004L81.8557 23.4504L81.3307 23.8354L80.7357 24.0804L79.6857 24.2904L78.6707 24.3604L78.0407 24.2904L77.4107 24.1504L76.5007 23.8354L76.1857 24.0804L76.1507 25.1304L76.1857 25.7954V27.0204L76.1507 28.0354L76.0457 29.1904L76.0107 29.8554V32.9354L75.8707 33.6704V34.3704L75.6607 35.3154L74.7157 35.5254H73.9107L72.9307 35.2454ZM79.2657 21.3154L79.8257 20.9654L80.4207 19.8454L80.5957 19.1804L80.7357 18.5154L80.8407 17.8504L80.9107 17.1854L80.9457 16.4854L80.9107 15.8204L80.8057 15.1554L80.3157 13.7554L79.3007 13.1954L78.2857 13.5804L77.8307 14.0004L77.3757 14.4554L76.5357 15.5754L76.2557 16.2754L76.1857 17.8154L76.1507 19.2154L76.1857 19.8104L76.7457 20.8254L77.3407 21.1404L77.9707 21.3504L79.2657 21.3154ZM90.9819 24.4654H90.1769L89.2669 24.3254L89.1269 23.5204L89.2669 22.5404V20.9304L89.3019 20.0204L89.3369 19.3904L89.4419 18.6554V15.1904L89.5469 14.4204L89.5819 13.7904V13.1604L89.6169 12.1804L89.6519 11.4804L89.7919 10.7454L90.9469 10.4654L92.2769 10.5704L92.7319 11.5154L92.7669 12.1454L92.7319 12.8104V13.4404L92.9069 14.0354L93.3969 13.4404L93.8519 12.9854L94.3419 12.5304L94.8319 12.1104L95.8469 11.2704L96.4069 10.9554L97.4219 10.5004L98.1569 10.7454L98.2969 11.7954L98.2619 12.4954L97.5969 13.5104L97.0719 13.8604L96.5469 14.2454L95.7419 14.8054L95.0419 15.6454L94.5519 16.1704L93.6769 17.3604L93.2919 17.9204L92.9069 18.5504L92.5569 19.8454V21.9104L92.4869 22.9954L92.4519 23.6954L92.5219 24.2204L92.1369 24.5004L90.9819 24.4654ZM105.221 24.7104L104.626 24.5354L104.066 24.2554L103.541 23.9054L102.596 22.8904L101.896 21.6304L101.651 20.9654L101.511 20.2654L101.406 19.2854L101.266 18.4454L101.371 17.5704L101.441 16.5904L101.546 15.8904L101.686 15.1904L101.861 14.5254L102.071 13.8604L102.631 12.4954L103.016 11.8654L103.471 11.2704L104.591 10.2554L105.291 9.94037L106.551 9.80037L107.671 10.1504L108.231 10.4304L108.791 10.7804L109.351 11.2004L109.701 11.7954L110.051 12.3204L110.331 12.8454L110.576 13.7554L110.891 14.9104L111.031 16.0654V16.6954L111.101 17.2904L111.066 18.1304L110.996 19.2854L110.961 20.0554L110.716 20.7904L110.506 21.3854L110.261 22.0154L109.876 22.7154L109.456 23.5554L108.581 24.3954L107.426 24.7804L106.656 24.8854L105.221 24.7104ZM107.601 20.9304L107.881 20.2304L108.056 19.4954L108.161 18.0954V16.0654L108.091 14.6654L107.881 13.9304L107.426 13.2304L106.866 12.8804L106.131 12.8454L105.501 13.5454L105.256 14.1754L105.046 14.8404L104.801 16.4154L104.591 17.9554L104.556 18.6554L104.696 20.0554L104.906 20.6854L105.291 21.2804L106.551 21.8054L107.601 20.9304ZM118.438 35.4204L118.228 34.4404V33.8104L118.508 32.9004L118.928 32.6904L119.663 32.6554L120.293 32.4804L121.238 32.1654L121.903 31.5004L122.253 30.9754L122.533 30.3804L122.778 29.7854L123.093 28.5604L123.233 27.3004L123.338 26.1104L123.478 25.2004L123.548 24.3604L123.373 23.8354L122.953 24.1854L121.588 24.8504L120.083 24.9204L119.103 24.7104L118.473 24.5004L117.598 24.0804L116.513 23.1004L115.708 21.7004L115.218 20.3354L115.043 19.6354L114.938 18.9004V18.2004L115.148 16.8354L115.393 15.5404L115.673 14.8754L115.988 14.2454L116.408 13.6504L117.423 12.5304L118.053 12.0054L119.278 11.2004L119.838 10.9204L120.433 10.7104L121.063 10.5354L122.428 10.3604L123.933 10.2904L125.893 10.3604L126.453 10.4304L126.593 10.6054L126.628 11.2704V13.4404L126.733 14.2804L126.768 15.0504L126.733 15.9954V16.6604L126.698 16.9754L126.733 17.5004L126.663 18.3754V19.2504L126.628 20.0904V21.8404L126.593 22.6454L126.523 23.1704L126.593 23.4504L126.488 24.2904L126.453 25.0254V25.7254L126.418 27.1254L126.278 28.0004L126.243 28.9104L126.033 30.2404L125.858 30.8704L125.438 32.0254L124.808 33.1804L123.863 34.1254L123.338 34.4754L122.323 35.1054L121.273 35.4904L120.048 35.7354L119.348 35.8054L118.438 35.4204ZM121.098 21.8054L121.833 21.6304L122.498 21.3154L123.373 20.5804L123.653 19.9504V14.3854L123.618 13.4404L123.303 13.3004L121.938 13.5454L121.308 13.7204L120.678 14.0004L120.013 14.3504L119.838 14.4904L119.313 15.1904L118.963 15.7154L118.368 17.0804L118.193 17.8504L118.088 18.9354L118.158 19.4254L118.403 20.3004L118.753 20.9304L119.733 21.6304L120.293 21.8054H121.098ZM136.687 24.3954L135.637 24.2204L135.042 23.9754L134.482 23.7304L133.362 22.9604L132.907 22.4004L132.382 21.4554L132.102 20.5454L131.892 19.1454L131.927 18.2004V17.4304L132.137 16.3804L132.382 15.0154L132.872 13.3704L133.642 11.9354L134.167 11.3404L135.322 10.5004L135.917 10.2554L136.582 10.1154L137.912 10.0454L139.382 10.1154L140.712 10.5004L141.727 11.3754L142.147 11.9354L142.462 12.5654L142.812 14.0004L142.882 15.1904L142.812 16.2054L142.742 17.3954L142.252 17.9904L140.257 18.2704L139.522 18.2354L138.402 18.3054H136.092L135.322 18.2704L134.937 18.6554L135.007 19.1804L135.147 19.9504L135.812 20.8254L136.862 21.3504L137.527 21.5254L138.192 21.6654L138.892 21.7704H139.592L140.257 21.7354L141.097 21.8404L141.307 22.4004L141.272 23.1704L141.237 23.8704L140.922 24.2554L139.977 24.3954L139.242 24.4654L138.157 24.5354L136.687 24.3954ZM139.172 15.2954L140.117 15.2604L140.082 14.5954L139.732 13.8604L139.067 13.4054L138.472 13.2304L137.737 13.2654L137.177 13.4404L136.232 14.0704L135.812 14.5954L135.637 15.2604L136.372 15.2954H139.172ZM153.273 24.3254L151.943 23.8704L151.348 23.5204L150.788 23.0654L150.298 22.5404L149.913 21.9454L149.598 21.2804L149.213 20.0204L149.003 18.7604L148.863 17.3954L148.828 16.7654V11.4104L148.303 11.0954L146.343 11.1304L145.608 10.9554L145.398 10.0104L145.433 9.27537L146.238 8.29537H148.303L148.933 7.84037L149.003 6.68537V6.02037L149.248 5.18036L150.193 4.97037L151.243 5.00536L151.698 5.25037L151.838 6.12536V7.52537L151.943 8.22537H153.483L154.428 8.19037H156.178L156.633 8.64537L156.738 9.73037L156.703 10.3254L156.283 10.9204L155.758 10.9904H154.708L154.043 11.0254L153.343 11.0954L151.943 11.1654L151.838 11.3754L151.803 12.2854V14.9804L151.663 15.9604L151.768 16.7654V17.7104L151.873 18.8654L152.398 20.3004L153.658 21.1754L154.323 21.4554L155.023 21.5954L156.073 21.6304L156.528 21.8054L156.633 22.1904L156.703 22.7154L156.598 23.6604L156.458 24.3954L155.548 24.6054H154.743L153.273 24.3254ZM167.081 24.3254L165.751 23.8704L165.156 23.5204L164.596 23.0654L164.106 22.5404L163.721 21.9454L163.406 21.2804L163.021 20.0204L162.811 18.7604L162.671 17.3954L162.636 16.7654V11.4104L162.111 11.0954L160.151 11.1304L159.416 10.9554L159.206 10.0104L159.241 9.27537L160.046 8.29537H162.111L162.741 7.84037L162.811 6.68537V6.02037L163.056 5.18036L164.001 4.97037L165.051 5.00536L165.506 5.25037L165.646 6.12536V7.52537L165.751 8.22537H167.291L168.236 8.19037H169.986L170.441 8.64537L170.546 9.73037L170.511 10.3254L170.091 10.9204L169.566 10.9904H168.516L167.851 11.0254L167.151 11.0954L165.751 11.1654L165.646 11.3754L165.611 12.2854V14.9804L165.471 15.9604L165.576 16.7654V17.7104L165.681 18.8654L166.206 20.3004L167.466 21.1754L168.131 21.4554L168.831 21.5954L169.881 21.6304L170.336 21.8054L170.441 22.1904L170.511 22.7154L170.406 23.6604L170.266 24.3954L169.356 24.6054H168.551L167.081 24.3254ZM175.07 24.2554L174.545 23.8354L174.44 23.0654L174.405 22.4704L174.51 21.0704V20.2654L174.545 18.8304L174.58 18.1654V16.2754L174.615 15.6454V12.9154L174.545 11.9354V11.0254L174.93 10.4654L175.91 10.4304H176.575L177.52 10.6754L177.555 11.7254V16.7304L177.52 18.0254L177.45 18.8304L177.52 19.1454L177.415 19.9154L177.45 20.5804L177.415 21.2804L177.45 21.8754V23.6604L177.24 24.1504L176.19 24.2904L175.07 24.2554ZM174.79 7.31537L174.51 6.33536V4.90037L174.825 3.78037L175.91 3.53536H177.205L178.08 3.71036L178.29 4.51536V5.11037L178.15 6.40537L178.01 7.31537L177.31 7.56037H176.435L175.525 7.59537L174.79 7.31537Z" fill="#C8432A"/>
</svg>
