<svg width="178" height="36" viewBox="0 0 178 36" fill="none" xmlns="http://www.w3.org/2000/svg">
<path d="M1.52 23.9754L0.925 24.0104L0.19 23.7304L0.295 22.8904L0.435 22.2954L0.61 21.2104L0.925 20.0904L1.065 19.3904L1.205 18.6554L1.555 17.1154L1.8 15.9604L1.905 15.5404L2.045 14.7354L2.22 14.0004L2.745 11.9004L2.885 10.6754L3.2 9.48537L3.34 8.82037L3.48 8.12037L3.655 7.31537L3.935 6.40537L4.11 5.60037L4.495 4.23536L4.67 3.60537L4.775 3.01037L5.055 1.54037L5.37 0.490364L6.175 0.315365L6.84 0.455365L7.54 1.47036L7.68 2.17037L8.03 3.50037L8.17 4.16537L8.52 5.60037L8.66 6.37037L9.01 7.80537L9.57 9.87037L9.745 10.6054L9.955 11.3054L10.13 12.0404L10.48 13.4754L10.69 14.1754L11.04 15.6454L11.25 16.3454L11.635 17.7804L12.16 19.7054L12.335 20.3354L12.72 21.5954L12.93 22.2954L13.21 23.3104L13.07 23.8704L12.825 24.0454L11.95 23.9754L10.585 23.9404L9.85 23.3104L9.71 22.5404L9.43 21.4554L9.255 20.6854L9.01 19.7754L8.695 19.5654L7.61 19.5304H6.49L5.825 19.3904L4.985 19.4954L4.285 19.4604L3.83 20.2654L3.69 20.9654L3.55 21.6304L3.445 22.3304L3.305 23.0304L2.885 23.9054L2.325 24.0454L1.52 23.9754ZM7.645 16.9054L8.24 16.5904L8.065 15.7154L7.54 13.7554L7.155 12.4254L6.63 10.3254L6.42 9.59037L5.965 9.55537L5.79 10.2554L5.545 11.6904L4.915 14.5604L4.635 15.8554L4.495 16.7304L5.195 16.9054H7.645ZM18.5491 24.0454L17.7091 23.9754L17.4991 23.8004L17.4291 23.1704L17.3941 22.0504L17.4291 20.8254V8.85537L17.4991 8.15537L17.5341 7.45537V6.26537L17.5691 4.83036L17.6041 4.13037V1.08537L17.7441 0.665364L18.2341 0.455365L19.2841 0.560366L20.1941 0.805365L20.3341 1.40037L20.4041 2.38037V4.90037L20.3691 6.09037L20.2641 7.28037V7.91036L20.2991 8.99537L20.3691 9.80037L20.3341 10.8504L20.2641 11.5504V14.7354L20.2291 15.8204V19.6004L20.2641 20.6504V22.7854L20.3691 23.7304L20.1241 24.0104L19.2141 24.0804L18.5491 24.0454ZM32.116 24.3254L30.786 23.8704L30.191 23.5204L29.631 23.0654L29.141 22.5404L28.756 21.9454L28.441 21.2804L28.056 20.0204L27.846 18.7604L27.706 17.3954L27.671 16.7654V11.4104L27.146 11.0954L25.186 11.1304L24.451 10.9554L24.241 10.0104L24.276 9.27537L25.081 8.29537H27.146L27.776 7.84037L27.846 6.68537V6.02037L28.091 5.18036L29.036 4.97037L30.086 5.00536L30.541 5.25037L30.681 6.12536V7.52537L30.786 8.22537H32.326L33.271 8.19037H35.021L35.476 8.64537L35.581 9.73037L35.546 10.3254L35.126 10.9204L34.601 10.9904H33.551L32.886 11.0254L32.186 11.0954L30.786 11.1654L30.681 11.3754L30.646 12.2854V14.9804L30.506 15.9604L30.611 16.7654V17.7104L30.716 18.8654L31.241 20.3004L32.501 21.1754L33.166 21.4554L33.866 21.5954L34.916 21.6304L35.371 21.8054L35.476 22.1904L35.546 22.7154L35.441 23.6604L35.301 24.3954L34.391 24.6054H33.586L32.116 24.3254ZM41.295 24.4654H40.49L39.58 24.3254L39.44 23.5204L39.58 22.5404V20.9304L39.615 20.0204L39.65 19.3904L39.755 18.6554V15.1904L39.86 14.4204L39.895 13.7904V13.1604L39.93 12.1804L39.965 11.4804L40.105 10.7454L41.26 10.4654L42.59 10.5704L43.045 11.5154L43.08 12.1454L43.045 12.8104V13.4404L43.22 14.0354L43.71 13.4404L44.165 12.9854L44.655 12.5304L45.145 12.1104L46.16 11.2704L46.72 10.9554L47.735 10.5004L48.47 10.7454L48.61 11.7954L48.575 12.4954L47.91 13.5104L47.385 13.8604L46.86 14.2454L46.055 14.8054L45.355 15.6454L44.865 16.1704L43.99 17.3604L43.605 17.9204L43.22 18.5504L42.87 19.8454V21.9104L42.8 22.9954L42.765 23.6954L42.835 24.2204L42.45 24.5004L41.295 24.4654ZM53.4693 24.2554L52.9443 23.8354L52.8393 23.0654L52.8043 22.4704L52.9093 21.0704V20.2654L52.9443 18.8304L52.9793 18.1654V16.2754L53.0143 15.6454V12.9154L52.9443 11.9354V11.0254L53.3293 10.4654L54.3093 10.4304H54.9743L55.9193 10.6754L55.9543 11.7254V16.7304L55.9193 18.0254L55.8493 18.8304L55.9193 19.1454L55.8143 19.9154L55.8493 20.5804L55.8143 21.2804L55.8493 21.8754V23.6604L55.6393 24.1504L54.5893 24.2904L53.4693 24.2554ZM53.1893 7.31537L52.9093 6.33536V4.90037L53.2243 3.78037L54.3093 3.53536H55.6043L56.4793 3.71036L56.6893 4.51536V5.11037L56.5493 6.40537L56.4093 7.31537L55.7093 7.56037H54.8343L53.9243 7.59537L53.1893 7.31537ZM72.3258 35.2454L72.1158 34.4054V33.7054L72.2208 32.3404L72.2908 31.0804V30.4854L72.2558 29.2254L72.2908 28.5604V25.3754L72.2558 24.1854L72.3258 23.1354L72.3608 22.7504L72.2908 21.9104V21.1754L72.3608 19.8804L72.4308 18.7954V17.6404L72.4658 16.5554V15.3304L72.5358 14.5954L72.4658 13.9304L72.5358 12.6004L72.5708 11.8654L72.6058 10.9554L72.6758 10.5704L73.5508 10.3604H74.3208L75.3358 10.5004L75.5808 11.2354V11.8654L76.1058 11.9354L77.1908 10.9904L78.4858 10.1854L79.2558 9.94037L80.4108 10.0104L81.4608 10.6054L81.9858 11.2004L82.6858 12.5304L82.8958 13.1604L83.1758 14.3854L83.3508 15.8204L83.4558 17.1154L83.3158 17.8154L83.2808 18.8654L83.1408 19.6704L82.8958 20.7204L82.5808 21.7354L82.1958 22.4004L81.2508 23.4504L80.7258 23.8354L80.1308 24.0804L79.0808 24.2904L78.0658 24.3604L77.4358 24.2904L76.8058 24.1504L75.8958 23.8354L75.5808 24.0804L75.5458 25.1304L75.5808 25.7954V27.0204L75.5458 28.0354L75.4408 29.1904L75.4058 29.8554V32.9354L75.2658 33.6704V34.3704L75.0558 35.3154L74.1108 35.5254H73.3058L72.3258 35.2454ZM78.6608 21.3154L79.2208 20.9654L79.8158 19.8454L79.9908 19.1804L80.1308 18.5154L80.2358 17.8504L80.3058 17.1854L80.3408 16.4854L80.3058 15.8204L80.2008 15.1554L79.7108 13.7554L78.6958 13.1954L77.6808 13.5804L77.2258 14.0004L76.7708 14.4554L75.9308 15.5754L75.6508 16.2754L75.5808 17.8154L75.5458 19.2154L75.5808 19.8104L76.1408 20.8254L76.7358 21.1404L77.3658 21.3504L78.6608 21.3154ZM90.3771 24.4654H89.5721L88.6621 24.3254L88.5221 23.5204L88.6621 22.5404V20.9304L88.6971 20.0204L88.7321 19.3904L88.8371 18.6554V15.1904L88.9421 14.4204L88.9771 13.7904V13.1604L89.0121 12.1804L89.0471 11.4804L89.1871 10.7454L90.3421 10.4654L91.6721 10.5704L92.1271 11.5154L92.1621 12.1454L92.1271 12.8104V13.4404L92.3021 14.0354L92.7921 13.4404L93.2471 12.9854L93.7371 12.5304L94.2271 12.1104L95.2421 11.2704L95.8021 10.9554L96.8171 10.5004L97.5521 10.7454L97.6921 11.7954L97.6571 12.4954L96.9921 13.5104L96.4671 13.8604L95.9421 14.2454L95.1371 14.8054L94.4371 15.6454L93.9471 16.1704L93.0721 17.3604L92.6871 17.9204L92.3021 18.5504L91.9521 19.8454V21.9104L91.8821 22.9954L91.8471 23.6954L91.9171 24.2204L91.5321 24.5004L90.3771 24.4654ZM104.616 24.7104L104.021 24.5354L103.461 24.2554L102.936 23.9054L101.991 22.8904L101.291 21.6304L101.046 20.9654L100.906 20.2654L100.801 19.2854L100.661 18.4454L100.766 17.5704L100.836 16.5904L100.941 15.8904L101.081 15.1904L101.256 14.5254L101.466 13.8604L102.026 12.4954L102.411 11.8654L102.866 11.2704L103.986 10.2554L104.686 9.94037L105.946 9.80037L107.066 10.1504L107.626 10.4304L108.186 10.7804L108.746 11.2004L109.096 11.7954L109.446 12.3204L109.726 12.8454L109.971 13.7554L110.286 14.9104L110.426 16.0654V16.6954L110.496 17.2904L110.461 18.1304L110.391 19.2854L110.356 20.0554L110.111 20.7904L109.901 21.3854L109.656 22.0154L109.271 22.7154L108.851 23.5554L107.976 24.3954L106.821 24.7804L106.051 24.8854L104.616 24.7104ZM106.996 20.9304L107.276 20.2304L107.451 19.4954L107.556 18.0954V16.0654L107.486 14.6654L107.276 13.9304L106.821 13.2304L106.261 12.8804L105.526 12.8454L104.896 13.5454L104.651 14.1754L104.441 14.8404L104.196 16.4154L103.986 17.9554L103.951 18.6554L104.091 20.0554L104.301 20.6854L104.686 21.2804L105.946 21.8054L106.996 20.9304ZM117.833 35.4204L117.623 34.4404V33.8104L117.903 32.9004L118.323 32.6904L119.058 32.6554L119.688 32.4804L120.633 32.1654L121.298 31.5004L121.648 30.9754L121.928 30.3804L122.173 29.7854L122.488 28.5604L122.628 27.3004L122.733 26.1104L122.873 25.2004L122.943 24.3604L122.768 23.8354L122.348 24.1854L120.983 24.8504L119.478 24.9204L118.498 24.7104L117.868 24.5004L116.993 24.0804L115.908 23.1004L115.103 21.7004L114.613 20.3354L114.438 19.6354L114.333 18.9004V18.2004L114.543 16.8354L114.788 15.5404L115.068 14.8754L115.383 14.2454L115.803 13.6504L116.818 12.5304L117.448 12.0054L118.673 11.2004L119.233 10.9204L119.828 10.7104L120.458 10.5354L121.823 10.3604L123.328 10.2904L125.288 10.3604L125.848 10.4304L125.988 10.6054L126.023 11.2704V13.4404L126.128 14.2804L126.163 15.0504L126.128 15.9954V16.6604L126.093 16.9754L126.128 17.5004L126.058 18.3754V19.2504L126.023 20.0904V21.8404L125.988 22.6454L125.918 23.1704L125.988 23.4504L125.883 24.2904L125.848 25.0254V25.7254L125.813 27.1254L125.673 28.0004L125.638 28.9104L125.428 30.2404L125.253 30.8704L124.833 32.0254L124.203 33.1804L123.258 34.1254L122.733 34.4754L121.718 35.1054L120.668 35.4904L119.443 35.7354L118.743 35.8054L117.833 35.4204ZM120.493 21.8054L121.228 21.6304L121.893 21.3154L122.768 20.5804L123.048 19.9504V14.3854L123.013 13.4404L122.698 13.3004L121.333 13.5454L120.703 13.7204L120.073 14.0004L119.408 14.3504L119.233 14.4904L118.708 15.1904L118.358 15.7154L117.763 17.0804L117.588 17.8504L117.483 18.9354L117.553 19.4254L117.798 20.3004L118.148 20.9304L119.128 21.6304L119.688 21.8054H120.493ZM136.082 24.3954L135.032 24.2204L134.437 23.9754L133.877 23.7304L132.757 22.9604L132.302 22.4004L131.777 21.4554L131.497 20.5454L131.287 19.1454L131.322 18.2004V17.4304L131.532 16.3804L131.777 15.0154L132.267 13.3704L133.037 11.9354L133.562 11.3404L134.717 10.5004L135.312 10.2554L135.977 10.1154L137.307 10.0454L138.777 10.1154L140.107 10.5004L141.122 11.3754L141.542 11.9354L141.857 12.5654L142.207 14.0004L142.277 15.1904L142.207 16.2054L142.137 17.3954L141.647 17.9904L139.652 18.2704L138.917 18.2354L137.797 18.3054H135.487L134.717 18.2704L134.332 18.6554L134.402 19.1804L134.542 19.9504L135.207 20.8254L136.257 21.3504L136.922 21.5254L137.587 21.6654L138.287 21.7704H138.987L139.652 21.7354L140.492 21.8404L140.702 22.4004L140.667 23.1704L140.632 23.8704L140.317 24.2554L139.372 24.3954L138.637 24.4654L137.552 24.5354L136.082 24.3954ZM138.567 15.2954L139.512 15.2604L139.477 14.5954L139.127 13.8604L138.462 13.4054L137.867 13.2304L137.132 13.2654L136.572 13.4404L135.627 14.0704L135.207 14.5954L135.032 15.2604L135.767 15.2954H138.567ZM152.668 24.3254L151.338 23.8704L150.743 23.5204L150.183 23.0654L149.693 22.5404L149.308 21.9454L148.993 21.2804L148.608 20.0204L148.398 18.7604L148.258 17.3954L148.223 16.7654V11.4104L147.698 11.0954L145.738 11.1304L145.003 10.9554L144.793 10.0104L144.828 9.27537L145.633 8.29537H147.698L148.328 7.84037L148.398 6.68537V6.02037L148.643 5.18036L149.588 4.97037L150.638 5.00536L151.093 5.25037L151.233 6.12536V7.52537L151.338 8.22537H152.878L153.823 8.19037H155.573L156.028 8.64537L156.133 9.73037L156.098 10.3254L155.678 10.9204L155.153 10.9904H154.103L153.438 11.0254L152.738 11.0954L151.338 11.1654L151.233 11.3754L151.198 12.2854V14.9804L151.058 15.9604L151.163 16.7654V17.7104L151.268 18.8654L151.793 20.3004L153.053 21.1754L153.718 21.4554L154.418 21.5954L155.468 21.6304L155.923 21.8054L156.028 22.1904L156.098 22.7154L155.993 23.6604L155.853 24.3954L154.943 24.6054H154.138L152.668 24.3254ZM166.476 24.3254L165.146 23.8704L164.551 23.5204L163.991 23.0654L163.501 22.5404L163.116 21.9454L162.801 21.2804L162.416 20.0204L162.206 18.7604L162.066 17.3954L162.031 16.7654V11.4104L161.506 11.0954L159.546 11.1304L158.811 10.9554L158.601 10.0104L158.636 9.27537L159.441 8.29537H161.506L162.136 7.84037L162.206 6.68537V6.02037L162.451 5.18036L163.396 4.97037L164.446 5.00536L164.901 5.25037L165.041 6.12536V7.52537L165.146 8.22537H166.686L167.631 8.19037H169.381L169.836 8.64537L169.941 9.73037L169.906 10.3254L169.486 10.9204L168.961 10.9904H167.911L167.246 11.0254L166.546 11.0954L165.146 11.1654L165.041 11.3754L165.006 12.2854V14.9804L164.866 15.9604L164.971 16.7654V17.7104L165.076 18.8654L165.601 20.3004L166.861 21.1754L167.526 21.4554L168.226 21.5954L169.276 21.6304L169.731 21.8054L169.836 22.1904L169.906 22.7154L169.801 23.6604L169.661 24.3954L168.751 24.6054H167.946L166.476 24.3254ZM174.465 24.2554L173.94 23.8354L173.835 23.0654L173.8 22.4704L173.905 21.0704V20.2654L173.94 18.8304L173.975 18.1654V16.2754L174.01 15.6454V12.9154L173.94 11.9354V11.0254L174.325 10.4654L175.305 10.4304H175.97L176.915 10.6754L176.95 11.7254V16.7304L176.915 18.0254L176.845 18.8304L176.915 19.1454L176.81 19.9154L176.845 20.5804L176.81 21.2804L176.845 21.8754V23.6604L176.635 24.1504L175.585 24.2904L174.465 24.2554ZM174.185 7.31537L173.905 6.33536V4.90037L174.22 3.78037L175.305 3.53536H176.6L177.475 3.71036L177.685 4.51536V5.11037L177.545 6.40537L177.405 7.31537L176.705 7.56037H175.83L174.92 7.59537L174.185 7.31537Z" fill="white"/>
</svg>
