<svg width="100" height="25" viewBox="0 0 100 25" fill="none" xmlns="http://www.w3.org/2000/svg">
<path d="M0.630166 23.272L0.490166 22.327V20.367L0.420166 19.457L0.490166 18.757L0.455166 18.092L0.490166 17.007V15.502L0.525166 13.997V12.492L0.595166 11.407L0.630166 10.672L0.665166 9.72697V3.04197L0.700166 2.37697V0.836972L0.875166 0.451971L1.15517 0.276971L1.43517 0.17197H1.92517L2.83517 0.206972L3.43017 0.276971L4.51517 0.696972L5.46017 1.25697L6.16017 2.16697L6.72017 2.93697L7.14017 3.95197L7.38517 4.68697L7.59517 5.70197V7.41697L7.52517 8.15197L7.38517 9.09697L7.07017 9.83197L6.82517 10.427L6.54517 10.987L6.19517 11.722L6.86017 12.247L7.59517 13.087L8.22517 14.102L8.78517 15.502L8.92517 16.762L8.85517 18.022L8.33017 19.352L8.05017 19.877L7.35017 20.997L6.51017 21.767L6.16017 22.152L5.49517 22.537L4.44517 23.132L3.39517 23.517H2.52017L1.78517 23.552L1.22517 23.587H0.910166L0.630166 23.272ZM4.79517 19.842L5.56517 18.967L6.09017 17.847L6.23017 16.657L5.95017 15.467L5.04017 14.137L4.44517 13.612L3.67517 13.192L3.50017 13.262L3.43017 13.577V14.417L3.36017 14.977L3.32517 16.202V18.792L3.36017 20.017L4.20017 20.262L4.79517 19.842ZM3.88517 9.72697L4.23517 9.30697L4.72517 8.57197L4.97017 7.94197L5.14517 7.27697L5.25017 6.36697L5.18017 5.84197L5.04017 5.21197L4.55017 4.19697L3.99017 3.25197L3.60517 3.00697L3.43017 3.18197L3.39517 3.98697L3.50017 4.86197L3.36017 5.56197V8.88697L3.43017 9.51697V9.90197L3.88517 9.72697ZM15.6654 24.112H14.8604L13.9504 23.972L13.8104 23.167L13.9504 22.187V20.577L13.9854 19.667L14.0204 19.037L14.1254 18.302V14.837L14.2304 14.067L14.2654 13.437V12.807L14.3004 11.827L14.3354 11.127L14.4754 10.392L15.6304 10.112L16.9604 10.217L17.4154 11.162L17.4504 11.792L17.4154 12.457V13.087L17.5904 13.682L18.0804 13.087L18.5354 12.632L19.0254 12.177L19.5154 11.757L20.5304 10.917L21.0904 10.602L22.1054 10.147L22.8404 10.392L22.9804 11.442L22.9454 12.142L22.2804 13.157L21.7554 13.507L21.2304 13.892L20.4254 14.452L19.7254 15.292L19.2354 15.817L18.3604 17.007L17.9754 17.567L17.5904 18.197L17.2404 19.492V21.557L17.1704 22.642L17.1354 23.342L17.2054 23.867L16.8204 24.147L15.6654 24.112ZM27.7347 24.462L27.0697 24.217L26.4747 23.832L25.8447 22.642L25.7747 22.012L25.8797 21.347L26.0897 20.752L26.3697 20.157L27.2447 19.072L27.7697 18.547L28.2947 18.057L29.4847 17.147L30.6047 16.377L31.1297 16.062L31.6897 15.747L32.7397 15.222L33.2297 14.347L32.9147 13.822L31.9347 12.982L31.3047 12.772L30.6397 12.632L29.1697 12.597L26.7547 12.772L26.1947 12.667L26.0197 11.932V11.337L26.1947 10.567L27.0697 10.217L28.4347 9.97197H29.6947L30.5697 9.90197L31.5147 9.93697L32.1447 10.042L33.4747 10.322L34.5947 11.197L35.0847 11.792L35.3997 12.422L35.5747 13.262L35.7847 14.032L35.9247 14.732L35.9947 15.432L36.1347 16.482L36.1697 17.462L36.2047 18.722V19.422L36.2397 20.507L36.3447 21.242V23.062L36.3097 23.902L35.6447 24.112L34.7697 24.042L34.2797 23.937L34.0697 22.992L34.0347 22.257L33.9297 21.417L33.3697 21.767L32.4597 22.572L31.3047 23.517L29.9397 24.147L29.3447 24.357L28.6097 24.567L27.7347 24.462ZM29.7997 21.627L30.7447 21.032L31.3397 20.612L32.3897 19.702L32.8447 19.247L33.6147 18.547L33.8947 17.917L33.5097 17.637L32.7397 18.092L31.6547 18.897L31.0247 19.352L29.9047 20.332L29.4497 20.857L28.9947 21.627L29.2747 21.802L29.7997 21.627ZM42.1853 23.902L41.9753 22.922L41.9403 22.152V21.382L41.9753 19.877L41.9403 19.177L41.9753 18.442V17.742L42.0103 16.587V15.852L41.9753 15.082V14.242L42.0453 13.262L42.1153 12.317V11.372L42.1503 10.602L43.0253 10.287L44.1803 10.252L44.7053 10.637L44.8453 11.197L45.4403 11.092L46.0003 10.742L46.5953 10.427L47.1553 10.182L47.7853 10.007L49.1153 9.97197L49.7803 10.252L50.7603 11.162L51.0053 11.757L51.2153 12.387L51.4253 13.367L51.4603 13.997L51.5653 14.627L51.6353 15.467L51.5653 16.237L51.6003 16.797L51.5303 17.532V18.337L51.5653 19.107L51.5303 20.227V20.962L51.4953 21.732V22.467L51.5303 23.377V23.727L51.1803 24.007H50.1303L49.1503 23.937L48.7303 23.727L48.5553 22.887V22.222L48.6603 20.892L48.6253 19.422L48.5553 18.547L48.5903 17.777V17.077L48.5203 16.377V15.012L48.3453 14.067L48.1003 13.262L46.8753 13.087L45.6853 13.822L44.9503 14.312L44.7403 14.767L44.7753 15.607L44.7403 16.692L44.6703 17.602L44.7053 18.582L44.6703 19.737L44.7753 20.717L44.7053 21.487L44.6353 22.292L44.6003 22.957L44.7403 23.342L44.7053 23.902L43.7253 24.112H43.0603L42.1853 23.902ZM65.1155 23.832L65.0805 22.572V21.522L64.9405 21.347L64.4155 22.047L63.9255 22.677L62.8405 23.692L62.2105 24.007L61.0905 24.217L60.0405 23.937L59.4105 23.692L58.8155 23.377L58.1155 22.922L57.6255 22.257L57.2755 21.662L56.9605 21.067L56.5755 19.702L56.5405 18.337L56.5755 17.637L56.6805 16.272L56.8205 15.572L57.3105 14.172L57.6955 13.472L58.1155 12.632L58.6755 12.002L59.1655 11.512L59.6555 11.057L60.1805 10.637L60.7755 10.252L62.0005 9.72697L62.6305 9.44697L63.2605 9.23697L64.2755 8.99197L64.8355 8.71197L64.7655 7.80197V6.47197L64.8005 5.73697V4.72197L64.9405 3.67197L64.8705 2.44697L64.8005 1.57197L64.7655 0.976971L65.5355 0.556972L66.2705 0.521972L67.2855 0.591971L67.6005 1.11697L67.6355 2.34197L67.7405 3.53197L67.7055 4.26697L67.7755 5.45697V6.75197L67.8455 7.59197V8.60697L67.8805 9.20197V11.092L67.8455 12.317L67.8105 13.437V14.452L67.8455 15.327L67.8805 16.027L67.8105 16.517L67.9155 17.042L67.8455 18.162L67.9155 19.422V20.752L67.8805 21.872L67.8105 22.887L67.7405 23.797L66.9005 24.112L66.0605 24.147L65.5705 24.252L65.1155 23.832ZM62.1405 20.682L62.8755 19.807L63.2255 19.282L63.5405 18.757L64.3105 16.832L64.8005 15.537L64.9055 14.907L64.8705 13.682L64.9055 12.527L64.3805 11.897L63.5405 12.177L62.5605 12.597L61.9655 12.947L61.5105 13.402L60.6705 14.417L60.3555 14.977L59.8655 16.132L59.7255 16.727L59.6555 17.602L59.5155 18.512L59.5505 19.177L59.6905 19.842L60.4255 20.822L61.0205 20.962L62.1405 20.682ZM77.8109 24.042L76.7609 23.867L76.1659 23.622L75.6059 23.377L74.4859 22.607L74.0309 22.047L73.5059 21.102L73.2259 20.192L73.0159 18.792L73.0509 17.847V17.077L73.2609 16.027L73.5059 14.662L73.9959 13.017L74.7659 11.582L75.2909 10.987L76.4459 10.147L77.0409 9.90197L77.7059 9.76197L79.0359 9.69197L80.5059 9.76197L81.8359 10.147L82.8509 11.022L83.2709 11.582L83.5859 12.212L83.9359 13.647L84.0059 14.837L83.9359 15.852L83.8659 17.042L83.3759 17.637L81.3809 17.917L80.6459 17.882L79.5259 17.952H77.2159L76.4459 17.917L76.0609 18.302L76.1309 18.827L76.2709 19.597L76.9359 20.472L77.9859 20.997L78.6509 21.172L79.3159 21.312L80.0159 21.417H80.7159L81.3809 21.382L82.2209 21.487L82.4309 22.047L82.3959 22.817L82.3609 23.517L82.0459 23.902L81.1009 24.042L80.3659 24.112L79.2809 24.182L77.8109 24.042ZM80.2959 14.942L81.2409 14.907L81.2059 14.242L80.8559 13.507L80.1909 13.052L79.5959 12.877L78.8609 12.912L78.3009 13.087L77.3559 13.717L76.9359 14.242L76.7609 14.907L77.4959 14.942H80.2959ZM96.3215 23.832L96.2865 22.572V21.522L96.1465 21.347L95.6215 22.047L95.1315 22.677L94.0465 23.692L93.4165 24.007L92.2965 24.217L91.2465 23.937L90.6165 23.692L90.0215 23.377L89.3215 22.922L88.8315 22.257L88.4815 21.662L88.1665 21.067L87.7815 19.702L87.7465 18.337L87.7815 17.637L87.8865 16.272L88.0265 15.572L88.5165 14.172L88.9015 13.472L89.3215 12.632L89.8815 12.002L90.3715 11.512L90.8615 11.057L91.3865 10.637L91.9815 10.252L93.2065 9.72697L93.8365 9.44697L94.4665 9.23697L95.4815 8.99197L96.0415 8.71197L95.9715 7.80197V6.47197L96.0065 5.73697V4.72197L96.1465 3.67197L96.0765 2.44697L96.0065 1.57197L95.9715 0.976971L96.7415 0.556972L97.4765 0.521972L98.4915 0.591971L98.8065 1.11697L98.8415 2.34197L98.9465 3.53197L98.9115 4.26697L98.9815 5.45697V6.75197L99.0515 7.59197V8.60697L99.0865 9.20197V11.092L99.0515 12.317L99.0165 13.437V14.452L99.0515 15.327L99.0865 16.027L99.0165 16.517L99.1215 17.042L99.0515 18.162L99.1215 19.422V20.752L99.0865 21.872L99.0165 22.887L98.9465 23.797L98.1065 24.112L97.2665 24.147L96.7765 24.252L96.3215 23.832ZM93.3465 20.682L94.0815 19.807L94.4315 19.282L94.7465 18.757L95.5165 16.832L96.0065 15.537L96.1115 14.907L96.0765 13.682L96.1115 12.527L95.5865 11.897L94.7465 12.177L93.7665 12.597L93.1715 12.947L92.7165 13.402L91.8765 14.417L91.5615 14.977L91.0715 16.132L90.9315 16.727L90.8615 17.602L90.7215 18.512L90.7565 19.177L90.8965 19.842L91.6315 20.822L92.2265 20.962L93.3465 20.682Z" fill="white"/>
</svg>
