<svg width="129" height="75" viewBox="0 0 129 75" fill="none" xmlns="http://www.w3.org/2000/svg">
<path d="M0.389408 41.1746L1.77049 35.058L2.82836 31.9412L4.2783 28.9325L8.85487 22.8191L11.7988 19.7433L18.9562 14.5971L26.0512 10.3289L29.3952 8.74639L36.18 6.26018L39.5968 5.18623L43.0374 4.28252L49.9677 2.8134L60.4365 1.11718L67.3291 0.692399L70.499 0.525856L77.0247 0.161139L80.4277 0.301759L83.6228 0.303265L90.4274 0.58671L94.062 1.0367L100.804 2.19642L104.119 3.04528L107.275 4.09331L113.756 7.37503L117.057 9.43845L120.015 11.7322L122.654 14.4226L126.61 21.0596L128.543 28.0234L128.031 33.6522L127.042 39.8768L125.665 43.3924L123.896 46.7978L121.529 49.9539L116.281 55.3095L113.4 57.509L110.288 59.4009L107.152 61.1225L100.071 64.1761L96.3598 65.8187L91.7301 67.6091L87.3945 68.8309L83.7697 69.7658L79.9366 70.5598L76.288 71.3244L66.9221 72.8416L59.7349 73.8333L56.3809 74.031L52.8423 74.2581L45.718 74.3735L38.7288 74.1195L35.4848 73.7797L28.902 72.4208L25.587 71.5719L22.431 70.5239L16.229 67.8903L13.5517 66.2442L8.07572 62.1069L5.64351 59.554L3.73946 56.7429L2.36117 53.6726L1.08527 48.6813L0.649548 45.6334L0.388041 41.1695L0.389408 41.1746Z" fill="#C8432A"/>
</svg>
