<svg width="99" height="63" viewBox="0 0 99 63" fill="none" xmlns="http://www.w3.org/2000/svg">
<path d="M0.959263 33.6154L1.88168 28.5019L2.6226 25.9042L3.66584 23.4058L7.03284 18.3651L9.2175 15.8431L14.58 11.6724L19.914 8.23862L22.4375 6.98114L27.5733 5.03913L30.1636 4.21092L32.7759 3.52639L38.0452 2.44289L46.0166 1.24599L51.2801 1.03989L53.7014 0.969333L58.6855 0.805698L61.2919 0.99856L63.7361 1.06988L68.9478 1.45742L71.7381 1.91552L76.9209 3.03859L79.4755 3.8251L81.9128 4.77563L86.9425 7.67744L89.5131 9.48504L91.8262 11.4788L93.9046 13.7991L97.0757 19.4671L98.7074 25.3657L98.4393 30.088L97.8192 35.3008L96.8424 38.227L95.5644 41.052L93.823 43.6541L89.9257 48.0428L87.7699 49.8293L85.4305 51.352L83.0691 52.7311L77.719 55.1437L74.9162 56.4437L71.4137 57.8478L68.1238 58.7802L65.3714 59.4869L62.4565 60.0706L59.6821 60.6336L52.5505 61.7041L47.0741 62.3805L44.5127 62.4732L41.8106 62.5866L36.3632 62.5275L31.0109 62.1606L28.5218 61.8037L23.4562 60.5167L20.9017 59.7302L18.4644 58.7796L13.6621 56.429L11.5779 54.9861L7.29816 51.3868L5.38156 49.1865L3.86335 46.7809L2.74166 44.1687L1.65617 39.9433L1.25602 37.3707L0.958105 33.6111L0.959263 33.6154Z" fill="#C8432A"/>
</svg>
