<svg width="74" height="25" viewBox="0 0 74 25" fill="none" xmlns="http://www.w3.org/2000/svg">
<path d="M0.840166 23.622L0.455166 22.747V21.417L0.490166 20.052V11.092L0.560166 9.93697L0.490166 9.02697L0.525166 7.97697L0.595166 7.31197L0.665166 6.05197V3.49697L0.700166 2.51697L0.735166 1.99197L0.665166 1.15197L0.945166 0.241972L1.89017 0.101971L3.15017 0.0669718L4.16517 0.17197L5.21517 0.206972L6.51017 0.276971H7.31517L8.54017 0.241972H9.17017L9.45017 0.521972L9.55517 1.32697V1.95697L9.27517 2.86697L8.47017 2.97197L7.77017 2.93697H6.82517L6.12517 3.00697L5.60017 2.93697L3.85017 3.00697L3.50017 3.32197V9.09697L3.67517 9.93697H5.25017L6.09017 9.86697L6.68517 9.90197L7.63017 9.83197H8.61017L9.38017 10.007L9.62517 10.707L9.59017 11.827L9.41517 12.492L8.57517 12.632H4.27017L3.50017 12.877L3.46517 13.682L3.43017 14.732L3.29017 15.712L3.32517 16.727V20.577L3.81517 20.857H6.09017L7.31517 20.822H8.47017L9.38017 21.102L9.55517 22.327L9.34517 23.272L8.54017 23.482H7.63017L6.82517 23.587L6.12517 23.552L5.42517 23.622L4.69017 23.587L3.78017 23.622L2.41517 23.762L1.82017 23.797L0.840166 23.622ZM16.6183 23.762L16.3033 22.817L16.1283 22.152L15.7433 20.892L15.5683 20.227L15.1833 18.897L14.8333 17.497L14.4133 16.167L14.2733 15.537L14.0983 14.907L13.9583 14.277L13.5733 12.807L13.1883 11.302L13.1183 10.427L14.0983 10.322L14.8333 10.287L15.6383 10.497L15.8483 10.987L16.0583 12.072L16.1983 12.737L16.3733 13.367L16.6883 14.662L16.8283 15.292L17.0033 15.922L17.3533 17.112L17.5983 17.672L17.8783 16.937L18.4033 14.837L18.5783 14.102L18.8933 12.737L19.0683 12.107L19.3133 10.987L20.0483 10.392L21.3083 10.357L22.0433 10.462L22.1483 10.637L21.9733 11.477L21.7983 12.247L21.4133 13.542L21.0633 14.837L20.8883 15.572L20.5033 17.042L20.2933 17.777L20.0833 18.547L19.9083 19.282L19.5233 20.682L19.3483 21.347L19.1383 22.012L18.8233 23.167L18.4033 23.797L17.5283 23.972L16.6183 23.762ZM29.9935 24.042L28.9435 23.867L28.3485 23.622L27.7885 23.377L26.6685 22.607L26.2135 22.047L25.6885 21.102L25.4085 20.192L25.1985 18.792L25.2335 17.847V17.077L25.4435 16.027L25.6885 14.662L26.1785 13.017L26.9485 11.582L27.4735 10.987L28.6285 10.147L29.2235 9.90197L29.8885 9.76197L31.2185 9.69197L32.6885 9.76197L34.0185 10.147L35.0335 11.022L35.4535 11.582L35.7685 12.212L36.1185 13.647L36.1885 14.837L36.1185 15.852L36.0485 17.042L35.5585 17.637L33.5635 17.917L32.8285 17.882L31.7085 17.952H29.3985L28.6285 17.917L28.2435 18.302L28.3135 18.827L28.4535 19.597L29.1185 20.472L30.1685 20.997L30.8335 21.172L31.4985 21.312L32.1985 21.417H32.8985L33.5635 21.382L34.4035 21.487L34.6135 22.047L34.5785 22.817L34.5435 23.517L34.2285 23.902L33.2835 24.042L32.5485 24.112L31.4635 24.182L29.9935 24.042ZM32.4785 14.942L33.4235 14.907L33.3885 14.242L33.0385 13.507L32.3735 13.052L31.7785 12.877L31.0435 12.912L30.4835 13.087L29.5385 13.717L29.1185 14.242L28.9435 14.907L29.6785 14.942H32.4785ZM41.3992 23.902L41.1892 22.922L41.1542 22.152V21.382L41.1892 19.877L41.1542 19.177L41.1892 18.442V17.742L41.2242 16.587V15.852L41.1892 15.082V14.242L41.2592 13.262L41.3292 12.317V11.372L41.3642 10.602L42.2392 10.287L43.3942 10.252L43.9192 10.637L44.0592 11.197L44.6542 11.092L45.2142 10.742L45.8092 10.427L46.3692 10.182L46.9992 10.007L48.3292 9.97197L48.9942 10.252L49.9742 11.162L50.2192 11.757L50.4292 12.387L50.6392 13.367L50.6742 13.997L50.7792 14.627L50.8492 15.467L50.7792 16.237L50.8142 16.797L50.7442 17.532V18.337L50.7792 19.107L50.7442 20.227V20.962L50.7092 21.732V22.467L50.7442 23.377V23.727L50.3942 24.007H49.3442L48.3642 23.937L47.9442 23.727L47.7692 22.887V22.222L47.8742 20.892L47.8392 19.422L47.7692 18.547L47.8042 17.777V17.077L47.7342 16.377V15.012L47.5592 14.067L47.3142 13.262L46.0892 13.087L44.8992 13.822L44.1642 14.312L43.9542 14.767L43.9892 15.607L43.9542 16.692L43.8842 17.602L43.9192 18.582L43.8842 19.737L43.9892 20.717L43.9192 21.487L43.8492 22.292L43.8142 22.957L43.9542 23.342L43.9192 23.902L42.9392 24.112H42.2742L41.3992 23.902ZM62.4043 23.972L61.0743 23.517L60.4793 23.167L59.9193 22.712L59.4293 22.187L59.0443 21.592L58.7293 20.927L58.3443 19.667L58.1343 18.407L57.9943 17.042L57.9593 16.412V11.057L57.4343 10.742L55.4743 10.777L54.7393 10.602L54.5293 9.65697L54.5643 8.92197L55.3693 7.94197H57.4343L58.0643 7.48697L58.1343 6.33197V5.66697L58.3793 4.82697L59.3243 4.61697L60.3743 4.65197L60.8293 4.89697L60.9693 5.77197V7.17197L61.0743 7.87197H62.6143L63.5593 7.83697H65.3093L65.7643 8.29197L65.8693 9.37697L65.8343 9.97197L65.4143 10.567L64.8893 10.637H63.8393L63.1743 10.672L62.4743 10.742L61.0743 10.812L60.9693 11.022L60.9343 11.932V14.627L60.7943 15.607L60.8993 16.412V17.357L61.0043 18.512L61.5293 19.947L62.7893 20.822L63.4543 21.102L64.1543 21.242L65.2043 21.277L65.6593 21.452L65.7643 21.837L65.8343 22.362L65.7293 23.307L65.5893 24.042L64.6793 24.252H63.8743L62.4043 23.972ZM70.3934 23.902L69.8684 23.482L69.7634 22.712L69.7284 22.117L69.8334 20.717V19.912L69.8684 18.477L69.9034 17.812V15.922L69.9384 15.292V12.562L69.8684 11.582V10.672L70.2534 10.112L71.2334 10.077H71.8984L72.8434 10.322L72.8784 11.372V16.377L72.8434 17.672L72.7734 18.477L72.8434 18.792L72.7384 19.562L72.7734 20.227L72.7384 20.927L72.7734 21.522V23.307L72.5634 23.797L71.5134 23.937L70.3934 23.902ZM70.1134 6.96197L69.8334 5.98197V4.54697L70.1484 3.42697L71.2334 3.18197H72.5284L73.4034 3.35697L73.6134 4.16197V4.75697L73.4734 6.05197L73.3334 6.96197L72.6334 7.20697H71.7584L70.8484 7.24197L70.1134 6.96197Z" fill="white"/>
</svg>
