<svg width="504" height="55" viewBox="0 0 504 55" fill="none" xmlns="http://www.w3.org/2000/svg">
<g clip-path="url(#clip0_3416_65)">
<path d="M1.1329 53.5735L0.5 51.196V39.1498L0.579113 36.7723V34.8703L0.5 32.4928V30.353L0.579113 28.5303L0.895565 25.8357L0.816452 22.5864L1.05379 21.0014L0.895565 19.1787L1.1329 15.9294L1.21202 14.4236V9.74783L1.29113 7.44955L1.1329 2.37751L1.37024 0.792494L3.74363 0.39624H5.56323L7.69928 0.792494L8.25307 1.4265L8.33218 3.17002V9.11382L8.25307 12.1253L8.09484 14.9784L7.93661 18.1484V22.9827L7.8575 32.0173V36.5346L7.77839 38.3573L7.69928 40.1009L7.93661 41.2104L7.8575 42.4784L7.77839 44.3804L7.93661 47.0749V48.8184L8.01573 51.2752V52.5432L7.77839 53.415L6.19613 53.732L4.37653 53.6527L3.11073 54.049L1.1329 53.5735Z" fill="white"/>
<path d="M73.2048 53.3357L73.0465 51.0375L72.9674 49.5317V46.5994L73.1257 44.1426L72.9674 42.3991V38.1988L73.1257 35.0288L73.2048 33.6816L73.2839 30.9078L73.363 29.5605V25.0432L71.8598 23.379L70.5149 22.428L68.1415 20.8429L66.9548 19.8919L61.2587 16.1671L59.5182 15.1369L58.8853 15.6124L58.8062 17.9107L58.8853 22.9035V26.232L58.7271 28.5303L58.8062 30.9078L58.8853 32.6513L58.7271 35.5043L58.5689 38.1988L58.4898 39.7839L58.4106 42.8746V47.3127L58.4898 49.7694V51.83L58.2524 53.0187L57.8569 53.5735L56.6702 53.6527L54.8506 53.732L52.3981 53.415L51.5278 53.3357L51.2114 51.6715V50.245L51.2905 47.3127L51.3696 45.8862V42.9539L51.4487 41.5274V37.1686L51.5278 34.2363L51.686 31.1455V29.4813L51.7652 26.3112L52.0025 24.8055L51.8443 23.5375L52.0025 18.9409V14.5821L51.9234 12.6801L52.0816 10.6196V8.24207L52.1607 3.88329V1.98127L52.6354 0.951009L53.743 0.713257L54.7714 0.792508L56.1955 0.713257L57.8569 0.792508L58.7271 0.951009L58.8853 3.09078V4.83429L60.3094 7.52882L63.0783 9.43084L67.3504 12.2839L68.6953 13.1556L71.4643 15.0576L73.363 15.8501L73.6003 14.6614L73.4421 13.5519L73.6003 12.8386L73.5212 11.7291L73.6003 10.0648L73.4421 9.19308L73.6794 7.37032V3.80403L73.8377 1.90202L74.787 1.26801L76.0528 0.871758L76.9231 0.951009L77.7142 0.792508L79.0591 1.10951L80.2458 2.06052L80.4832 4.20029V7.21182L80.5623 10.2233V12.0461L80.7996 13.2349L80.4832 15.7709L80.404 17.4352L80.4832 19.0994V22.2695L80.404 34.6326V37.4063L80.3249 39.8631L80.0876 42.2406V45.0937L79.9294 48.0259L79.8502 50.0864L80.0085 51.4337L79.7711 52.781L78.8218 53.2565L75.8155 53.8905L74.3915 53.9697L73.2048 53.3357Z" fill="white"/>
<path d="M109.676 54.8415L106.986 53.8905L105.641 53.2565L104.375 52.464L101.923 50.1657L100.736 48.7392L98.9165 45.4107L97.4924 42.1614L97.0177 40.6556L96.3848 37.6441L96.1475 36.1383L95.9893 34.6326L95.8311 31.621V27.1037L96.1475 24.1715L96.3057 22.8242L96.6222 20.0504L96.9386 18.6239L97.176 17.2767L97.8089 14.4236L98.2836 12.9179L99.312 10.1441L99.9449 8.79683L100.657 7.52882L102.635 4.9928L103.821 3.72478L105.087 2.61527L106.511 1.66427L109.834 0.396254L113.157 0L115.688 0.554755L118.457 1.34726L119.96 2.13977L121.385 3.09078L122.65 4.27954L124.707 6.81556L125.498 8.16282L126.131 9.58934L126.685 11.0159L127.555 14.1859L128.03 15.8501L128.505 17.9107L128.742 19.8127L128.9 21.3977L128.979 23.062L129.058 24.647V28.6888L128.979 31.7795L128.821 33.2061L128.663 34.7118L128.188 37.7233L127.555 40.6556L127.16 42.0029L126.052 44.6974L125.419 46.0447L124.707 47.3127L123.046 49.7695L122.097 50.7997L119.802 52.8602L118.457 53.732L117.033 54.366L115.53 54.7622L113.157 55H111.733L109.676 54.8415ZM114.502 48.5807L116.4 47.3127L117.745 46.2032L119.407 43.4294L120.119 42.0029L121.385 39.1499L121.859 36.1383L122.255 33.2061L122.413 31.4625L122.571 29.7983L122.65 28.0548L122.571 24.7262L122.413 23.1412L121.938 19.6542L121.701 17.8314L120.989 14.2651L120.356 12.6009L118.457 9.90634L117.429 8.79683L115.609 7.37032L113.078 6.89481L109.992 7.60807L108.726 8.32133L106.986 10.3026L105.562 12.8386L105.008 14.3444L104.217 16.7219L103.584 19.1787L103.347 20.9222V23.1412L103.03 24.647L102.951 27.6585L102.714 30.8285V33.9193L103.109 36.9308L103.347 38.3573L103.663 39.7839L104.692 42.8746L105.641 44.4597L108.252 47.1542L111.179 48.6599L112.524 48.8977L114.502 48.5807Z" fill="white"/>
<path d="M142.191 54.049L141.717 53.2565L141.637 51.3545V49.7694L143.141 47.7882L145.672 48.1052L148.599 47.7882L150.103 47.3919L151.685 46.8372L153.188 45.7277L154.216 44.3804L154.928 41.1311L153.979 38.0403L153.346 36.6138L152.634 35.1873L151.21 32.6513L150.498 31.4625L149.074 29.0058L147.65 26.4697L146.859 25.2017L144.723 21.2392L143.932 19.9712L143.22 18.6239L142.587 17.2766L142.033 15.8501L141.321 13.3934L140.925 12.2046L141.005 10.7781L141.242 8.24206L142.191 5.54754L143.773 3.24927L146.147 1.585L147.571 1.1095L150.656 0.475491L152.239 0.39624H155.64L157.776 0.871745L158.409 3.17002L157.935 5.54754L155.561 6.02304L152.239 6.10229L150.894 6.49855L148.599 7.84581L147.887 9.03457L147.571 11.6498L148.52 14.1859L149.074 15.4539L150.577 17.7521L151.922 20.2089L152.713 21.4769L153.979 23.6167L155.008 25.6772L155.72 26.9452L156.432 28.2925L157.144 29.5605L158.647 32.0965L159.28 33.4438L159.913 34.7118L160.783 36.8516L161.574 39.1498L161.811 40.9726L161.574 44.3011L161.099 45.8069L160.071 48.1844L158.726 50.2449L157.697 51.2752L156.511 52.2262L155.245 52.9395L152.476 53.9697L150.735 54.049L148.916 54.4452H144.169L142.191 54.049Z" fill="white"/>
<path d="M181.985 53.4149L181.827 51.1959V45.5691L181.669 44.1426L181.589 42.0028V40.7348L181.51 38.595L181.431 32.4927L181.589 29.7982L181.51 27.4999V17.9106L181.589 15.5331L181.51 12.8386L181.431 9.43078V7.21176L180.324 6.57776H175.893L173.836 6.65701L172.096 6.49851L171.463 4.35874V2.69447L173.362 0.950955L176.289 1.26796L178.583 1.10946L179.849 1.26796L181.985 0.950955L184.675 1.10946L187.681 1.03021L189.58 1.10946L191.558 0.871704L193.615 1.10946L195.672 0.950955L198.045 2.37747L198.203 3.80398L198.045 5.8645L197.491 6.49851L195.592 6.57776H189.105L188.393 6.89476L188.314 8.47977L188.235 10.5403L188.472 12.9971V18.1484L188.551 20.6051V23.0619L188.472 25.6772V27.8169L188.393 29.085L188.551 30.2737V38.8328L188.631 41.5273L188.789 43.4293V45.7276L188.868 47.2334V48.8184L188.789 50.6412L188.868 52.0677L188.551 53.6527L186.732 54.1282H183.963L181.985 53.4149Z" fill="white"/>
<path d="M236.969 53.6527L235.861 53.7319H234.753L233.171 53.6527L230.481 52.1469L228.345 49.3731L227.317 48.1051L225.418 45.4899L223.44 43.0331L222.412 41.8443L221.462 40.5763L219.326 38.0403L218.061 36.9308V38.9913L218.14 48.6599L218.219 51.3544L217.981 53.0979L215.924 53.1772L213.156 53.4942L211.652 53.3357L211.257 52.0677L211.099 50.0071V48.0259L211.178 46.3616L211.099 44.3803L211.019 42.0821L211.099 40.1801L211.019 38.3573L211.099 36.376L211.019 34.474L211.178 32.572L210.94 31.1455L211.257 29.2435L211.415 26.5489V23.6959L211.336 20.9221V12.2838L211.494 9.90629L211.415 7.92502L211.336 5.8645L211.415 3.96248L211.494 2.77372L211.415 1.42646L212.839 0.237698L214.58 0.158447H216.399L218.219 0.316949L220.592 1.03021L222.016 1.82271L223.282 2.69447L224.548 3.72473L226.605 5.8645L227.475 7.05326L228.187 8.32127L229.136 11.0158L229.611 12.2838L230.481 15.2161L230.719 16.8011L230.798 19.6541L230.56 22.1901L230.086 24.1714L229.532 26.3112L228.978 27.8169L228.187 29.1642L226.051 31.7002L224.785 32.889L224.39 35.2665L225.339 36.4553L227.238 38.6743L229.136 40.9726L231.984 44.5388L233.962 46.9164L236.81 50.4827L237.997 52.3847L238.076 53.4942L237.681 53.8904L236.969 53.6527ZM220.671 27.5792L221.858 26.4697L222.728 25.2017L223.598 22.1901L223.836 20.6844L223.994 18.7031L223.678 16.6426L223.045 13.3141L222.491 11.6498L221.7 10.144L219.722 7.68727L218.377 6.89476L218.219 7.68727L218.377 8.87603L218.298 10.3025V11.7291L218.14 13.2348V14.5821L218.298 15.2161L218.14 16.5633L218.061 17.9106L218.219 20.1296V22.8242L218.14 26.1527V27.4999L218.773 28.6887L220.671 27.5792Z" fill="white"/>
<path d="M251.446 53.5735L250.813 51.196V39.1498L250.892 36.7723V34.8703L250.813 32.4928V30.353L250.892 28.5303L251.209 25.8357L251.13 22.5864L251.367 21.0014L251.209 19.1787L251.446 15.9294L251.525 14.4236V9.74783L251.604 7.44955L251.446 2.37751L251.684 0.792494L254.057 0.39624H255.877L258.013 0.792494L258.566 1.4265L258.645 3.17002V9.11382L258.566 12.1253L258.408 14.9784L258.25 18.1484V22.9827L258.171 32.0173V36.5346L258.092 38.3573L258.013 40.1009L258.25 41.2104L258.171 42.4784L258.092 44.3804L258.25 47.0749V48.8184L258.329 51.2752V52.5432L258.092 53.415L256.509 53.732L254.69 53.6527L253.424 54.049L251.446 53.5735Z" fill="white"/>
<path d="M314.42 54.049L312.838 54.2075H311.493L309.832 53.9697L308.724 54.2075H303.423L301.683 54.049L301.366 53.5735V34.2363L301.525 31.5418L301.683 28.3717L301.841 25.4395L302.078 22.6657V19.4164L302.158 17.1181L302.078 14.8991V13.3141L302.158 11.7291L302.237 8.79682L302.395 7.3703L302.474 4.51728V3.01151L302.79 1.268L303.503 1.1095H306.192L307.063 1.34725H308.645L309.12 2.06051L309.199 3.80402V14.1066L308.803 16.0086V33.4438L308.724 35.9798L308.803 38.1988L308.487 40.2594L308.408 42.3991V43.9049L308.091 45.8862L309.752 47.5504H316.002L321.619 47.7089L323.36 47.8674L323.914 48.5014L323.993 49.5317V51.196L323.755 53.1772L322.331 54.049L320.591 54.2867L318.534 54.1282L316.081 54.2867L314.42 54.049Z" fill="white"/>
<path d="M336.809 53.7319L335.464 53.8112L333.803 53.1772L334.04 51.2752L334.357 49.9279L334.752 47.4711L335.464 44.9351L335.781 43.3501L336.097 41.6858L336.888 38.1988L337.442 35.5835L337.679 34.6325L337.996 32.8097L338.391 31.1455L339.578 26.3904L339.894 23.6167L340.606 20.9221L340.923 19.4164L341.239 17.8314L341.714 15.9293L342.268 13.9481L342.663 12.1253L343.534 9.03453L343.929 7.60802L344.167 6.26075L344.799 2.93222L345.511 0.554701L347.331 0.158447L348.834 0.47545L350.416 2.77372L350.733 4.35874L351.524 7.37026L351.84 8.87603L352.632 12.1253L352.948 13.8688L353.739 17.1181L354.214 18.6239L355.005 21.7939L356.271 26.7074L357.062 29.9567L359.673 39.7046L360.859 44.0633L361.255 45.4899L362.125 48.3429L362.6 49.9279L363.233 52.2262L362.916 53.4942L362.363 53.8904L360.385 53.7319L357.299 53.6527L355.638 52.2262L355.321 50.4827L354.689 48.0259L354.293 46.2824L353.739 44.1426L353.027 43.7463L350.575 43.6671H348.043L346.54 43.3501L344.641 43.5878L343.059 43.5086L342.03 45.3314L341.714 46.9164L341.398 48.4221L341.16 50.0071L340.844 51.5922L339.894 53.5734L338.629 53.8904L336.809 53.7319ZM350.654 37.7233L351.999 37.01L351.603 35.0288L350.416 30.5907L349.546 27.5792L348.36 22.8242L347.885 21.1599L346.856 21.0806L346.461 22.6656L345.907 25.9149L345.274 29.1642L344.483 32.4135L343.85 35.3458L343.534 37.327L345.116 37.7233H350.654Z" fill="white"/>
<path d="M380.717 53.9698L380.084 51.83L379.688 50.4827L379.372 49.1355L379.134 47.4712L378.581 45.8862L377.948 43.6672L377.79 42.2407L377.236 41.0519L376.84 39.7046L376.286 37.3271L375.812 35.5836L375.416 33.9193L374.862 30.7493L374.546 29.402L374.15 27.9755L373.834 26.6283L373.201 23.5375L372.41 20.4467L371.935 17.7522L371.54 15.8502L371.223 14.5822L370.986 13.2349L370.59 11.4914L370.195 8.87611L369.799 7.29109L369.324 4.59657L368.929 3.17006L368.771 1.82279L369.245 0.792535L370.353 0.634033L371.46 0.951036L372.647 1.03029L373.597 0.871785L374.546 1.03029L375.495 2.9323L376.128 6.02308L376.445 7.52885L376.761 9.11386L377.157 10.6196L377.71 13.7104L378.027 15.1369L378.343 16.6427L378.739 18.0692L379.293 20.843L379.846 23.5375L380.084 25.0433L380.4 26.4698L381.033 29.402L381.824 32.2551L382.22 33.7608L382.932 36.7724L383.327 38.2781L383.96 40.9727L384.751 40.5764L385.543 37.5649L386.413 34.1571L387.204 30.6701L387.995 27.3415L388.628 24.013L389.024 22.428L389.656 19.0202L389.973 17.2767L390.922 13.8689L391.397 12.1254L392.188 8.63836L393.058 5.23058L393.612 2.6153L394.403 1.18879H396.618L398.28 0.792535H399.15L400.099 1.42654V3.40781L399.704 4.91357L399.387 6.34009L398.596 9.51011L397.805 12.7594L397.172 16.0087L396.381 18.3862L395.748 21.0015L394.087 27.5L393.691 29.2435L393.217 30.8286L392.821 32.3343L391.634 37.0894L391.239 38.7536L390.764 40.4179L390.368 42.1614L389.498 45.4899L389.024 47.1542L388.074 50.562L387.204 53.5735L384.672 54.4453H383.011L380.717 53.9698Z" fill="white"/>
<path d="M421.381 54.8415L418.691 53.8905L417.346 53.2565L416.08 52.464L413.628 50.1657L412.441 48.7392L410.621 45.4107L409.197 42.1614L408.723 40.6556L408.09 37.6441L407.852 36.1383L407.694 34.6326L407.536 31.621V27.1037L407.852 24.1715L408.011 22.8242L408.327 20.0504L408.644 18.6239L408.881 17.2767L409.514 14.4236L409.988 12.9179L411.017 10.1441L411.65 8.79683L412.362 7.52882L414.34 4.9928L415.526 3.72478L416.792 2.61527L418.216 1.66427L421.539 0.396254L424.862 0L427.393 0.554755L430.162 1.34726L431.665 2.13977L433.089 3.09078L434.355 4.27954L436.412 6.81556L437.203 8.16282L437.836 9.58934L438.39 11.0159L439.26 14.1859L439.735 15.8501L440.21 17.9107L440.447 19.8127L440.605 21.3977L440.684 23.062L440.763 24.647V28.6888L440.684 31.7795L440.526 33.2061L440.368 34.7118L439.893 37.7233L439.26 40.6556L438.865 42.0029L437.757 44.6974L437.124 46.0447L436.412 47.3127L434.751 49.7695L433.801 50.7997L431.507 52.8602L430.162 53.732L428.738 54.366L427.235 54.7622L424.862 55H423.438L421.381 54.8415ZM426.207 48.5807L428.105 47.3127L429.45 46.2032L431.112 43.4294L431.824 42.0029L433.089 39.1499L433.564 36.1383L433.96 33.2061L434.118 31.4625L434.276 29.7983L434.355 28.0548L434.276 24.7262L434.118 23.1412L433.643 19.6542L433.406 17.8314L432.694 14.2651L432.061 12.6009L430.162 9.90634L429.134 8.79683L427.314 7.37032L424.783 6.89481L421.697 7.60807L420.431 8.32133L418.691 10.3026L417.267 12.8386L416.713 14.3444L415.922 16.7219L415.289 19.1787L415.052 20.9222V23.1412L414.735 24.647L414.656 27.6585L414.419 30.8285V33.9193L414.814 36.9308L415.052 38.3573L415.368 39.7839L416.397 42.8746L417.346 44.4597L419.957 47.1542L422.884 48.6599L424.229 48.8977L426.207 48.5807Z" fill="white"/>
<path d="M481.823 53.6527L480.716 53.7319H479.608L478.026 53.6527L475.336 52.1469L473.2 49.3731L472.171 48.1051L470.273 45.4899L468.295 43.0331L467.266 41.8443L466.317 40.5763L464.181 38.0403L462.915 36.9308V38.9913L462.994 48.6599L463.073 51.3544L462.836 53.0979L460.779 53.1772L458.01 53.4942L456.507 53.3357L456.111 52.0677L455.953 50.0071V48.0259L456.032 46.3616L455.953 44.3803L455.874 42.0821L455.953 40.1801L455.874 38.3573L455.953 36.376L455.874 34.474L456.032 32.572L455.795 31.1455L456.111 29.2435L456.27 26.5489V23.6959L456.191 20.9221V12.2838L456.349 9.90629L456.27 7.92502L456.191 5.8645L456.27 3.96248L456.349 2.77372L456.27 1.42646L457.694 0.237698L459.434 0.158447H461.254L463.073 0.316949L465.447 1.03021L466.871 1.82271L468.137 2.69447L469.402 3.72473L471.459 5.8645L472.33 7.05326L473.042 8.32127L473.991 11.0158L474.466 12.2838L475.336 15.2161L475.573 16.8011L475.652 19.6541L475.415 22.1901L474.94 24.1714L474.386 26.3112L473.833 27.8169L473.042 29.1642L470.906 31.7002L469.64 32.889L469.244 35.2665L470.193 36.4553L472.092 38.6743L473.991 40.9726L476.839 44.5388L478.817 46.9164L481.665 50.4827L482.852 52.3847L482.931 53.4942L482.535 53.8904L481.823 53.6527ZM465.526 27.5792L466.713 26.4697L467.583 25.2017L468.453 22.1901L468.69 20.6844L468.849 18.7031L468.532 16.6426L467.899 13.3141L467.345 11.6498L466.554 10.144L464.576 7.68727L463.232 6.89476L463.073 7.68727L463.232 8.87603L463.152 10.3025V11.7291L462.994 13.2348V14.5821L463.152 15.2161L462.994 16.5633L462.915 17.9106L463.073 20.1296V22.8242L462.994 26.1527V27.4999L463.627 28.6887L465.526 27.5792Z" fill="white"/>
<path d="M496.301 53.5735L495.668 51.196V39.1498L495.747 36.7723V34.8703L495.668 32.4928V30.353L495.747 28.5303L496.063 25.8357L495.984 22.5864L496.222 21.0014L496.063 19.1787L496.301 15.9294L496.38 14.4236V9.74783L496.459 7.44955L496.301 2.37751L496.538 0.792494L498.911 0.39624H500.731L502.867 0.792494L503.421 1.4265L503.5 3.17002V9.11382L503.421 12.1253L503.263 14.9784L503.104 18.1484V22.9827L503.025 32.0173V36.5346L502.946 38.3573L502.867 40.1009L503.104 41.2104L503.025 42.4784L502.946 44.3804L503.104 47.0749V48.8184L503.184 51.2752V52.5432L502.946 53.415L501.364 53.732L499.544 53.6527L498.279 54.049L496.301 53.5735Z" fill="white"/>
</g>
<defs>
<clipPath id="clip0_3416_65">
<rect width="503" height="55" fill="white" transform="translate(0.5)"/>
</clipPath>
</defs>
</svg>
