<svg width="146" height="25" viewBox="0 0 146 25" fill="none" xmlns="http://www.w3.org/2000/svg">
<path d="M0.629068 23.622L0.454068 23.377L0.489068 22.712L0.524068 21.487V19.527L0.559067 18.862V17.707L0.629068 16.692V15.782L0.664068 14.732V13.052L0.699067 12.282L0.769068 11.302L0.699067 10.707L0.804068 9.93697L0.839068 9.16697V8.43197L0.874068 7.38197L0.944067 6.85697V6.33197L0.979068 5.80697L0.874068 4.82697L1.01407 3.28697V1.32697L1.18907 0.486971L1.53907 0.311971L2.09907 0.17197L2.90407 0.556972L4.05907 2.09697L5.28407 3.77697L5.70407 4.37197L6.57907 5.59697L7.45407 6.75197L8.29407 7.87197L8.99407 8.81697L9.51907 9.44697L10.0441 9.16697L11.5841 6.85697L11.9691 6.26197L13.5791 3.91697L14.7691 2.16697L15.4341 1.25697L15.9241 0.556972L16.5541 0.346972H16.9041L17.4991 0.451971L17.8141 1.29197L17.7791 2.41197V3.60197L17.7441 4.51197L17.7091 5.17697V5.84197L17.6741 6.26197L17.7091 7.03197V7.76697L17.6391 8.53697V15.747L17.6041 16.447V17.917L17.5691 19.107L17.6041 19.982V21.767L17.5691 22.502L17.4991 23.272L16.9741 23.517L16.4841 23.552L15.9591 23.657L15.5741 23.622L15.0491 23.587L14.5591 23.342L14.4891 22.397L14.5241 21.662V18.687L14.5591 17.252L14.6291 15.957L14.6641 15.187V14.417L14.6991 13.262L14.8041 12.807L14.7691 11.932L14.8041 11.127V8.78197L14.7691 7.55697L14.3141 7.66197L13.9291 8.22197L13.5091 8.81697L12.7391 9.93697L12.3891 10.497L12.0041 11.057L11.1991 12.142L10.8141 12.667L10.3941 13.227L9.79907 13.752L9.30907 13.612L8.60907 12.912L7.69907 11.862L7.27907 11.337L6.33407 10.112L5.35407 8.92197L4.93407 8.32697L4.33907 7.45197L3.98907 7.27697L3.95407 7.62697L3.91907 8.18697L3.88407 8.78197L3.81407 9.69197V13.192L3.77907 14.207L3.67407 14.942V22.607L3.46407 23.517L2.65907 23.762H1.43407L0.629068 23.622ZM28.3234 24.462L27.7284 24.322L26.6784 23.867L25.8034 23.097L25.0334 21.767L24.6134 20.262L24.3684 18.792L24.2984 18.057V15.887L24.3334 14.767V13.472L24.4384 12.702L24.4734 12.002V11.302L24.5784 10.392L24.8234 10.182L25.5934 10.147H26.2234L27.1684 10.252L27.5184 10.532L27.5884 11.232L27.5184 11.897L27.4484 12.772L27.4134 13.507L27.3784 14.207L27.3084 14.907L27.2734 15.642V17.077L27.3784 18.477L27.4484 19.177L27.5884 19.877L27.8684 20.892L28.1834 21.277L28.5684 21.487L29.1284 21.522L29.7584 21.207L30.2484 20.192L30.4584 18.932L30.5284 18.337L30.5634 16.867V13.402L30.5984 12.212L30.5634 11.162L30.7034 10.462L31.5784 10.322H32.2784L33.2584 10.497L33.4684 11.162L33.5384 12.317L33.5034 13.052L33.3984 14.067V14.942L33.3634 16.202V17.427L33.2234 18.127V18.652L33.1184 19.387L33.0484 20.157L32.9084 21.137L32.6984 21.767L32.1384 23.027L31.4734 23.762L30.7384 24.077L29.5834 24.427L28.9534 24.497L28.3234 24.462ZM38.4941 24.007L38.2841 23.762L38.2491 22.817L38.3541 21.522L39.1941 21.172L41.0141 21.067L41.8191 20.682L42.3091 19.912L42.0291 18.617L41.7141 18.022L40.9441 16.937L40.1041 15.817L39.0191 14.417L38.7391 13.717L38.5991 12.282L38.8091 11.582L39.1941 10.987L39.9641 10.357L40.4191 10.217L41.2591 9.97197L41.9241 9.90197L43.4641 9.86697L44.6191 10.042L45.0041 10.812L45.0391 11.372L45.0041 12.177L44.7591 12.457L43.9541 12.597L43.3591 12.632L42.2391 12.807L41.6441 13.017L41.8541 13.717L42.4141 14.452L43.0791 15.117L44.4091 16.762L44.7941 17.357L45.1091 17.987L45.5991 19.282L45.6691 19.947L45.6341 20.647L45.2141 21.977L44.7591 22.537L44.2341 23.027L43.0791 23.622L41.8191 23.937L41.0491 24.042L39.5091 24.182L38.4941 24.007ZM51.2175 23.902L50.6925 23.482L50.5875 22.712L50.5525 22.117L50.6575 20.717V19.912L50.6925 18.477L50.7275 17.812V15.922L50.7625 15.292V12.562L50.6925 11.582V10.672L51.0775 10.112L52.0575 10.077H52.7225L53.6675 10.322L53.7025 11.372V16.377L53.6675 17.672L53.5975 18.477L53.6675 18.792L53.5625 19.562L53.5975 20.227L53.5625 20.927L53.5975 21.522V23.307L53.3875 23.797L52.3375 23.937L51.2175 23.902ZM50.9375 6.96197L50.6575 5.98197V4.54697L50.9725 3.42697L52.0575 3.18197H53.3525L54.2275 3.35697L54.4375 4.16197V4.75697L54.2975 6.05197L54.1575 6.96197L53.4575 7.20697H52.5825L51.6725 7.24197L50.9375 6.96197ZM65.0244 24.217L64.3944 24.147L63.7994 24.042L62.5044 23.762L61.8744 23.482L61.2794 23.132L60.7194 22.712L59.8444 21.732L59.4944 21.172L59.2494 20.577L58.8994 19.142L58.8644 17.707L58.8994 17.077L58.9694 16.447L59.1444 15.187L59.2494 14.592L59.4244 13.962L59.9144 12.632L60.2994 11.967L61.3144 10.777L62.3294 10.042L62.8894 9.76197L63.5194 9.62197L64.4994 9.51697L65.6894 9.34197L66.3544 9.30697L66.5994 9.51697L66.7744 10.427V11.197L66.7044 12.037L66.5294 12.212L65.7944 12.422L64.6044 12.597L63.7644 12.912L63.0644 13.682L62.6444 14.347L62.3994 15.502L62.1894 16.447L62.1544 17.042V18.267L62.2594 18.897L62.4694 19.492L62.8894 20.052L63.4494 20.507L64.0094 20.752L65.0594 21.067L66.0394 21.242L66.5294 21.312L66.7394 21.592L66.7744 22.642L66.7394 23.412L66.3894 24.252L65.9694 24.287L65.0244 24.217ZM84.6701 23.727L84.3901 22.782L84.2151 22.187L84.0751 21.592L83.9701 20.857L83.7251 20.157L83.4451 19.177L83.3751 18.547L83.1301 18.022L82.9551 17.427L82.7101 16.377L82.5001 15.607L82.3251 14.872L82.0801 13.472L81.9401 12.877L81.7651 12.247L81.6251 11.652L81.3451 10.287L80.9951 8.92197L80.7851 7.73197L80.6101 6.89197L80.4701 6.33197L80.3651 5.73697L80.1901 4.96697L80.0151 3.81197L79.8401 3.11197L79.6301 1.92197L79.4551 1.29197L79.3851 0.696972L79.5951 0.241972L80.0851 0.17197L80.5751 0.311971L81.1001 0.346972L81.5201 0.276971L81.9401 0.346972L82.3601 1.18697L82.6401 2.55197L82.7801 3.21697L82.9201 3.91697L83.0951 4.58197L83.3401 5.94697L83.4801 6.57697L83.6201 7.24197L83.7951 7.87197L84.0401 9.09697L84.2851 10.287L84.3901 10.952L84.5301 11.582L84.8101 12.877L85.1601 14.137L85.6851 16.132L85.8251 16.797L86.1051 17.987L86.4551 17.812L86.8051 16.482L87.5401 13.437L87.8901 11.967L88.1701 10.497L88.3451 9.79697L88.6251 8.29197L88.7651 7.52197L89.1851 6.01697L89.3951 5.24697L89.7451 3.70697L90.1301 2.20197L90.3751 1.04697L90.7251 0.416972H91.7051L92.4401 0.241972H92.8251L93.2451 0.521972V1.39697L93.0701 2.06197L92.9301 2.69197L92.5801 4.09197L92.2301 5.52697L91.9501 6.96197L91.6001 8.01197L91.3201 9.16697L91.1451 9.86697L90.7951 11.337L90.5851 12.037L90.4101 12.807L90.2001 13.507L90.0251 14.172L89.5001 16.272L89.3251 17.007L89.1151 17.742L88.9401 18.512L88.5551 19.982L88.3451 20.717L87.9251 22.222L87.5401 23.552L86.4201 23.937H85.6851L84.6701 23.727ZM97.1891 23.902L96.6641 23.482L96.5591 22.712L96.5241 22.117L96.6291 20.717V19.912L96.6641 18.477L96.6991 17.812V15.922L96.7341 15.292V12.562L96.6641 11.582V10.672L97.0491 10.112L98.0291 10.077H98.6941L99.6391 10.322L99.6741 11.372V16.377L99.6391 17.672L99.5691 18.477L99.6391 18.792L99.5341 19.562L99.5691 20.227L99.5341 20.927L99.5691 21.522V23.307L99.3591 23.797L98.3091 23.937L97.1891 23.902ZM96.9091 6.96197L96.6291 5.98197V4.54697L96.9441 3.42697L98.0291 3.18197H99.3241L100.199 3.35697L100.409 4.16197V4.75697L100.269 6.05197L100.129 6.96197L99.4291 7.20697H98.5541L97.6441 7.24197L96.9091 6.96197ZM113.376 23.832L113.341 22.572V21.522L113.201 21.347L112.676 22.047L112.186 22.677L111.101 23.692L110.471 24.007L109.351 24.217L108.301 23.937L107.671 23.692L107.076 23.377L106.376 22.922L105.886 22.257L105.536 21.662L105.221 21.067L104.836 19.702L104.801 18.337L104.836 17.637L104.941 16.272L105.081 15.572L105.571 14.172L105.956 13.472L106.376 12.632L106.936 12.002L107.426 11.512L107.916 11.057L108.441 10.637L109.036 10.252L110.261 9.72697L110.891 9.44697L111.521 9.23697L112.536 8.99197L113.096 8.71197L113.026 7.80197V6.47197L113.061 5.73697V4.72197L113.201 3.67197L113.131 2.44697L113.061 1.57197L113.026 0.976971L113.796 0.556972L114.531 0.521972L115.546 0.591971L115.861 1.11697L115.896 2.34197L116.001 3.53197L115.966 4.26697L116.036 5.45697V6.75197L116.106 7.59197V8.60697L116.141 9.20197V11.092L116.106 12.317L116.071 13.437V14.452L116.106 15.327L116.141 16.027L116.071 16.517L116.176 17.042L116.106 18.162L116.176 19.422V20.752L116.141 21.872L116.071 22.887L116.001 23.797L115.161 24.112L114.321 24.147L113.831 24.252L113.376 23.832ZM110.401 20.682L111.136 19.807L111.486 19.282L111.801 18.757L112.571 16.832L113.061 15.537L113.166 14.907L113.131 13.682L113.166 12.527L112.641 11.897L111.801 12.177L110.821 12.597L110.226 12.947L109.771 13.402L108.931 14.417L108.616 14.977L108.126 16.132L107.986 16.727L107.916 17.602L107.776 18.512L107.811 19.177L107.951 19.842L108.686 20.822L109.281 20.962L110.401 20.682ZM126.072 24.042L125.022 23.867L124.427 23.622L123.867 23.377L122.747 22.607L122.292 22.047L121.767 21.102L121.487 20.192L121.277 18.792L121.312 17.847V17.077L121.522 16.027L121.767 14.662L122.257 13.017L123.027 11.582L123.552 10.987L124.707 10.147L125.302 9.90197L125.967 9.76197L127.297 9.69197L128.767 9.76197L130.097 10.147L131.112 11.022L131.532 11.582L131.847 12.212L132.197 13.647L132.267 14.837L132.197 15.852L132.127 17.042L131.637 17.637L129.642 17.917L128.907 17.882L127.787 17.952H125.477L124.707 17.917L124.322 18.302L124.392 18.827L124.532 19.597L125.197 20.472L126.247 20.997L126.912 21.172L127.577 21.312L128.277 21.417H128.977L129.642 21.382L130.482 21.487L130.692 22.047L130.657 22.817L130.622 23.517L130.307 23.902L129.362 24.042L128.627 24.112L127.542 24.182L126.072 24.042ZM128.557 14.942L129.502 14.907L129.467 14.242L129.117 13.507L128.452 13.052L127.857 12.877L127.122 12.912L126.562 13.087L125.617 13.717L125.197 14.242L125.022 14.907L125.757 14.942H128.557ZM139.962 24.357L139.367 24.182L138.807 23.902L138.282 23.552L137.337 22.537L136.637 21.277L136.392 20.612L136.252 19.912L136.147 18.932L136.007 18.092L136.112 17.217L136.182 16.237L136.287 15.537L136.427 14.837L136.602 14.172L136.812 13.507L137.372 12.142L137.757 11.512L138.212 10.917L139.332 9.90197L140.032 9.58697L141.292 9.44697L142.412 9.79697L142.972 10.077L143.532 10.427L144.092 10.847L144.442 11.442L144.792 11.967L145.072 12.492L145.317 13.402L145.632 14.557L145.772 15.712V16.342L145.842 16.937L145.807 17.777L145.737 18.932L145.702 19.702L145.457 20.437L145.247 21.032L145.002 21.662L144.617 22.362L144.197 23.202L143.322 24.042L142.167 24.427L141.397 24.532L139.962 24.357ZM142.342 20.577L142.622 19.877L142.797 19.142L142.902 17.742V15.712L142.832 14.312L142.622 13.577L142.167 12.877L141.607 12.527L140.872 12.492L140.242 13.192L139.997 13.822L139.787 14.487L139.542 16.062L139.332 17.602L139.297 18.302L139.437 19.702L139.647 20.332L140.032 20.927L141.292 21.452L142.342 20.577Z" fill="white"/>
</svg>
