<svg width="164" height="79" viewBox="0 0 164 79" fill="none" xmlns="http://www.w3.org/2000/svg">
<path d="M1.43042 36.3044L4.34326 29.8958L6.26905 26.6747L8.66271 23.6187L15.5593 17.6132L19.8289 14.6719L29.7552 10.0299L39.4328 6.32471L43.9105 5.04018L52.8544 3.21356L57.3238 2.48531L61.7899 1.94321L70.7171 1.22914L84.1009 0.713221L92.7779 1.1181L96.7627 1.3353L104.971 1.75893L109.186 2.33579L113.17 2.73695L121.599 3.89285L126.044 4.83154L134.224 6.92242L138.192 8.25029L141.924 9.77259L149.366 14.114L153.08 16.747L156.322 19.5849L159.089 22.8097L162.729 30.4454L163.784 38.18L162.05 44.1723L159.605 50.7461L157.203 54.3565L154.335 57.7994L150.77 60.8992L143.183 66.0054L139.163 68.0117L134.914 69.6581L130.668 71.1183L121.244 73.5183L116.297 74.8216L110.176 76.1691L104.532 76.9415L99.8304 77.4941L94.8963 77.8691L90.1981 78.2355L78.2245 78.6968L69.0698 78.865L64.8493 78.6583L60.3928 78.4601L51.4871 77.6934L42.8218 76.5461L38.8431 75.7748L30.8996 73.4895L26.9314 72.1616L23.2003 70.6393L15.9797 67.0301L12.9618 64.9242L6.93936 59.7879L4.40368 56.7368L2.57678 53.4742L1.45592 49.9983L0.836717 44.4682L0.886773 41.1344L1.42971 36.2987L1.43042 36.3044Z" fill="#C8432A"/>
</svg>
