<svg width="60" height="25" viewBox="0 0 60 25" fill="none" xmlns="http://www.w3.org/2000/svg">
<path d="M4.66004 23.482L4.59004 22.502V20.017L4.52004 19.387L4.48504 18.442V17.882L4.45004 16.937V14.907L4.41504 14.242L4.48504 13.052L4.45004 12.037V7.80197L4.48504 6.78697L4.45004 5.56197L4.41504 4.05697V3.07697L3.92504 2.79697H1.96504L1.05504 2.83197L0.285044 2.76197L0.00504399 1.81697V1.08197L0.845044 0.311971L2.14004 0.451971L3.15504 0.381972L3.71504 0.451971L4.66004 0.311971L5.85004 0.381972L7.18004 0.346972L8.02004 0.381972L8.89504 0.276971L9.80504 0.381972L10.715 0.311971L11.765 0.941971L11.835 1.57197L11.765 2.48197L11.52 2.76197L10.68 2.79697H7.81004L7.49504 2.93697V3.60197L7.42504 4.54697L7.53004 5.63197V7.90697L7.56504 8.99197V10.077L7.53004 11.232V12.177L7.49504 12.737L7.56504 13.262V17.042L7.60004 18.232L7.67004 19.072V20.087L7.70504 20.752V21.452L7.67004 22.257L7.70504 22.887L7.56504 23.587L6.76004 23.797H5.53504L4.66004 23.482ZM17.8488 24.462L17.2538 24.322L16.2038 23.867L15.3288 23.097L14.5588 21.767L14.1388 20.262L13.8938 18.792L13.8238 18.057V15.887L13.8588 14.767V13.472L13.9638 12.702L13.9988 12.002V11.302L14.1038 10.392L14.3488 10.182L15.1188 10.147H15.7488L16.6938 10.252L17.0438 10.532L17.1138 11.232L17.0438 11.897L16.9738 12.772L16.9388 13.507L16.9038 14.207L16.8338 14.907L16.7988 15.642V17.077L16.9038 18.477L16.9738 19.177L17.1138 19.877L17.3938 20.892L17.7088 21.277L18.0938 21.487L18.6538 21.522L19.2838 21.207L19.7738 20.192L19.9838 18.932L20.0538 18.337L20.0888 16.867V13.402L20.1238 12.212L20.0888 11.162L20.2288 10.462L21.1038 10.322H21.8038L22.7838 10.497L22.9938 11.162L23.0638 12.317L23.0288 13.052L22.9238 14.067V14.942L22.8888 16.202V17.427L22.7488 18.127V18.652L22.6438 19.387L22.5738 20.157L22.4338 21.137L22.2238 21.767L21.6638 23.027L20.9988 23.762L20.2638 24.077L19.1088 24.427L18.4788 24.497L17.8488 24.462ZM34.5995 23.972L33.2695 23.517L32.6745 23.167L32.1145 22.712L31.6245 22.187L31.2395 21.592L30.9245 20.927L30.5395 19.667L30.3295 18.407L30.1895 17.042L30.1545 16.412V11.057L29.6295 10.742L27.6695 10.777L26.9345 10.602L26.7245 9.65697L26.7595 8.92197L27.5645 7.94197H29.6295L30.2595 7.48697L30.3295 6.33197V5.66697L30.5745 4.82697L31.5195 4.61697L32.5695 4.65197L33.0245 4.89697L33.1645 5.77197V7.17197L33.2695 7.87197H34.8095L35.7545 7.83697H37.5045L37.9595 8.29197L38.0645 9.37697L38.0295 9.97197L37.6095 10.567L37.0845 10.637H36.0345L35.3695 10.672L34.6695 10.742L33.2695 10.812L33.1645 11.022L33.1295 11.932V14.627L32.9895 15.607L33.0945 16.412V17.357L33.1995 18.512L33.7245 19.947L34.9845 20.822L35.6495 21.102L36.3495 21.242L37.3995 21.277L37.8545 21.452L37.9595 21.837L38.0295 22.362L37.9245 23.307L37.7845 24.042L36.8745 24.252H36.0695L34.5995 23.972ZM48.4081 23.972L47.0781 23.517L46.4831 23.167L45.9231 22.712L45.4331 22.187L45.0481 21.592L44.7331 20.927L44.3481 19.667L44.1381 18.407L43.9981 17.042L43.9631 16.412V11.057L43.4381 10.742L41.4781 10.777L40.7431 10.602L40.5331 9.65697L40.5681 8.92197L41.3731 7.94197H43.4381L44.0681 7.48697L44.1381 6.33197V5.66697L44.3831 4.82697L45.3281 4.61697L46.3781 4.65197L46.8331 4.89697L46.9731 5.77197V7.17197L47.0781 7.87197H48.6181L49.5631 7.83697H51.3131L51.7681 8.29197L51.8731 9.37697L51.8381 9.97197L51.4181 10.567L50.8931 10.637H49.8431L49.1781 10.672L48.4781 10.742L47.0781 10.812L46.9731 11.022L46.9381 11.932V14.627L46.7981 15.607L46.9031 16.412V17.357L47.0081 18.512L47.5331 19.947L48.7931 20.822L49.4581 21.102L50.1581 21.242L51.2081 21.277L51.6631 21.452L51.7681 21.837L51.8381 22.362L51.7331 23.307L51.5931 24.042L50.6831 24.252H49.8781L48.4081 23.972ZM56.3972 23.902L55.8722 23.482L55.7672 22.712L55.7322 22.117L55.8372 20.717V19.912L55.8722 18.477L55.9072 17.812V15.922L55.9422 15.292V12.562L55.8722 11.582V10.672L56.2572 10.112L57.2372 10.077H57.9022L58.8472 10.322L58.8822 11.372V16.377L58.8472 17.672L58.7772 18.477L58.8472 18.792L58.7422 19.562L58.7772 20.227L58.7422 20.927L58.7772 21.522V23.307L58.5672 23.797L57.5172 23.937L56.3972 23.902ZM56.1172 6.96197L55.8372 5.98197V4.54697L56.1522 3.42697L57.2372 3.18197H58.5322L59.4072 3.35697L59.6172 4.16197V4.75697L59.4772 6.05197L59.3372 6.96197L58.6372 7.20697H57.7622L56.8522 7.24197L56.1172 6.96197Z" fill="white"/>
</svg>
