<svg width="98" height="63" viewBox="0 0 98 63" fill="none" xmlns="http://www.w3.org/2000/svg">
<path d="M0.0787087 33.6154L1.00112 28.5019L1.74205 25.9042L2.78529 23.4058L6.15229 18.3651L8.33695 15.8431L13.6995 11.6724L19.0335 8.23862L21.557 6.98114L26.6927 5.03913L29.283 4.21092L31.8953 3.52639L37.1647 2.44289L45.1361 1.24599L50.3996 1.03989L52.8208 0.969333L57.805 0.805698L60.4113 0.99856L62.8555 1.06988L68.0672 1.45742L70.8576 1.91552L76.0404 3.03859L78.5949 3.8251L81.0322 4.77563L86.062 7.67744L88.6325 9.48504L90.9457 11.4788L93.024 13.7991L96.1951 19.4671L97.8269 25.3657L97.5588 30.088L96.9387 35.3008L95.9619 38.227L94.6838 41.052L92.9424 43.6541L89.0452 48.0428L86.8894 49.8293L84.5499 51.352L82.1885 52.7311L76.8385 55.1437L74.0356 56.4437L70.5332 57.8478L67.2433 58.7802L64.4908 59.4869L61.5759 60.0706L58.8016 60.6336L51.67 61.7041L46.1936 62.3805L43.6321 62.4732L40.9301 62.5866L35.4826 62.5275L30.1304 62.1606L27.6413 61.8037L22.5757 60.5167L20.0211 59.7302L17.5838 58.7796L12.7816 56.429L10.6974 54.9861L6.4176 51.3868L4.50101 49.1865L2.98279 46.7809L1.86111 44.1687L0.775611 39.9433L0.375469 37.3707L0.0775511 33.6111L0.0787087 33.6154Z" fill="#C8432A"/>
</svg>
