<svg width="38" height="40" viewBox="0 0 38 40" fill="none" xmlns="http://www.w3.org/2000/svg">
<path d="M13.5374 38.4231L10.6644 37.4368L9.24026 36.8333L7.91467 36.1296L5.40571 34.236L4.2159 33.1014L2.47883 30.5685L1.16888 28.1387L0.764302 27.035L0.302186 24.8662L0.15812 23.7914L0.100586 22.7259L0.158581 20.6146L0.505628 17.476L1.07729 15.477L1.35391 14.5602L1.91407 12.6712L2.3702 11.7184L2.73336 10.8112L3.64562 8.9057L4.2808 7.91703L5.6202 6.1146L6.41694 5.25526L7.29422 4.46083L9.65497 2.93824L11.0519 2.20088L12.5234 1.58319L14.156 1.09484L17.8925 0.615234L21.5618 0.74227L24.2922 1.43406L27.2632 2.31963L28.8489 3.05239L30.3351 3.88549L31.6299 4.86449L33.6878 6.87543L34.4509 7.90737L35.0345 8.9752L35.5312 10.0334L36.2409 12.3412L36.6331 13.5549L36.9944 15.0439L37.1081 16.3944L37.1601 17.5147L37.1186 18.6806L37.0837 19.7912L36.773 22.5993L36.4489 24.7373L36.1663 25.7094L35.8768 26.7363L35.1257 28.7712L34.2069 30.7319L33.6703 31.6203L32.2503 33.3583L31.4536 34.2176L30.5763 35.0125L28.5686 36.518L27.4497 37.1187L24.7787 38.2726L23.2386 38.7154L21.6304 38.9833L19.9536 39.0767L17.336 38.9543L15.7766 38.7817L13.536 38.4227L13.5374 38.4231Z" fill="white"/>
<path d="M7.08926 12.5033L8.13064 12.3339H13.4067L14.4481 12.3551H15.2812L16.3226 12.3339H17.2598L18.0579 12.3551L19.238 12.4398L20.661 12.4186L21.3554 12.4821L22.1535 12.4398L23.5764 12.5033L24.2358 12.5245H26.2836L27.29 12.5457L29.5115 12.5033L30.2059 12.5668L30.3796 13.202V13.689L30.2059 14.2606L29.928 14.4088L29.1645 14.43H26.5615L25.2427 14.4088L23.993 14.3665L22.6046 14.3242H20.4873L16.5304 14.303H14.5518L13.7537 14.2818L12.9902 14.2606L12.504 14.3242L11.9488 14.303L11.1157 14.2818L9.93557 14.3242H9.17202L8.09607 14.3453H7.5408L7.15882 14.2818L7.02011 13.8584L7.05468 13.3714L6.88098 13.0326L7.08926 12.5033Z" fill="black"/>
<path d="M7.08926 19.2362L8.13064 19.0668H13.4067L14.4481 19.088H15.2812L16.3226 19.0668H17.2598L18.0579 19.088L19.238 19.1727L20.661 19.1515L21.3554 19.215L22.1535 19.1727L23.5764 19.2362L24.2358 19.2574H26.2836L27.29 19.2786L29.5115 19.2362L30.2059 19.2997L30.3796 19.9349V20.4219L30.2059 20.9935L29.928 21.1417L29.1645 21.1629H26.5615L25.2427 21.1417L23.993 21.0994L22.6046 21.0571H20.4873L16.5304 21.0359H14.5518L13.7537 21.0147L12.9902 20.9935L12.504 21.0571L11.9488 21.0359L11.1157 21.0147L9.93557 21.0571H9.17202L8.09607 21.0782H7.5408L7.15882 21.0147L7.02011 20.5913L7.05468 20.1043L6.88098 19.7655L7.08926 19.2362Z" fill="black"/>
<path d="M7.08926 25.9691L8.13064 25.7997H13.4067L14.4481 25.8209H15.2812L16.3226 25.7997H17.2598L18.0579 25.8209L19.238 25.9056L20.661 25.8844L21.3554 25.9479L22.1535 25.9056L23.5764 25.9691L24.2358 25.9903H26.2836L27.29 26.0115L29.5115 25.9691L30.2059 26.0326L30.3796 26.6678V27.1548L30.2059 27.7264L29.928 27.8746L29.1645 27.8958H26.5615L25.2427 27.8746L23.993 27.8323L22.6046 27.79H20.4873L16.5304 27.7688H14.5518L13.7537 27.7476L12.9902 27.7264L12.504 27.79L11.9488 27.7688L11.1157 27.7476L9.93557 27.79H9.17202L8.09607 27.8111H7.5408L7.15882 27.7476L7.02011 27.3242L7.05468 26.8372L6.88098 26.4984L7.08926 25.9691Z" fill="black"/>
</svg>
