<svg width="38" height="40" viewBox="0 0 38 40" fill="none" xmlns="http://www.w3.org/2000/svg">
<g clip-path="url(#clip0_3403_64)">
<path d="M13.778 38.7486L10.8321 37.7484L9.37188 37.1365L8.01268 36.4229L5.44012 34.5028L4.22014 33.3523L2.43902 30.784L1.09587 28.3202L0.681032 27.201L0.2072 25.0018L0.0594813 23.912L0.000488281 22.8316L0.0599532 20.6907L0.415799 17.5082L1.00195 15.4812L1.28559 14.5515L1.85995 12.6361L2.32764 11.67L2.70001 10.7501L3.6354 8.81784L4.28668 7.81533L5.66004 5.98766L6.47698 5.11629L7.3765 4.31073L9.7971 2.76683L11.2295 2.01914L12.7383 1.3928L14.4122 0.897615L18.2435 0.411293L22.0058 0.540108L24.8054 1.24159L27.8518 2.13955L29.4776 2.88257L31.0016 3.72733L32.3291 4.72005L34.4392 6.75914L35.2217 7.80553L35.8201 8.88832L36.3293 9.9613L37.0571 12.3014L37.4592 13.5322L37.8296 15.042L37.9462 16.4114L37.9995 17.5474L37.9571 18.7296L37.9212 19.8558L37.6026 22.7032L37.2704 24.8711L36.9806 25.8568L36.6838 26.8981L35.9135 28.9614L34.9715 30.9497L34.4213 31.8504L32.9653 33.6128L32.1484 34.4841L31.2489 35.2902L29.1902 36.8168L28.0429 37.4259L25.3042 38.5959L23.7251 39.0449L22.0761 39.3165L20.3569 39.4113L17.6729 39.2871L16.074 39.1121L13.7765 38.7481L13.778 38.7486Z" fill="white"/>
<path d="M32.3117 13.3474V13.5373L32.171 14.3181L31.5419 14.5912H30.1134L28.5158 14.5515H9.49034L7.88667 14.5912H6.4581L5.82899 14.3181L5.68835 13.5373V13.3474L5.82899 12.567L6.4581 12.2935H7.88667L9.4842 12.3332H28.5097L30.1134 12.2935H31.5419L32.171 12.567L32.3117 13.3474Z" fill="black"/>
<path d="M32.3117 19.8166V20.0065L32.171 20.7864L31.5419 21.0599H30.1134L28.5323 21.0212L28.5267 21.0202H9.49364L7.88667 21.0599H6.4581L5.82899 20.7869L5.68835 20.0065V19.8166L5.82899 19.0357L6.4581 18.7627H7.88667L9.48467 18.8024H28.5097L30.1134 18.7627H31.5419L32.171 19.0357L32.3117 19.8166Z" fill="black"/>
<path d="M32.3117 26.2853V26.4752L32.171 27.2556L31.5419 27.5291H30.1134L28.5158 27.4894H9.49034L7.88667 27.5291H6.4581L5.82899 27.2556L5.68835 26.4752V26.2853L5.82899 25.5049L6.4581 25.2314H7.88667L9.4842 25.2711H28.5097L30.1134 25.2314H31.5419L32.171 25.5049L32.3117 26.2853Z" fill="black"/>
</g>
<defs>
<clipPath id="clip0_3403_64">
<rect width="38" height="39" fill="white" transform="translate(0 0.411293)"/>
</clipPath>
</defs>
</svg>
