<svg width="24" height="16" viewBox="0 0 24 16" fill="none" xmlns="http://www.w3.org/2000/svg">
<path d="M0.650904 0.503305L1.69229 0.333923H6.96835L8.00973 0.355096H8.84284L9.88422 0.333923H10.8215L11.6196 0.355096L12.7997 0.439787L14.2226 0.418614L14.917 0.482132L15.7151 0.439787L17.1381 0.503305L17.7975 0.524477H19.8453L20.8517 0.54565L23.0731 0.503305L23.7675 0.566823L23.9412 1.202V1.68897L23.7675 2.26063L23.4897 2.40884L22.7261 2.43001H20.1231L18.8043 2.40884L17.5546 2.3665L16.1663 2.32415H14.0489L10.0921 2.30298H8.11346L7.31534 2.28181L6.5518 2.26063L6.06568 2.32415L5.51041 2.30298L4.67731 2.28181L3.49721 2.32415H2.73367L1.65771 2.34532H1.10245L0.720468 2.28181L0.581756 1.85835L0.61633 1.37138L0.442627 1.03262L0.650904 0.503305Z" fill="white"/>
<path d="M0.650904 7.23621L1.69229 7.06683H6.96835L8.00973 7.088H8.84284L9.88422 7.06683H10.8215L11.6196 7.088L12.7997 7.17269L14.2226 7.15152L14.917 7.21503L15.7151 7.17269L17.1381 7.23621L17.7975 7.25738H19.8453L20.8517 7.27855L23.0731 7.23621L23.7675 7.29972L23.9412 7.9349V8.42187L23.7675 8.99354L23.4897 9.14174L22.7261 9.16292H20.1231L18.8043 9.14174L17.5546 9.0994L16.1663 9.05705H14.0489L10.0921 9.03588H8.11346L7.31534 9.01471L6.5518 8.99354L6.06568 9.05705L5.51041 9.03588L4.67731 9.01471L3.49721 9.05705H2.73367L1.65771 9.07823H1.10245L0.720468 9.01471L0.581756 8.59126L0.61633 8.10428L0.442627 7.76552L0.650904 7.23621Z" fill="white"/>
<path d="M0.650904 13.9691L1.69229 13.7997H6.96835L8.00973 13.8209H8.84284L9.88422 13.7997H10.8215L11.6196 13.8209L12.7997 13.9056L14.2226 13.8844L14.917 13.9479L15.7151 13.9056L17.1381 13.9691L17.7975 13.9903H19.8453L20.8517 14.0115L23.0731 13.9691L23.7675 14.0326L23.9412 14.6678V15.1548L23.7675 15.7264L23.4897 15.8746L22.7261 15.8958H20.1231L18.8043 15.8746L17.5546 15.8323L16.1663 15.79H14.0489L10.0921 15.7688H8.11346L7.31534 15.7476L6.5518 15.7264L6.06568 15.79L5.51041 15.7688L4.67731 15.7476L3.49721 15.79H2.73367L1.65771 15.8111H1.10245L0.720468 15.7476L0.581756 15.3242L0.61633 14.8372L0.442627 14.4984L0.650904 13.9691Z" fill="white"/>
</svg>
