<svg width="118" height="22" viewBox="0 0 118 22" fill="none" xmlns="http://www.w3.org/2000/svg">
<g clip-path="url(#clip0_3404_81)">
<path d="M6.06 21.1952L5.34 21.0752L4.92 20.9252L4.35 20.7152L3.78 20.3852L3.15 20.1152L2.73 19.8152L1.86 18.9752L1.44 18.4352L0.84 17.2952L0.6 16.7252L0.36 15.7952L0.33 15.4052L0.24 14.8952L0.18 14.1452L0.15 13.4852L0.12 12.7652L0 11.8952L0.12 11.1452L0.15 10.3952V9.88517L0.21 8.74517L0.33 7.54517L0.63 6.37517L0.78 5.77517L1.2 4.48517L1.83 3.31517L2.19 2.83517L2.58 2.41517L3.03 2.05517L3.51 1.72517L4.41 1.33517L5.31 1.18517L5.85 1.12517L6.42 1.09517L7.14 1.27517L7.32 2.02517V2.65517L7.17 3.43517L6.75 3.58517L5.82 3.70517L4.59 4.21517L4.14 4.66517L3.78 5.17517L3.21 6.25517L3.06 6.79517L2.94 7.33517L2.73 8.44517L2.7 8.98517V9.55517L2.67 10.5452V13.3652L2.7 14.2652L2.76 15.2852L2.88 15.8252L3.21 16.4852L3.48 17.0552L4.23 17.7752L4.74 18.1052L5.88 18.6452L6.96 18.7052L7.35 19.5152V20.1152L7.41 20.8952L7.26 21.1652L6.81 21.2852L6.06 21.1952Z" fill="white"/>
<path d="M13.47 21.1952L13.29 20.7752L13.23 20.0252L13.2 19.2752V18.3152L13.17 17.7752L13.23 17.0552L13.2 16.3352L13.32 15.5852L13.26 15.1652V13.9652L13.32 12.7952L13.26 11.9552L13.29 11.2952L13.32 10.3352V9.31517L13.35 8.29517V7.57517L13.32 6.73517L13.35 5.47517L13.41 4.42517V3.79517L13.35 3.31517V2.59517L13.32 1.81517L13.56 1.30517L14.01 1.24517L14.55 1.18517L15.06 1.15517L15.45 1.12517L15.87 1.30517L15.99 2.14517V6.70517L15.93 7.69517L15.87 8.77517V9.40517L15.96 9.52517L16.62 9.58517L17.82 9.61517L18.39 9.58517H18.99L19.68 9.31517L19.71 8.89517V7.93517L19.74 7.42517V6.43517L19.8 5.62517L19.68 4.87517L19.65 3.46517L19.68 2.14517L19.83 1.33517L20.28 1.18517L20.85 1.24517L21.21 1.30517L21.63 1.27517L22.17 1.36517L22.23 2.32517V9.97517L22.35 10.5452L22.23 11.2052L22.2 12.1652L22.29 13.0652L22.35 13.6352V14.1152L22.29 14.7152L22.32 15.3152V15.7952L22.35 16.1552L22.23 16.9952L22.2 17.6252L22.23 18.7652L22.2 19.3052L22.23 20.3852L21.87 21.1352L20.34 21.2852L19.95 21.2552L19.71 20.8052L19.68 19.9052V14.0852L19.71 13.3052V12.5552L19.05 12.1352L17.82 12.1652L16.59 12.1352L15.87 12.4052V15.0152L15.84 16.0352V16.6352L15.87 17.3852L15.75 18.3752V19.3952L15.72 20.0252L15.75 20.8652L15.51 21.1652H14.82L13.98 21.3152L13.47 21.1952Z" fill="white"/>
<path d="M29.49 21.1952L29.25 20.2952V15.7352L29.28 14.8352V14.1152L29.25 13.2152V12.4052L29.28 11.7152L29.4 10.6952L29.37 9.46517L29.46 8.86517L29.4 8.17517L29.49 6.94517L29.52 6.37517V4.60517L29.55 3.73517L29.49 1.81517L29.58 1.21517L30.48 1.06517H31.17L31.98 1.21517L32.19 1.45517L32.22 2.11517V4.36517L32.19 5.50517L32.13 6.58517L32.07 7.78517V9.61517L32.04 13.0352V14.7452L32.01 15.4352L31.98 16.0952L32.07 16.5152L32.04 16.9952L32.01 17.7152L32.07 18.7352V19.3952L32.1 20.3252V20.8052L32.01 21.1352L31.41 21.2552L30.72 21.2252L30.24 21.3752L29.49 21.1952Z" fill="white"/>
<path d="M47.7 21.3752L47.52 21.0752L47.49 20.3552V19.7552L48.06 19.0052L49.02 19.1252L50.13 19.0052L50.7 18.8552L51.3 18.6452L51.87 18.2252L52.26 17.7152L52.53 16.4852L52.17 15.3152L51.93 14.7752L51.66 14.2352L51.12 13.2752L50.85 12.8252L50.31 11.8952L49.77 10.9352L49.47 10.4552L48.66 8.95517L48.36 8.47517L48.09 7.96517L47.85 7.45517L47.64 6.91517L47.37 5.98517L47.22 5.53517L47.25 4.99517L47.34 4.03517L47.7 3.01517L48.3 2.14517L49.2 1.51517L49.74 1.33517L50.91 1.09517L51.51 1.06517H52.8L53.61 1.24517L53.85 2.11517L53.67 3.01517L52.77 3.19517L51.51 3.22517L51 3.37517L50.13 3.88517L49.86 4.33517L49.74 5.32517L50.1 6.28517L50.31 6.76517L50.88 7.63517L51.39 8.56517L51.69 9.04517L52.17 9.85517L52.56 10.6352L52.83 11.1152L53.1 11.6252L53.37 12.1052L53.94 13.0652L54.18 13.5752L54.42 14.0552L54.75 14.8652L55.05 15.7352L55.14 16.4252L55.05 17.6852L54.87 18.2552L54.48 19.1552L53.97 19.9352L53.58 20.3252L53.13 20.6852L52.65 20.9552L51.6 21.3452L50.94 21.3752L50.25 21.5252H48.45L47.7 21.3752Z" fill="white"/>
<path d="M61.11 21.1952L60.87 20.2952V15.7352L60.9 14.8352V14.1152L60.87 13.2152V12.4052L60.9 11.7152L61.02 10.6952L60.99 9.46517L61.08 8.86517L61.02 8.17517L61.11 6.94517L61.14 6.37517V4.60517L61.17 3.73517L61.11 1.81517L61.2 1.21517L62.1 1.06517H62.79L63.6 1.21517L63.81 1.45517L63.84 2.11517V4.36517L63.81 5.50517L63.75 6.58517L63.69 7.78517V9.61517L63.66 13.0352V14.7452L63.63 15.4352L63.6 16.0952L63.69 16.5152L63.66 16.9952L63.63 17.7152L63.69 18.7352V19.3952L63.72 20.3252V20.8052L63.63 21.1352L63.03 21.2552L62.34 21.2252L61.86 21.3752L61.11 21.1952Z" fill="white"/>
<path d="M69.9 21.2552L69.39 21.2852L68.76 21.0452L68.85 20.3252L68.97 19.8152L69.12 18.8852L69.39 17.9252L69.51 17.3252L69.63 16.6952L69.93 15.3752L70.14 14.3852L70.23 14.0252L70.35 13.3352L70.5 12.7052L70.95 10.9052L71.07 9.85517L71.34 8.83517L71.46 8.26517L71.58 7.66517L71.76 6.94517L71.97 6.19517L72.12 5.50517L72.45 4.33517L72.6 3.79517L72.69 3.28517L72.93 2.02517L73.2 1.12517L73.89 0.975166L74.46 1.09517L75.06 1.96517L75.18 2.56517L75.48 3.70517L75.6 4.27517L75.9 5.50517L76.02 6.16517L76.32 7.39517L76.5 7.96517L76.8 9.16517L77.28 11.0252L77.58 12.2552L78.57 15.9452L79.02 17.5952L79.17 18.1352L79.5 19.2152L79.68 19.8152L79.92 20.6852L79.8 21.1652L79.59 21.3152L78.84 21.2552L77.67 21.2252L77.04 20.6852L76.92 20.0252L76.68 19.0952L76.53 18.4352L76.32 17.6252L76.05 17.4752L75.12 17.4452H74.16L73.59 17.3252L72.87 17.4152L72.27 17.3852L71.88 18.0752L71.76 18.6752L71.64 19.2452L71.55 19.8452L71.43 20.4452L71.07 21.1952L70.59 21.3152L69.9 21.2552ZM75.15 15.1952L75.66 14.9252L75.51 14.1752L75.06 12.4952L74.73 11.3552L74.28 9.55517L74.1 8.92517L73.71 8.89517L73.56 9.49517L73.35 10.7252L73.11 11.9552L72.81 13.1852L72.57 14.2952L72.45 15.0452L73.05 15.1952H75.15Z" fill="white"/>
<path d="M84.9 21.2552L84.72 21.0152L84.78 20.4752L84.81 19.4252L84.84 17.1752L84.87 16.1852L84.9 15.3152V14.5352L84.93 13.6352V12.1952L84.96 11.5352L85.02 10.6952L84.96 10.1852L85.05 9.52517L85.08 8.86517V8.23517L85.11 7.33517L85.17 6.88517V6.43517L85.2 5.98517L85.11 5.14517L85.23 3.82517V2.14517L85.38 1.42517L85.68 1.27517L86.16 1.15517L86.85 1.48517L87.84 2.80517L88.89 4.24517L89.25 4.75517L90 5.80517L90.75 6.79517L91.47 7.75517L92.52 9.10517L92.97 8.86517L94.62 6.37517L95.31 5.38517L97.02 2.86517L97.59 2.08517L98.01 1.48517L98.55 1.30517H98.85L99.36 1.39517L99.63 2.11517V3.07517L99.57 4.09517V4.87517L99.54 5.44517V6.01517L99.51 6.37517L99.54 7.03517V7.66517L99.48 8.32517V12.0752L99.45 15.1052V16.3652L99.42 17.3852L99.45 18.1352V19.6652L99.42 20.2952L99.36 20.9552L98.91 21.1652L98.49 21.1952L98.04 21.2852L97.71 21.2552L97.26 21.2252L96.84 21.0152L96.81 20.2052L96.84 18.9452L96.81 18.0452V17.0252L96.84 15.7952L96.9 14.6852L96.93 14.0252V13.3652L96.96 12.3752L97.05 11.9852L97.02 11.2352L97.05 10.5452V8.53517L97.02 7.48517L96.66 7.57517L95.97 8.56517L95.28 9.52517L94.65 10.4852L93.96 11.4152L93.63 11.8652L93.27 12.3452L92.76 12.7952L92.37 12.6752L91.74 12.0752L90.99 11.1752L90.6 10.6952L89.79 9.67517L88.95 8.65517L88.59 8.14517L88.08 7.39517L87.78 7.24517L87.75 7.54517L87.72 8.02517L87.69 8.53517L87.66 9.31517L87.63 9.79517V10.9652L87.6 12.3152V13.1852L87.51 13.8152V20.3852L87.33 21.1652L86.64 21.3752H85.59L84.9 21.2552Z" fill="white"/>
<path d="M110.58 21.6752L109.56 21.3152L109.05 21.0752L108.57 20.7752L107.64 19.9052L107.19 19.3652L106.5 18.1052L105.96 16.8752L105.78 16.3052L105.54 15.1652L105.45 14.5952L105.39 14.0252L105.33 12.8852V11.1752L105.45 10.0652L105.51 9.55517L105.63 8.50517L105.75 7.96517L105.84 7.45517L106.08 6.37517L106.26 5.80517L106.65 4.75517L106.89 4.24517L107.16 3.76517L107.91 2.80517L108.36 2.32517L108.84 1.90517L109.38 1.54517L110.64 1.06517L111.9 0.915169L112.86 1.12517L113.91 1.42517L114.48 1.72517L115.02 2.08517L115.5 2.53517L116.28 3.49517L116.58 4.00517L116.82 4.54517L117.03 5.08517L117.36 6.28517L117.54 6.91517L117.72 7.69517L117.81 8.41517L117.87 9.01517L117.9 9.64517L117.93 10.2452V11.7752L117.9 12.9452L117.84 13.4852L117.78 14.0552L117.6 15.1952L117.36 16.3052L117.21 16.8152L116.79 17.8352L116.55 18.3452L116.28 18.8252L115.65 19.7552L115.29 20.1452L114.42 20.9252L113.91 21.2552L113.37 21.4952L112.8 21.6452L111.9 21.7352H111.36L110.58 21.6752ZM112.41 19.3052L113.13 18.8252L113.64 18.4052L114.27 17.3552L114.54 16.8152L115.02 15.7352L115.2 14.5952L115.35 13.4852L115.41 12.8252L115.47 12.1952L115.5 11.5352L115.47 10.2752L115.41 9.67517L115.23 8.35517L115.14 7.66517L114.87 6.31517L114.63 5.68517L113.91 4.66517L113.52 4.24517L112.83 3.70517L111.87 3.52517L110.7 3.79517L110.22 4.06517L109.56 4.81517L109.02 5.77517L108.81 6.34517L108.51 7.24517L108.27 8.17517L108.18 8.83517V9.67517L108.06 10.2452L108.03 11.3852L107.94 12.5852V13.7552L108.09 14.8952L108.18 15.4352L108.3 15.9752L108.69 17.1452L109.05 17.7452L110.04 18.7652L111.15 19.3352L111.66 19.4252L112.41 19.3052Z" fill="white"/>
</g>
<defs>
<clipPath id="clip0_3404_81">
<rect width="117.93" height="20.82" fill="white" transform="translate(0 0.915169)"/>
</clipPath>
</defs>
</svg>
