<svg width="104" height="22" viewBox="0 0 104 22" fill="none" xmlns="http://www.w3.org/2000/svg">
<g clip-path="url(#clip0_3404_91)">
<path d="M6.34003 21.1952L5.62003 21.0752L5.20003 20.9252L4.63003 20.7152L4.06003 20.3852L3.43003 20.1152L3.01003 19.8152L2.14003 18.9752L1.72003 18.4352L1.12003 17.2952L0.880029 16.7252L0.640029 15.7952L0.610029 15.4052L0.520029 14.8952L0.460029 14.1452L0.430029 13.4852L0.400029 12.7652L0.280029 11.8952L0.400029 11.1452L0.430029 10.3952V9.88517L0.490029 8.74517L0.610029 7.54517L0.910029 6.37517L1.06003 5.77517L1.48003 4.48517L2.11003 3.31517L2.47003 2.83517L2.86003 2.41517L3.31003 2.05517L3.79003 1.72517L4.69003 1.33517L5.59003 1.18517L6.13003 1.12517L6.70003 1.09517L7.42003 1.27517L7.60003 2.02517V2.65517L7.45003 3.43517L7.03003 3.58517L6.10003 3.70517L4.87003 4.21517L4.42003 4.66517L4.06003 5.17517L3.49003 6.25517L3.34003 6.79517L3.22003 7.33517L3.01003 8.44517L2.98003 8.98517V9.55517L2.95003 10.5452V13.3652L2.98003 14.2652L3.04003 15.2852L3.16003 15.8252L3.49003 16.4852L3.76003 17.0552L4.51003 17.7752L5.02003 18.1052L6.16003 18.6452L7.24003 18.7052L7.63003 19.5152V20.1152L7.69003 20.8952L7.54003 21.1652L7.09003 21.2852L6.34003 21.1952Z" fill="white"/>
<path d="M17.5 21.6752L16.48 21.3152L15.97 21.0752L15.49 20.7752L14.56 19.9052L14.11 19.3652L13.42 18.1052L12.88 16.8752L12.7 16.3052L12.46 15.1652L12.37 14.5952L12.31 14.0252L12.25 12.8852V11.1752L12.37 10.0652L12.43 9.55517L12.55 8.50517L12.67 7.96517L12.76 7.45517L13 6.37517L13.18 5.80517L13.57 4.75517L13.81 4.24517L14.08 3.76517L14.83 2.80517L15.28 2.32517L15.76 1.90517L16.3 1.54517L17.56 1.06517L18.82 0.915169L19.78 1.12517L20.83 1.42517L21.4 1.72517L21.94 2.08517L22.42 2.53517L23.2 3.49517L23.5 4.00517L23.74 4.54517L23.95 5.08517L24.28 6.28517L24.46 6.91517L24.64 7.69517L24.73 8.41517L24.79 9.01517L24.82 9.64517L24.85 10.2452V11.7752L24.82 12.9452L24.76 13.4852L24.7 14.0552L24.52 15.1952L24.28 16.3052L24.13 16.8152L23.71 17.8352L23.47 18.3452L23.2 18.8252L22.57 19.7552L22.21 20.1452L21.34 20.9252L20.83 21.2552L20.29 21.4952L19.72 21.6452L18.82 21.7352H18.28L17.5 21.6752ZM19.33 19.3052L20.05 18.8252L20.56 18.4052L21.19 17.3552L21.46 16.8152L21.94 15.7352L22.12 14.5952L22.27 13.4852L22.33 12.8252L22.39 12.1952L22.42 11.5352L22.39 10.2752L22.33 9.67517L22.15 8.35517L22.06 7.66517L21.79 6.31517L21.55 5.68517L20.83 4.66517L20.44 4.24517L19.75 3.70517L18.79 3.52517L17.62 3.79517L17.14 4.06517L16.48 4.81517L15.94 5.77517L15.73 6.34517L15.43 7.24517L15.19 8.17517L15.1 8.83517V9.67517L14.98 10.2452L14.95 11.3852L14.86 12.5852V13.7552L15.01 14.8952L15.1 15.4352L15.22 15.9752L15.61 17.1452L15.97 17.7452L16.96 18.7652L18.07 19.3352L18.58 19.4252L19.33 19.3052Z" fill="white"/>
<path d="M38.95 21.1052L38.89 20.2352L38.86 19.6652V18.5552L38.92 17.6252L38.86 16.9652V15.3752L38.92 14.1752L38.95 13.6652L38.98 12.6152L39.01 12.1052V10.3952L38.44 9.76517L37.93 9.40516L37.03 8.80517L36.58 8.44517L34.42 7.03517L33.76 6.64517L33.52 6.82517L33.49 7.69517L33.52 9.58517V10.8452L33.46 11.7152L33.49 12.6152L33.52 13.2752L33.46 14.3552L33.4 15.3752L33.37 15.9752L33.34 17.1452V18.8252L33.37 19.7552V20.5352L33.28 20.9852L33.13 21.1952L32.68 21.2252L31.99 21.2552L31.06 21.1352L30.73 21.1052L30.61 20.4752V19.9352L30.64 18.8252L30.67 18.2852V17.1752L30.7 16.6352V14.9852L30.73 13.8752L30.79 12.7052V12.0752L30.82 10.8752L30.91 10.3052L30.85 9.82516L30.91 8.08517V6.43517L30.88 5.71517L30.94 4.93517V4.03517L30.97 2.38517V1.66517L31.15 1.27517L31.57 1.18517L31.96 1.21517L32.5 1.18517L33.13 1.21517L33.46 1.27517L33.52 2.08517V2.74517L34.06 3.76517L35.11 4.48517L36.73 5.56517L37.24 5.89517L38.29 6.61517L39.01 6.91517L39.1 6.46517L39.04 6.04517L39.1 5.77517L39.07 5.35517L39.1 4.72517L39.04 4.39517L39.13 3.70517V2.35517L39.19 1.63517L39.55 1.39517L40.03 1.24517L40.36 1.27517L40.66 1.21517L41.17 1.33517L41.62 1.69517L41.71 2.50517V3.64517L41.74 4.78517V5.47517L41.83 5.92517L41.71 6.88517L41.68 7.51517L41.71 8.14517V9.34517L41.68 14.0252V15.0752L41.65 16.0052L41.56 16.9052V17.9852L41.5 19.0952L41.47 19.8752L41.53 20.3852L41.44 20.8952L41.08 21.0752L39.94 21.3152L39.4 21.3452L38.95 21.1052Z" fill="white"/>
<path d="M50.65 21.1352L50.59 20.2952V18.1652L50.53 17.6252L50.5 16.8152V16.3352L50.47 15.5252L50.44 13.2152L50.5 12.1952L50.47 11.3252V7.69517L50.5 6.79517L50.47 5.77517L50.44 4.48517V3.64517L50.02 3.40517H48.34L47.56 3.43517L46.9 3.37517L46.66 2.56517V1.93517L47.38 1.27517L48.49 1.39517L49.36 1.33517L49.84 1.39517L50.65 1.27517L51.67 1.33517L52.81 1.30517L53.53 1.33517L54.28 1.24517L55.06 1.33517L55.84 1.27517L56.74 1.81517L56.8 2.35517L56.74 3.13517L56.53 3.37517L55.81 3.40517H53.35L53.08 3.52517L53.05 4.12517L53.02 4.90517L53.11 5.83517V7.78517L53.14 8.71517V9.64517L53.11 10.6352V11.4452L53.08 11.9252L53.14 12.3752V15.6152L53.17 16.6352L53.23 17.3552V18.2252L53.26 18.7952V19.3952L53.23 20.0852L53.26 20.6252L53.14 21.2252L52.45 21.4052H51.4L50.65 21.1352Z" fill="white"/>
<path d="M60.19 21.2552L59.68 21.2852L59.05 21.0452L59.14 20.3252L59.26 19.8152L59.41 18.8852L59.68 17.9252L59.8 17.3252L59.92 16.6952L60.22 15.3752L60.43 14.3852L60.5201 14.0252L60.64 13.3352L60.79 12.7052L61.24 10.9052L61.3601 9.85517L61.63 8.83517L61.75 8.26517L61.87 7.66517L62.05 6.94517L62.26 6.19517L62.41 5.50517L62.74 4.33517L62.89 3.79517L62.98 3.28517L63.22 2.02517L63.49 1.12517L64.18 0.975166L64.75 1.09517L65.35 1.96517L65.4701 2.56517L65.77 3.70517L65.89 4.27517L66.1901 5.50517L66.31 6.16517L66.6101 7.39517L66.7901 7.96517L67.09 9.16517L67.57 11.0252L67.87 12.2552L68.8601 15.9452L69.31 17.5952L69.46 18.1352L69.7901 19.2152L69.9701 19.8152L70.21 20.6852L70.09 21.1652L69.88 21.3152L69.13 21.2552L67.96 21.2252L67.3301 20.6852L67.21 20.0252L66.9701 19.0952L66.82 18.4352L66.6101 17.6252L66.34 17.4752L65.41 17.4452H64.45L63.88 17.3252L63.16 17.4152L62.56 17.3852L62.17 18.0752L62.05 18.6752L61.93 19.2452L61.84 19.8452L61.72 20.4452L61.3601 21.1952L60.88 21.3152L60.19 21.2552ZM65.4401 15.1952L65.95 14.9252L65.8 14.1752L65.35 12.4952L65.02 11.3552L64.57 9.55517L64.39 8.92517L64 8.89517L63.85 9.49517L63.64 10.7252L63.4 11.9552L63.1 13.1852L62.8601 14.2952L62.74 15.0452L63.34 15.1952H65.4401Z" fill="white"/>
<path d="M75.73 21.1352L75.67 20.2952V18.1652L75.61 17.6252L75.58 16.8152V16.3352L75.55 15.5252L75.52 13.2152L75.58 12.1952L75.55 11.3252V7.69517L75.58 6.79517L75.55 5.77517L75.52 4.48517V3.64517L75.1 3.40517H73.42L72.64 3.43517L71.98 3.37517L71.74 2.56517V1.93517L72.46 1.27517L73.57 1.39517L74.44 1.33517L74.92 1.39517L75.73 1.27517L76.75 1.33517L77.89 1.30517L78.61 1.33517L79.36 1.24517L80.14 1.33517L80.92 1.27517L81.82 1.81517L81.88 2.35517L81.82 3.13517L81.61 3.37517L80.89 3.40517H78.43L78.16 3.52517L78.13 4.12517L78.1 4.90517L78.19 5.83517V7.78517L78.22 8.71517V9.64517L78.19 10.6352V11.4452L78.16 11.9252L78.22 12.3752V15.6152L78.25 16.6352L78.31 17.3552V18.2252L78.34 18.7952V19.3952L78.31 20.0852L78.34 20.6252L78.22 21.2252L77.53 21.4052H76.48L75.73 21.1352Z" fill="white"/>
<path d="M89.53 21.1352L89.47 20.2952V18.1652L89.41 17.6252L89.38 16.8152V16.3352L89.35 15.5252L89.32 13.2152L89.38 12.1952L89.35 11.3252V7.69517L89.38 6.79517L89.35 5.77517L89.32 4.48517V3.64517L88.9 3.40517H87.22L86.44 3.43517L85.78 3.37517L85.54 2.56517V1.93517L86.26 1.27517L87.37 1.39517L88.24 1.33517L88.72 1.39517L89.53 1.27517L90.55 1.33517L91.69 1.30517L92.41 1.33517L93.16 1.24517L93.94 1.33517L94.72 1.27517L95.62 1.81517L95.68 2.35517L95.62 3.13517L95.41 3.37517L94.69 3.40517H92.23L91.96 3.52517L91.93 4.12517L91.9 4.90517L91.99 5.83517V7.78517L92.02 8.71517V9.64517L91.99 10.6352V11.4452L91.96 11.9252L92.02 12.3752V15.6152L92.05 16.6352L92.11 17.3552V18.2252L92.14 18.7952V19.3952L92.11 20.0852L92.14 20.6252L92.02 21.2252L91.33 21.4052H90.28L89.53 21.1352Z" fill="white"/>
<path d="M100.75 21.1952L100.51 20.2952V15.7352L100.54 14.8352V14.1152L100.51 13.2152V12.4052L100.54 11.7152L100.66 10.6952L100.63 9.46517L100.72 8.86517L100.66 8.17517L100.75 6.94517L100.78 6.37517V4.60517L100.81 3.73517L100.75 1.81517L100.84 1.21517L101.74 1.06517H102.43L103.24 1.21517L103.45 1.45517L103.48 2.11517V4.36517L103.45 5.50517L103.39 6.58517L103.33 7.78517V9.61517L103.3 13.0352V14.7452L103.27 15.4352L103.24 16.0952L103.33 16.5152L103.3 16.9952L103.27 17.7152L103.33 18.7352V19.3952L103.36 20.3252V20.8052L103.27 21.1352L102.67 21.2552L101.98 21.2252L101.5 21.3752L100.75 21.1952Z" fill="white"/>
</g>
<defs>
<clipPath id="clip0_3404_91">
<rect width="103.2" height="20.82" fill="white" transform="translate(0.280029 0.915169)"/>
</clipPath>
</defs>
</svg>
