<svg width="185" height="70" viewBox="0 0 185 70" fill="none" xmlns="http://www.w3.org/2000/svg">
<g clip-path="url(#clip0_3512_5)">
<path d="M0 41.8432L1.0145 36.1757L2.04619 33.2716L3.66252 30.4378L9.33683 24.5994L13.1197 21.635L22.7145 16.5503L32.3608 12.2695L36.9862 10.6517L46.4778 8.0189L51.2924 6.86329L56.1586 5.85841L66.0284 4.15011L81.0224 2.04991L91.0126 1.3063L95.6037 0.984737L105.061 0.311466L110.047 0.261222L114.707 0.100441L124.68 0.0100021L130.062 0.231076L140.087 0.944541L145.056 1.54747L149.836 2.34133L159.827 5.00426L164.985 6.72261L169.679 8.66203L173.978 10.9833L180.839 16.8518L184.794 23.1223L184.966 28.2974L184.536 34.0453L183.109 37.3313L181.08 40.5368L178.139 43.5515L171.364 48.7266L167.53 50.8871L163.3 52.7763L159.001 54.5147L149.166 57.6801L144.025 59.3784L137.559 61.2575L131.438 62.604L126.297 63.6491L120.829 64.5736L115.636 65.4679L102.224 67.3471L91.9068 68.6333L87.0406 68.985L81.9165 69.3769L71.548 69.8492L61.317 69.9799L56.5369 69.8392L46.7186 68.9348L41.7492 68.3318L36.969 67.538L27.4947 65.4478L23.3163 64.0812L14.6501 60.5842L10.678 58.3735L7.44539 55.9015L4.93494 53.1682L2.25253 48.6663L1.11767 45.9029L0 41.8331L0 41.8432Z" fill="#C8432A"/>
</g>
<defs>
<clipPath id="clip0_3512_5">
<rect width="185" height="70" fill="white"/>
</clipPath>
</defs>
</svg>
