<svg width="138" height="70" viewBox="0 0 138 70" fill="none" xmlns="http://www.w3.org/2000/svg">
<g clip-path="url(#clip0_3418_103)">
<path d="M0.380005 41.8432L1.13128 36.1757L1.89529 33.2716L3.09225 30.4378L7.29431 24.5994L10.0957 21.635L17.201 16.5503L24.3445 12.2695L27.7698 10.6517L34.7987 8.0189L38.3641 6.86329L41.9677 5.85841L49.2767 4.15011L60.3804 2.04991L67.7786 1.3063L71.1784 0.984737L78.1818 0.311466L81.8746 0.261222L85.3253 0.100441L92.7108 0.0100021L96.6964 0.231076L104.12 0.944541L107.8 1.54747L111.34 2.34133L118.738 5.00426L122.558 6.72261L126.034 8.66203L129.218 10.9833L134.298 16.8518L137.227 23.1223L137.355 28.2974L137.036 34.0453L135.979 37.3313L134.477 40.5368L132.299 43.5515L127.282 48.7266L124.443 50.8871L121.31 52.7763L118.127 54.5147L110.843 57.6801L107.036 59.3784L102.248 61.2575L97.7151 62.604L93.9077 63.6491L89.8585 64.5736L86.013 65.4679L76.0808 67.3471L68.4407 68.6333L64.8371 68.985L61.0425 69.3769L53.3642 69.8492L45.7878 69.9798L42.2478 69.8392L34.977 68.9348L31.297 68.3318L27.7571 67.538L20.7409 65.4478L17.6467 64.0812L11.229 60.5842L8.28752 58.3735L5.89362 55.9015L4.03453 53.1682L2.0481 48.6663L1.20768 45.9029L0.380005 41.8331L0.380005 41.8432Z" fill="#C8432A"/>
</g>
<defs>
<clipPath id="clip0_3418_103">
<rect width="137" height="70" fill="white" transform="translate(0.380005)"/>
</clipPath>
</defs>
</svg>
