<svg width="30" height="30" viewBox="0 0 30 30" fill="none" xmlns="http://www.w3.org/2000/svg">
<path d="M11.1958 29.184L8.98057 28.4235L7.88253 27.9582L6.86045 27.4156L4.92593 25.9555L4.00854 25.0807L2.66918 23.1278L1.65915 21.2543L1.3472 20.4033L0.990892 18.731L0.879811 17.9023L0.835449 17.0808L0.880166 15.4529L1.14775 13.0329L1.58853 11.4916L1.80182 10.7846L2.23372 9.32815L2.58542 8.59352L2.86543 7.89403L3.56883 6.42478L4.05858 5.66247L5.09131 4.27272L5.70563 3.61013L6.38205 2.99759L8.20229 1.82361L9.27939 1.25507L10.414 0.778808L11.6728 0.402268L14.5538 0.0324707L17.383 0.130421L19.4882 0.663823L21.779 1.34663L23.0016 1.91162L24.1476 2.55398L25.1459 3.30883L26.7326 4.85935L27.321 5.65502L27.771 6.47837L28.154 7.29427L28.7012 9.07369L29.0036 10.0095L29.2822 11.1576L29.3698 12.1989L29.4099 13.0627L29.378 13.9616L29.351 14.818L29.1115 16.9832L28.8616 18.6316L28.6437 19.3812L28.4205 20.1729L27.8413 21.7419L27.1329 23.2537L26.7191 23.9387L25.6243 25.2788L25.01 25.9413L24.3335 26.5542L22.7855 27.7151L21.9228 28.1782L19.8633 29.0679L18.6759 29.4093L17.4359 29.6159L16.143 29.6879L14.1247 29.5935L12.9224 29.4605L11.1947 29.1836L11.1958 29.184Z" fill="#C8432A"/>
<g clip-path="url(#clip0_3443_165)">
<path d="M19.6955 14.9335L19.6524 14.6586L19.6237 14.1527L19.5518 13.8632L19.365 13.3428L19.1358 12.7784L18.8197 12.2001L18.4892 11.7232L18.1451 11.3179L17.9295 11.1298L17.6996 10.9423L17.1974 10.6384L16.91 10.5515L16.3647 10.4068L16.0917 10.3489L15.6326 10.3055H15.3883L14.7424 10.2766L14.4413 10.3055L14.1252 10.3923L13.8235 10.4502L13.5655 10.566L13.0914 10.8265L12.661 11.1443L12.2587 11.5206L12.0725 11.7377L11.8858 11.9686L11.5409 12.4606L11.2111 13.0244L11.0531 13.3284L10.8519 13.8777L10.7226 14.3836L10.5933 14.948L10.5502 15.5263V15.8013L10.5645 16.0611L10.6076 16.3216L10.6651 16.5821L10.8232 17.1314L11.0387 17.6229L11.2973 18.115L11.4978 18.3748L11.9432 18.8235L12.1868 19.0261L12.4455 19.1991L13.1201 19.4886L13.4075 19.6043L13.881 19.7201L14.2545 19.7925L14.57 19.8208L14.7568 19.8642L15.0873 19.8787H15.3452L15.7906 19.8642L16.5228 19.7635L16.9532 19.5609L17.2405 19.4162L17.5135 19.2425L17.9726 18.9103L18.1738 18.7511L18.5036 18.3603L18.6617 18.1584L18.8053 17.9557L19.0783 17.536L19.3076 17.0012L19.4225 16.7117L19.5231 16.4085L19.6668 15.7868L19.6955 15.4829L19.6668 15.0776L19.6955 14.9335ZM15.7332 11.3758L16.221 11.4916L16.4509 11.6074L16.6664 11.7377L17.1112 12.0699L17.3124 12.258L17.6709 12.6916L17.829 12.9231L17.9583 13.1547L18.2169 13.6316L18.3318 13.8777L18.4892 14.2967L18.5036 14.8033V15.4539L18.4605 16.0032L18.2744 16.4664L18.1738 16.7262L18.0157 17.0157L17.9008 17.1893L17.6428 17.5505L17.4129 17.811L17.1256 18.0136L16.8813 18.1728L16.6521 18.3169L16.3934 18.4472L15.8768 18.6208L15.6182 18.6643H15.0441L14.728 18.6498L13.5081 18.2735L12.6754 17.7242L12.4455 17.5216L12.2443 17.2762L12.0869 17.0012L11.9145 16.5532L11.7852 16.119L11.7564 15.8295L11.7708 15.2802L11.7995 15.0197L11.857 14.7599L11.9289 14.4994L12.1013 13.95L12.2156 13.6461L12.3593 13.3573L12.546 13.0389L12.7185 12.735L12.9052 12.5041L13.1057 12.287L13.3356 12.0988L13.7229 11.8245L14.1252 11.5929L14.3982 11.5061L14.9579 11.4048L15.4745 11.3758H15.7332Z" fill="white"/>
<path d="M21.2578 9.85947L21.1911 10.1838L21.1356 10.4187L20.9469 10.7877L20.6582 11.0226L20.2807 11.1344L19.8366 11.1009L19.6257 11.0226L19.4369 10.8884L19.2038 10.6088L19.0927 10.3627L19.015 10.0496L19.1038 9.65817L19.1816 9.45686L19.4147 9.12135L19.5701 9.00952L19.881 8.86413L20.1697 8.8194L20.4695 8.8865L20.7914 9.06544L21.1023 9.40095L21.2022 9.7029L21.2578 9.85947Z" fill="white"/>
<path d="M24.9719 13.9592L24.9549 13.5941V12.7955L24.9249 12.5922L24.938 12.2482L24.9033 11.9699V11.5357L24.8178 10.737L24.7669 9.99038L24.6983 9.32989L24.6297 9.0003L24.5781 8.67005L24.407 8.02732L24.2875 7.66287L24.0818 7.26289L23.8767 6.91554L23.4659 6.37741L23.1067 6.03006L22.6613 5.76955L22.0793 5.52614L21.7887 5.47417L21.4785 5.44522L19.8758 5.39917L18.0856 5.38799L17.3222 5.34654L16.9845 5.39062L16.2165 5.42878L15.4909 5.47943L14.7503 5.44522L14.348 5.46956L14.058 5.41036L13.6237 5.43536L13.0444 5.41957L12.3038 5.38536L11.7081 5.34983L11.1615 5.33405L8.76854 5.44522L8.45766 5.47417L8.16638 5.52614L7.58447 5.76955L7.13971 6.03006L6.77985 6.37741L6.36905 6.91554L6.16398 7.26289L5.9589 7.66287L5.83873 8.02732L5.66762 8.67005L5.61603 9.0003L5.54811 9.32989L5.47953 9.99038L5.42794 10.737L5.34238 11.5357V11.9699L5.30842 12.2482L5.32083 12.5922L5.29144 12.7955V13.5941L5.2738 13.9592V14.3066L5.30254 14.8316L5.2738 15.3572V15.7045L5.29144 16.069V16.8683L5.32083 17.0716L5.30842 17.4156L5.34238 17.6933V18.1274L5.42794 18.9267L5.47953 19.6734L5.54811 20.3333L5.61603 20.6635L5.66762 20.9937L5.83873 21.6358L5.9589 22.0009L6.16398 22.4002L6.36905 22.7476L6.77985 23.2864L7.13971 23.6337L7.58447 23.8942L8.16638 24.137L8.45766 24.1896L8.78682 24.2199L12.4174 24.3028L12.9157 24.2982L13.3187 24.3357L13.8013 24.3311L14.3806 24.3462L15.0722 24.3396L15.6515 24.3547L16.1022 24.3712L16.6978 24.3863L17.3568 24.339L18.0164 24.333L18.3547 24.3501L18.6767 24.3475L18.9987 24.3653L19.9875 24.3462L21.6457 24.2028L21.7887 24.1896L22.0793 24.137L22.6613 23.8942L23.1067 23.6337L23.4659 23.2864L23.8767 22.7476L24.0818 22.4002L24.2875 22.0009L24.407 21.6358L24.5781 20.9937L24.6297 20.6635L24.6983 20.3333L24.7669 19.6734L24.8178 18.9267L24.9033 18.1274V17.6933L24.938 17.4156L24.9249 17.0716L24.9549 16.8683V16.069L24.9719 15.7045V15.3572L24.9432 14.8316L24.9719 14.3066V13.9592ZM6.79748 16.8946L6.76287 16.2341L6.73152 14.8316L6.76287 13.429L6.79748 12.7692L6.81446 12.1784V11.7442L6.88304 11.362L6.90002 10.7542L6.93398 10.1812L7.00256 9.72987L7.07113 9.15621L7.13971 8.84373L7.3278 8.18389L7.51589 7.85365L7.84114 7.47143L8.25194 7.24579L8.79989 7.10698L10.4379 7.11487L11.3391 7.10698L12.0954 7.18592L12.4174 7.20303L12.9157 7.19842L13.3187 7.23592L13.8013 7.23197L14.3806 7.2471L15.0722 7.24052L15.6515 7.25565L16.1022 7.2721L16.6978 7.28723L17.3568 7.23987L18.0164 7.23394L18.3547 7.25105L18.6767 7.24842L19.6074 7.20237L20.3343 7.10698L21.6326 7.15434L21.9938 7.24579L22.4046 7.47143L22.7298 7.85365L22.9179 8.18389L23.1067 8.84373L23.1746 9.15621L23.2432 9.72987L23.3117 10.1812L23.3464 10.7542L23.3633 11.362L23.4319 11.7442V12.1784L23.4489 12.7692L23.4829 13.429L23.5142 14.8316L23.4829 16.2341L23.4489 16.8946L23.4319 17.4847V17.9189L23.3633 18.3011L23.3464 18.909L23.3117 19.4826L23.2432 19.9339L23.1746 20.5069L23.1067 20.8201L22.9179 21.4799L22.7298 21.8095L22.4046 22.1917L21.9938 22.418L21.4811 22.5476L18.9719 22.4647L17.3222 22.4456L16.9845 22.4897L16.2165 22.5285L15.4909 22.5792L14.7503 22.5443L14.348 22.5687L14.058 22.5095L13.6237 22.5344L13.0444 22.5193L12.3038 22.4845L11.7081 22.4489L11.1615 22.4331L8.76462 22.5476L8.25194 22.418L7.84114 22.1917L7.51589 21.8095L7.3278 21.4799L7.13971 20.8201L7.07113 20.5069L7.00256 19.9339L6.93398 19.4826L6.90002 18.909L6.88304 18.3011L6.81446 17.9189V17.4847L6.79748 16.8946Z" fill="white"/>
</g>
<defs>
<clipPath id="clip0_3443_165">
<rect width="19.6981" height="19.0523" fill="white" transform="translate(5.2738 5.33405)"/>
</clipPath>
</defs>
</svg>
