<svg width="36" height="39" viewBox="0 0 36 39" fill="none" xmlns="http://www.w3.org/2000/svg">
<path d="M12.9404 37.4885L10.1737 36.514L8.80192 35.9178L7.52541 35.2226L5.10912 33.3519L3.96325 32.2308L2.29053 29.7282L1.02866 27.3276L0.639174 26.2373L0.194133 24.0941L0.0555538 23.0319L0 21.9791L0.0555538 19.893L0.389487 16.7922L0.940142 14.8169L1.20631 13.9107L1.74598 12.0443L2.18552 11.103L2.53533 10.2068L3.41381 8.32419L4.02552 7.34719L5.31546 5.56665L6.08284 4.71741L6.92775 3.93267L9.20118 2.42832L10.5467 1.69995L11.9636 1.08995L13.5362 0.607706L17.135 0.133606L20.6691 0.258863L23.2984 0.942143L26.1598 1.81707L27.6866 2.54106L29.1181 3.364L30.3654 4.33099L32.347 6.31757L33.082 7.33717L33.6443 8.39246L34.1229 9.43773L34.8066 11.718L35.1845 12.9174L35.5325 14.3885L35.6418 15.7232L35.6918 16.8298L35.6521 17.9816L35.6186 19.0788L35.3194 21.8533L35.0075 23.9657L34.7352 24.9265L34.4562 25.941L33.7328 27.9514L32.8482 29.8885L32.3311 30.7666L30.9636 32.4839L30.1963 33.3325L29.3514 34.1179L27.418 35.6053L26.3405 36.199L23.7679 37.3388L22.285 37.7766L20.7362 38.0415L19.1215 38.1336L16.6008 38.0127L15.099 37.8424L12.941 37.4873H12.9422L12.9404 37.4885Z" fill="#D44F33"/>
<mask id="mask0_3494_154" style="mask-type:luminance" maskUnits="userSpaceOnUse" x="7" y="8" width="22" height="22">
<path d="M28.5882 8.47467H7.10291V29.7935H28.5882V8.47467Z" fill="white"/>
</mask>
<g mask="url(#mask0_3494_154)">
<path d="M22.8332 19.2168L22.7862 18.9092L22.755 18.3431L22.6769 18.0193L22.473 17.4368L22.2227 16.8055L21.8778 16.1586L21.5176 15.625L21.1421 15.1716L20.9071 14.9611L20.6562 14.7513L20.1086 14.4113L19.7954 14.3142L19.2008 14.152L18.9029 14.0875L18.4023 14.0386H18.1361L17.4316 14.006L17.1032 14.0386L16.7583 14.1357L16.4292 14.2002L16.1478 14.3298L15.6307 14.6211L15.1613 14.9768L14.7223 15.3977L14.519 15.6407L14.3151 15.8993L13.9391 16.4498L13.5795 17.0805L13.4073 17.4206L13.1882 18.035L13.0472 18.6011L12.9061 19.2324L12.8591 19.8794V20.1869L12.875 20.4775L12.922 20.7687L12.9849 21.0599L13.157 21.6743L13.3921 22.2242L13.6741 22.7747L13.8927 23.0653L14.3786 23.5676L14.6442 23.7943L14.9262 23.9878L15.6619 24.3116L15.975 24.4412L16.4915 24.5709L16.8987 24.6517L17.243 24.6836L17.4469 24.7325L17.8071 24.7488H18.0885L18.5745 24.7325L19.373 24.6197L19.8424 24.393L20.1556 24.2308L20.4535 24.0367L20.9541 23.6646L21.1733 23.4868L21.5329 23.0496L21.705 22.8235L21.8619 22.5968L22.1598 22.1271L22.4101 21.5284L22.5353 21.2046L22.6452 20.8651L22.802 20.1693L22.8332 19.8293L22.802 19.3758L22.8332 19.2149V19.2168ZM18.5116 15.2354L19.0439 15.3651L19.2948 15.4947L19.5299 15.6407L20.0152 16.0127L20.2344 16.2231L20.6257 16.7085L20.7978 16.9678L20.9389 17.227L21.2209 17.7606L21.346 18.0362L21.5176 18.5053L21.5335 19.0721V19.7998L21.4865 20.4142L21.2832 20.9328L21.1733 21.2234L21.0011 21.5472L20.876 21.7413L20.5945 22.1453L20.3436 22.4365L20.0305 22.6632L19.7643 22.8411L19.514 23.002L19.2319 23.148L18.6685 23.3421L18.3864 23.391H17.7601L17.4152 23.3747L16.0843 22.9538L15.1759 22.3394L14.925 22.1127L14.7058 21.8384L14.5343 21.5309L14.3463 21.0299L14.2052 20.5439L14.1741 20.2201L14.19 19.6057L14.2211 19.3145L14.284 19.0239L14.3621 18.7326L14.5502 18.1176L14.6747 17.7775L14.8316 17.4544L15.0355 17.098L15.2235 16.7579L15.4274 16.4993L15.646 16.2563L15.8969 16.0459L16.3193 15.739L16.7583 15.4797L17.0562 15.3826L17.6667 15.2693L18.2301 15.2367H18.5122L18.5116 15.2354Z" fill="white"/>
<path d="M24.537 13.5388L24.4644 13.9015L24.4039 14.1645L24.1982 14.5772L23.8832 14.8403L23.4717 14.9655L22.9876 14.9279L22.7575 14.8403L22.5517 14.69L22.2978 14.3768L22.1763 14.1012L22.0914 13.7512L22.1885 13.3134L22.2734 13.0879L22.5273 12.7128L22.697 12.5875L23.0358 12.4247L23.3509 12.3746L23.6781 12.4497L24.0291 12.6501L24.3679 13.0253L24.4766 13.3629L24.537 13.5382V13.5388Z" fill="white"/>
<path d="M28.5882 18.1264L28.5699 17.718V16.8243L28.5369 16.597L28.551 16.2118L28.5131 15.9005V15.4145L28.4197 14.5208L28.3642 13.6854L28.2891 12.9463L28.214 12.5775L28.1578 12.208L27.971 11.489L27.8404 11.0813L27.6157 10.6335L27.3923 10.2445L26.9442 9.64268L26.5522 9.25376L26.0663 8.96253L25.4314 8.6901L25.1146 8.63185L24.7764 8.59929L23.0279 8.54793L21.075 8.5354L20.2423 8.48906L19.8742 8.53854L19.0366 8.58112L18.2454 8.63749L17.4378 8.59929L16.9988 8.62622L16.6826 8.55983L16.2089 8.58801L15.577 8.57048L14.7693 8.53227L14.1198 8.49282L13.5233 8.47528L10.9135 8.59991L10.5747 8.63248L10.2573 8.69072L9.62236 8.96316L9.13703 9.25438L8.74449 9.64331L8.2964 10.2452L8.07296 10.6341L7.84952 11.0819L7.71827 11.4896L7.53146 12.2086L7.4753 12.5781L7.40143 12.947L7.32634 13.686L7.27018 14.5215L7.17677 15.4152V15.9012L7.13953 16.2124L7.15297 16.5976L7.12061 16.8249V17.7187L7.10107 18.127V18.5159L7.13221 19.1034L7.10107 19.6915V20.0804L7.12061 20.4881V21.3824L7.15297 21.6098L7.13953 21.995L7.17677 22.3056V22.7916L7.27018 23.6859L7.32634 24.5214L7.40143 25.2598L7.4753 25.6293L7.53146 25.9988L7.71827 26.7172L7.84952 27.1255L8.07296 27.572L8.2964 27.961L8.74449 28.5641L9.13703 28.953L9.62236 29.2442L10.2573 29.516L10.5747 29.5749L10.9337 29.6087L14.8939 29.7014L15.4372 29.6964L15.8767 29.7384L16.403 29.7334L17.0348 29.7503L17.7894 29.7428L18.4212 29.7597L18.9127 29.7778L19.5622 29.7947L20.2808 29.7415L20.9999 29.7346L21.3686 29.754L21.7197 29.7509L22.0707 29.7709L23.1494 29.7496L24.9583 29.5893L25.1139 29.5743L25.4308 29.5154L26.0657 29.2436L26.5516 28.9524L26.9436 28.5635L27.3917 27.9603L27.6151 27.5714L27.8397 27.1249L27.9704 26.7165L28.1572 25.9982L28.2134 25.6287L28.2885 25.2592L28.3635 24.5208L28.4191 23.6853L28.5125 22.791V22.305L28.5504 21.9943L28.5363 21.6092L28.5693 21.3818V20.4875L28.5876 20.0798V19.6908L28.5565 19.1028L28.5876 18.5153V18.1264H28.5882ZM8.76464 21.4113L8.72679 20.6722L8.6926 19.1028L8.72679 17.5333L8.76464 16.7949L8.78295 16.1335V15.6475L8.85804 15.2198L8.87635 14.5396L8.91359 13.8983L8.98868 13.3935L9.06377 12.7516L9.13886 12.4021L9.34398 11.6637L9.54911 11.2942L9.9038 10.8664L10.3519 10.6141L10.9496 10.4587L12.7364 10.4675L13.7193 10.4587L14.5441 10.547L14.8951 10.5665L15.4384 10.5614L15.878 10.6034L16.4042 10.599L17.0361 10.6159L17.7906 10.6084L18.4225 10.6253L18.9139 10.6435L19.5634 10.6604L20.282 10.6072L21.0011 10.6003L21.3699 10.6197L21.7209 10.6166L22.7361 10.5652L23.5291 10.4587L24.9455 10.512L25.3392 10.6141L25.7873 10.8664L26.142 11.2942L26.3471 11.6637L26.5529 12.4021L26.6267 12.7516L26.7018 13.3935L26.7763 13.8983L26.8141 14.5396L26.8325 15.2198L26.9075 15.6475V16.1335L26.9259 16.7949L26.9631 17.5333L26.9973 19.1028L26.9631 20.6722L26.9259 21.4113L26.9075 22.0714V22.5574L26.8325 22.9851L26.8141 23.6653L26.7763 24.3072L26.7018 24.812L26.6267 25.4533L26.5529 25.804L26.3471 26.5424L26.142 26.9113L25.7873 27.3391L25.3392 27.5921L24.78 27.7374L22.0432 27.6447L20.2441 27.6234L19.876 27.6729L19.0384 27.7161L18.2472 27.7731L17.4396 27.7343L17.0006 27.7618L16.6844 27.6954L16.2107 27.723L15.5788 27.7061L14.7712 27.6672L14.1216 27.6272L13.5252 27.6096L10.9111 27.738L10.3519 27.5927L9.9038 27.3397L9.54911 26.9119L9.34398 26.5431L9.13886 25.8047L9.06377 25.4539L8.98868 24.8126L8.91359 24.3078L8.87635 23.6659L8.85804 22.9857L8.78295 22.558V22.072L8.76464 21.4119V21.4113Z" fill="white"/>
</g>
</svg>
