<svg width="77" height="22" viewBox="0 0 77 22" fill="none" xmlns="http://www.w3.org/2000/svg">
<g clip-path="url(#clip0_3404_71)">
<path d="M4.95 21.3752L4.35 21.4352H3.84L3.21 21.3452L2.79 21.4352H0.78L0.12 21.3752L0 21.1952V13.8752L0.06 12.8552L0.12 11.6552L0.18 10.5452L0.27 9.49517V8.26517L0.3 7.39517L0.27 6.55517V5.95517L0.3 5.35517L0.33 4.24517L0.39 3.70517L0.42 2.62517V2.05517L0.54 1.39517L0.81 1.33517H1.83L2.16 1.42517H2.76L2.94 1.69517L2.97 2.35517V6.25517L2.82 6.97517V13.5752L2.79 14.5352L2.82 15.3752L2.7 16.1552L2.67 16.9652V17.5352L2.55 18.2852L3.18 18.9152H5.55L7.68 18.9752L8.34 19.0352L8.55 19.2752L8.58 19.6652V20.2952L8.49 21.0452L7.95 21.3752L7.29 21.4652L6.51 21.4052L5.58 21.4652L4.95 21.3752Z" fill="white"/>
<path d="M13.44 21.2552L12.93 21.2852L12.3 21.0452L12.39 20.3252L12.51 19.8152L12.66 18.8852L12.93 17.9252L13.05 17.3252L13.17 16.6952L13.47 15.3752L13.68 14.3852L13.77 14.0252L13.89 13.3352L14.04 12.7052L14.49 10.9052L14.61 9.85517L14.88 8.83517L15 8.26517L15.12 7.66517L15.3 6.94517L15.51 6.19517L15.66 5.50517L15.99 4.33517L16.14 3.79517L16.23 3.28517L16.47 2.02517L16.74 1.12517L17.43 0.975166L18 1.09517L18.6 1.96517L18.72 2.56517L19.02 3.70517L19.14 4.27517L19.44 5.50517L19.56 6.16517L19.86 7.39517L20.04 7.96517L20.34 9.16517L20.82 11.0252L21.12 12.2552L22.11 15.9452L22.56 17.5952L22.71 18.1352L23.04 19.2152L23.22 19.8152L23.46 20.6852L23.34 21.1652L23.13 21.3152L22.38 21.2552L21.21 21.2252L20.58 20.6852L20.46 20.0252L20.22 19.0952L20.07 18.4352L19.86 17.6252L19.59 17.4752L18.66 17.4452H17.7L17.13 17.3252L16.41 17.4152L15.81 17.3852L15.42 18.0752L15.3 18.6752L15.18 19.2452L15.09 19.8452L14.97 20.4452L14.61 21.1952L14.13 21.3152L13.44 21.2552ZM18.69 15.1952L19.2 14.9252L19.05 14.1752L18.6 12.4952L18.27 11.3552L17.82 9.55517L17.64 8.92517L17.25 8.89517L17.1 9.49517L16.89 10.7252L16.65 11.9552L16.35 13.1852L16.11 14.2952L15.99 15.0452L16.59 15.1952H18.69Z" fill="white"/>
<path d="M30.09 21.3452L29.85 20.5352L29.7 20.0252L29.58 19.5152L29.49 18.8852L29.28 18.2852L29.04 17.4452L28.98 16.9052L28.77 16.4552L28.62 15.9452L28.41 15.0452L28.23 14.3852L28.08 13.7552L27.87 12.5552L27.75 12.0452L27.6 11.5052L27.48 10.9952L27.24 9.82517L26.94 8.65517L26.76 7.63517L26.61 6.91517L26.49 6.43517L26.4 5.92517L26.25 5.26517L26.1 4.27517L25.95 3.67517L25.77 2.65517L25.62 2.11517L25.56 1.60517L25.74 1.21517L26.16 1.15517L26.58 1.27517L27.03 1.30517L27.39 1.24517L27.75 1.30517L28.11 2.02517L28.35 3.19517L28.47 3.76517L28.59 4.36517L28.74 4.93517L28.95 6.10517L29.07 6.64517L29.19 7.21517L29.34 7.75517L29.55 8.80517L29.76 9.82517L29.85 10.3952L29.97 10.9352L30.21 12.0452L30.51 13.1252L30.66 13.6952L30.93 14.8352L31.08 15.4052L31.32 16.4252L31.62 16.2752L31.92 15.1352L32.25 13.8452L32.55 12.5252L32.85 11.2652L33.09 10.0052L33.24 9.40517L33.48 8.11517L33.6 7.45517L33.96 6.16517L34.14 5.50517L34.44 4.18517L34.77 2.89517L34.98 1.90517L35.28 1.36517H36.12L36.75 1.21517H37.08L37.44 1.45517V2.20517L37.29 2.77517L37.17 3.31517L36.87 4.51517L36.57 5.74517L36.33 6.97517L36.03 7.87517L35.79 8.86517L35.16 11.3252L35.01 11.9852L34.83 12.5852L34.68 13.1552L34.23 14.9552L34.08 15.5852L33.9 16.2152L33.75 16.8752L33.42 18.1352L33.24 18.7652L32.88 20.0552L32.55 21.1952L31.59 21.5252H30.96L30.09 21.3452Z" fill="white"/>
<path d="M45.51 21.6752L44.49 21.3152L43.98 21.0752L43.5 20.7752L42.57 19.9052L42.12 19.3652L41.43 18.1052L40.89 16.8752L40.71 16.3052L40.47 15.1652L40.38 14.5952L40.32 14.0252L40.26 12.8852V11.1752L40.38 10.0652L40.44 9.55517L40.56 8.50517L40.68 7.96517L40.77 7.45517L41.01 6.37517L41.19 5.80517L41.58 4.75517L41.82 4.24517L42.09 3.76517L42.84 2.80517L43.29 2.32517L43.77 1.90517L44.31 1.54517L45.57 1.06517L46.83 0.915169L47.79 1.12517L48.84 1.42517L49.41 1.72517L49.95 2.08517L50.43 2.53517L51.21 3.49517L51.51 4.00517L51.75 4.54517L51.96 5.08517L52.29 6.28517L52.47 6.91517L52.65 7.69517L52.74 8.41517L52.8 9.01517L52.83 9.64517L52.86 10.2452V11.7752L52.83 12.9452L52.77 13.4852L52.71 14.0552L52.53 15.1952L52.29 16.3052L52.14 16.8152L51.72 17.8352L51.48 18.3452L51.21 18.8252L50.58 19.7552L50.22 20.1452L49.35 20.9252L48.84 21.2552L48.3 21.4952L47.73 21.6452L46.83 21.7352H46.29L45.51 21.6752ZM47.34 19.3052L48.06 18.8252L48.57 18.4052L49.2 17.3552L49.47 16.8152L49.95 15.7352L50.13 14.5952L50.28 13.4852L50.34 12.8252L50.4 12.1952L50.43 11.5352L50.4 10.2752L50.34 9.67517L50.16 8.35517L50.07 7.66517L49.8 6.31517L49.56 5.68517L48.84 4.66517L48.45 4.24517L47.76 3.70517L46.8 3.52517L45.63 3.79517L45.15 4.06517L44.49 4.81517L43.95 5.77517L43.74 6.34517L43.44 7.24517L43.2 8.17517L43.11 8.83517V9.67517L42.99 10.2452L42.96 11.3852L42.87 12.5852V13.7552L43.02 14.8952L43.11 15.4352L43.23 15.9752L43.62 17.1452L43.98 17.7452L44.97 18.7652L46.08 19.3352L46.59 19.4252L47.34 19.3052Z" fill="white"/>
<path d="M68.43 21.2252L68.01 21.2552H67.59L66.99 21.2252L65.97 20.6552L65.16 19.6052L64.77 19.1252L64.05 18.1352L63.3 17.2052L62.91 16.7552L62.55 16.2752L61.74 15.3152L61.26 14.8952V15.6752L61.29 19.3352L61.32 20.3552L61.23 21.0152L60.45 21.0452L59.4 21.1652L58.83 21.1052L58.68 20.6252L58.62 19.8452V19.0952L58.65 18.4652L58.62 17.7152L58.59 16.8452L58.62 16.1252L58.59 15.4352L58.62 14.6852L58.59 13.9652L58.65 13.2452L58.56 12.7052L58.68 11.9852L58.74 10.9652V9.88517L58.71 8.83517V5.56517L58.77 4.66517L58.74 3.91517L58.71 3.13517L58.74 2.41517L58.77 1.96517L58.74 1.45517L59.28 1.00517L59.94 0.975166H60.63L61.32 1.03517L62.22 1.30517L62.76 1.60517L63.24 1.93517L63.72 2.32517L64.5 3.13517L64.83 3.58517L65.1 4.06517L65.46 5.08517L65.64 5.56517L65.97 6.67517L66.06 7.27517L66.09 8.35517L66 9.31517L65.82 10.0652L65.61 10.8752L65.4 11.4452L65.1 11.9552L64.29 12.9152L63.81 13.3652L63.66 14.2652L64.02 14.7152L64.74 15.5552L65.46 16.4252L66.54 17.7752L67.29 18.6752L68.37 20.0252L68.82 20.7452L68.85 21.1652L68.7 21.3152L68.43 21.2252ZM62.25 11.3552L62.7 10.9352L63.03 10.4552L63.36 9.31517L63.45 8.74517L63.51 7.99517L63.39 7.21517L63.15 5.95517L62.94 5.32517L62.64 4.75517L61.89 3.82517L61.38 3.52517L61.32 3.82517L61.38 4.27517L61.35 4.81517V5.35517L61.29 5.92517V6.43517L61.35 6.67517L61.29 7.18517L61.26 7.69517L61.32 8.53517V9.55517L61.29 10.8152V11.3252L61.53 11.7752L62.25 11.3552Z" fill="white"/>
<path d="M73.92 21.1952L73.68 20.2952V15.7352L73.71 14.8352V14.1152L73.68 13.2152V12.4052L73.71 11.7152L73.83 10.6952L73.8 9.46517L73.89 8.86517L73.83 8.17517L73.92 6.94517L73.95 6.37517V4.60517L73.98 3.73517L73.92 1.81517L74.01 1.21517L74.91 1.06517H75.6L76.41 1.21517L76.62 1.45517L76.65 2.11517V4.36517L76.62 5.50517L76.56 6.58517L76.5 7.78517V9.61517L76.47 13.0352V14.7452L76.44 15.4352L76.41 16.0952L76.5 16.5152L76.47 16.9952L76.44 17.7152L76.5 18.7352V19.3952L76.53 20.3252V20.8052L76.44 21.1352L75.84 21.2552L75.15 21.2252L74.67 21.3752L73.92 21.1952Z" fill="white"/>
</g>
<defs>
<clipPath id="clip0_3404_71">
<rect width="76.65" height="20.82" fill="white" transform="translate(0 0.915169)"/>
</clipPath>
</defs>
</svg>
