<svg width="109" height="70" viewBox="0 0 109 70" fill="none" xmlns="http://www.w3.org/2000/svg">
<g clip-path="url(#clip0_3418_111)">
<path d="M0.64502 41.8699L1.23502 36.2299L1.83502 33.3399L2.77502 30.5199L6.07502 24.7099L8.27502 21.7599L13.855 16.6999L19.465 12.4399L22.155 10.8299L27.675 8.2099L30.475 7.0599L33.305 6.0599L39.045 4.3599L47.765 2.2699L53.575 1.5299L56.245 1.2099L61.745 0.539899L64.645 0.489899L67.355 0.329899L73.155 0.239899L76.285 0.459899L82.115 1.1699L85.005 1.7699L87.785 2.5599L93.595 5.2099L96.595 6.9199L99.325 8.8499L101.825 11.1599L105.815 16.9999L108.115 23.2399L108.215 28.3899L107.965 34.1099L107.135 37.3799L105.955 40.5699L104.245 43.5699L100.305 48.7199L98.075 50.8699L95.615 52.7499L93.115 54.4799L87.395 57.6299L84.405 59.3199L80.645 61.1899L77.085 62.5299L74.095 63.5699L70.915 64.4899L67.895 65.3799L60.095 67.2499L54.095 68.5299L51.265 68.8799L48.285 69.2699L42.255 69.7399L36.305 69.8699L33.525 69.7299L27.815 68.8299L24.925 68.2299L22.145 67.4399L16.635 65.3599L14.205 63.9999L9.16502 60.5199L6.85502 58.3199L4.97502 55.8599L3.51502 53.1399L1.95502 48.6599L1.29502 45.9099L0.64502 41.8599L0.64502 41.8699Z" fill="#C8432A"/>
</g>
<defs>
<clipPath id="clip0_3418_111">
<rect width="107.59" height="69.66" fill="white" transform="translate(0.64502 0.229897)"/>
</clipPath>
</defs>
</svg>
