<svg width="138" height="70" viewBox="0 0 138 70" fill="none" xmlns="http://www.w3.org/2000/svg">
<g clip-path="url(#clip0_3418_103)">
<path d="M96.6691 0.730705L104.064 1.44164L107.71 2.0393L111.201 2.8225L118.555 5.46996L122.336 7.17113L125.764 9.08324L128.876 11.3528L133.875 17.1272L136.73 23.2385L136.854 28.2942L136.54 33.9534L135.512 37.1497L134.041 40.2844L131.914 43.2297L126.947 48.3518L124.159 50.4739L121.063 52.3411L117.901 54.0666L110.644 57.2219L110.64 57.2239L106.838 58.9182L102.084 60.7844L97.5724 62.1243L93.796 63.1614L89.7472 64.0862H89.7452L85.8995 64.9797L75.9982 66.8538L68.3654 68.1379L64.7882 68.4875H64.7853L60.9913 68.8791L53.3458 69.3489L45.7814 69.4788L42.2823 69.3391L35.0411 68.4387L31.3859 67.8391L27.881 67.053L20.9142 64.9778L17.8741 63.635L11.4972 60.1604L8.61829 57.9963L6.28137 55.5832L4.47375 52.9241L2.51575 48.4875L1.6925 45.7805L0.886841 41.8196L1.62317 36.2678L2.37024 33.4299L3.5304 30.6838L7.68372 24.9133L10.4269 22.012L17.4835 16.9631L24.5802 12.7102L27.9591 11.1145L34.9698 8.48852L38.5148 7.34008L42.1017 6.34008L49.3722 4.64086L60.4562 2.54418L67.8282 1.80395L67.8273 1.80297L71.2257 1.48266H71.2267L78.2003 0.810783L81.881 0.760979H81.8976L85.3302 0.599846L85.3312 0.600822L92.7032 0.510002L96.6691 0.730705Z" stroke="#C8432A"/>
</g>
<defs>
<clipPath id="clip0_3418_103">
<rect width="137" height="70" fill="white" transform="translate(0.380005)"/>
</clipPath>
</defs>
</svg>
