<svg width="711" height="738" viewBox="0 0 711 738" fill="none" xmlns="http://www.w3.org/2000/svg">
<path d="M123.011 249.404L123.241 247.214L123.471 246.094L123.841 245.004L125.121 242.744L125.981 241.594L128.151 239.624L130.331 237.974L131.371 237.344L133.521 236.324L134.611 235.874L135.711 235.484L137.941 234.824L141.331 234.014L143.591 233.724L144.631 233.604L146.771 233.344L147.901 233.324L148.951 233.264L151.201 233.224L152.421 233.314L154.691 233.584L155.811 233.814L156.891 234.124L159.151 235.154L160.321 235.814L161.381 236.564L162.351 237.464L163.901 239.734L164.801 242.164L164.841 244.164L164.741 246.384L164.421 247.654L163.961 248.894L163.301 250.054L161.771 252.054L160.901 252.894L159.941 253.624L158.971 254.294L156.751 255.514L155.591 256.174L154.131 256.904L152.751 257.424L151.591 257.824L150.361 258.184L149.181 258.524L146.151 259.254L143.821 259.754L142.721 259.894L141.561 260.044L139.211 260.224L136.901 260.274L135.821 260.214L133.601 259.864L132.481 259.634L131.401 259.324L129.261 258.514L128.321 257.984L126.361 256.634L125.461 255.784L124.731 254.824L124.161 253.764L123.551 252.024L123.291 250.954L123.041 249.384L123.011 249.404Z" fill="#C8432A"/>
<path d="M430.792 251.914L430.862 251.224L430.932 250.874L431.042 250.534L431.442 249.824L431.712 249.464L432.392 248.844L433.072 248.324L433.402 248.124L434.072 247.804L434.412 247.664L434.762 247.544L435.462 247.334L436.522 247.084L437.232 246.994L437.562 246.954L438.232 246.874H438.582L438.912 246.844H439.622L440.002 246.864L440.712 246.954L441.062 247.024L441.402 247.124L442.112 247.444L442.482 247.654L442.812 247.894L443.112 248.174L443.602 248.884L443.882 249.644V250.274L443.862 250.974L443.762 251.374L443.622 251.764L443.412 252.134L442.932 252.764L442.662 253.024L442.362 253.254L442.062 253.464L441.362 253.844L441.002 254.054L440.542 254.284L440.112 254.444L439.752 254.574L439.362 254.684L438.992 254.794L438.042 255.024L437.312 255.184L436.972 255.224L436.612 255.274L435.882 255.334L435.152 255.354L434.812 255.334L434.112 255.224L433.762 255.154L433.422 255.054L432.752 254.804L432.452 254.634L431.842 254.214L431.562 253.944L431.332 253.644L431.152 253.314L430.962 252.764L430.882 252.424L430.802 251.934L430.792 251.914Z" fill="#C8432A"/>
<path d="M214.131 166.824L214.201 166.134L214.271 165.784L214.381 165.444L214.781 164.734L215.051 164.374L215.731 163.754L216.411 163.234L216.741 163.034L217.411 162.714L217.751 162.574L218.101 162.454L218.801 162.244L219.861 161.994L220.571 161.904L220.901 161.864L221.571 161.784H221.921L222.251 161.754H222.961L223.341 161.774L224.051 161.864L224.401 161.934L224.741 162.034L225.451 162.354L225.821 162.564L226.151 162.804L226.451 163.084L226.941 163.794L227.221 164.554V165.184L227.201 165.884L227.101 166.284L226.961 166.674L226.751 167.044L226.271 167.674L226.001 167.934L225.701 168.164L225.401 168.374L224.701 168.754L224.341 168.964L223.881 169.194L223.451 169.354L223.091 169.484L222.701 169.594L222.331 169.704L221.381 169.934L220.651 170.094L220.311 170.134L219.951 170.184L219.221 170.244L218.491 170.264L218.151 170.244L217.451 170.134L217.101 170.064L216.761 169.964L216.091 169.714L215.791 169.544L215.181 169.124L214.901 168.854L214.671 168.554L214.491 168.224L214.301 167.674L214.221 167.334L214.141 166.844L214.131 166.824Z" fill="#C8432A"/>
<path d="M44.8508 24.054L51.2408 16.544L54.9408 12.984L59.0608 9.87401L69.5008 4.79401L75.5608 2.72401L88.5408 0.954014L100.771 0.364014L106.211 0.684014L116.701 2.35401L121.851 3.44401L126.901 4.79401L136.801 7.99401L151.361 13.564L160.421 18.204L164.571 20.374L173.121 24.814L177.331 27.594L181.381 30.024L189.791 35.584L194.061 38.974L201.731 45.714L205.291 49.424L208.501 53.284L214.231 62.794L216.851 68.194L218.861 73.644L220.171 79.414L220.151 91.704L217.321 102.924L212.401 110.414L206.431 118.374L202.021 122.254L197.201 125.674L191.811 128.294L181.101 131.804L175.781 132.694L170.401 132.974L165.121 133.004L153.831 131.904L147.881 131.384L140.651 130.374L134.231 128.794L128.931 127.354L123.471 125.554L118.261 123.854L105.231 118.864L95.3708 114.794L90.9708 112.524L86.3108 110.154L77.1908 104.904L68.5208 99.244L64.6708 96.304L57.3508 89.404L53.7908 85.694L50.5808 81.834L44.7108 73.444L42.5608 69.104L38.7508 59.154L37.6008 53.734L37.3208 48.354L37.9008 43.014L40.0708 35.064L41.8308 30.464L44.8808 24.014L44.8508 24.054Z" fill="#C8432A"/>
<path d="M181.091 304.254L185.051 301.644L187.241 300.504L189.561 299.624L195.061 298.684L198.141 298.544L204.371 299.474L210.091 300.844L212.561 301.724L217.171 303.904L219.401 305.094L221.551 306.394L225.691 309.204L231.661 313.734L235.221 317.094L236.841 318.654L240.191 321.854L241.761 323.704L243.301 325.364L246.431 329.064L247.941 331.204L250.571 335.344L251.711 337.534L252.671 339.744L254.041 344.904L254.521 347.744L254.721 350.534L254.551 353.374L252.891 359.044L250.081 363.844L246.811 366.644L242.981 369.514L240.421 370.714L237.731 371.644L234.891 372.124L229.471 372.304L226.901 372.004L224.381 371.414L221.941 370.714L216.881 368.694L214.201 367.654L211.001 366.214L208.251 364.624L206.001 363.244L203.721 361.684L201.551 360.204L196.211 356.154L192.211 352.954L190.481 351.314L188.651 349.594L185.151 345.944L181.911 342.164L180.531 340.294L178.081 336.124L176.941 333.934L175.981 331.724L174.401 327.064L173.991 324.774L173.571 319.674L173.771 317.024L174.361 314.504L175.351 312.114L177.421 308.734L178.851 306.854L181.121 304.294L181.091 304.254Z" fill="#C8432A"/>
<path d="M485.551 161.314L489.541 159.664L491.701 159.024L493.931 158.634L499.011 158.744L501.791 159.154L507.201 161.064L512.081 163.284L514.131 164.504L517.881 167.254L519.671 168.714L521.371 170.254L524.591 173.484L529.151 178.574L531.751 182.194L532.931 183.874L535.371 187.314L536.451 189.244L537.541 191.004L539.701 194.854L540.681 197.024L542.321 201.184L542.961 203.344L543.441 205.494L543.771 210.344L543.711 212.974L543.401 215.504L542.751 218.014L540.281 222.794L536.931 226.594L533.511 228.524L529.591 230.424L527.091 231.054L524.521 231.424L521.891 231.364L517.011 230.584L514.761 229.864L512.611 228.894L510.551 227.844L506.371 225.154L504.161 223.764L501.551 221.924L499.361 220.024L497.581 218.404L495.811 216.614L494.121 214.914L490.041 210.364L487.011 206.804L485.751 205.034L484.411 203.174L481.911 199.304L479.671 195.364L478.761 193.444L477.291 189.294L476.651 187.134L476.171 184.984L475.571 180.544L475.601 178.424L476.111 173.784L476.751 171.444L477.721 169.294L479.021 167.334L481.461 164.674L483.071 163.234L485.551 161.334V161.314Z" fill="#C8432A"/>
<path d="M309.521 161.324L308.881 157.514L308.751 155.504L308.861 153.484L309.971 149.074L310.881 146.734L313.621 142.394L316.531 138.574L318.001 137.024L321.151 134.304L322.781 133.034L324.461 131.864L327.921 129.704L333.261 126.744L336.941 125.194L338.641 124.494L342.131 123.054L344.031 122.494L345.781 121.894L349.571 120.774L351.661 120.354L355.621 119.754L357.631 119.624H359.601L363.901 120.314L366.181 120.884L368.321 121.654L370.381 122.714L374.061 125.824L376.711 129.504L377.721 132.864L378.601 136.664L378.651 138.964L378.461 141.274L377.891 143.554L376.241 147.654L375.171 149.474L373.901 151.164L372.581 152.754L369.401 155.864L367.741 157.514L365.611 159.424L363.521 160.954L361.751 162.184L359.831 163.364L358.011 164.494L353.231 167.144L349.521 169.074L347.731 169.824L345.841 170.624L341.971 172.034L338.091 173.204L336.241 173.614L332.331 174.064L330.321 174.194H328.351L324.351 173.824L322.511 173.374L318.571 172.004L316.661 170.984L314.971 169.714L313.511 168.194L311.671 165.534L310.731 163.844L309.571 161.304L309.521 161.324Z" fill="#C8432A"/>
<path d="M95.8515 425.724L94.1515 422.964L93.4115 421.444L92.8515 419.844L92.3215 416.064L92.2915 413.954L93.0515 409.714L94.1115 405.824L94.7615 404.154L96.3515 401.044L97.2115 399.544L98.1415 398.104L100.152 395.334L103.372 391.344L105.742 388.984L106.842 387.904L109.102 385.684L110.402 384.654L111.572 383.634L114.162 381.564L115.652 380.574L118.542 378.854L120.062 378.114L121.592 377.504L125.152 376.674L127.102 376.404L129.012 376.324L130.952 376.504L134.792 377.754L138.012 379.774L139.852 382.074L141.732 384.754L142.502 386.524L143.081 388.384L143.352 390.334V394.044L143.102 395.794L142.642 397.504L142.111 399.154L140.622 402.574L139.852 404.384L138.801 406.544L137.652 408.394L136.661 409.904L135.542 411.434L134.482 412.894L131.602 416.464L129.331 419.134L128.172 420.284L126.962 421.504L124.392 423.824L121.742 425.964L120.432 426.874L117.532 428.464L116.012 429.204L114.482 429.814L111.262 430.794L109.692 431.024L106.192 431.204L104.382 431.014L102.672 430.554L101.062 429.834L98.7915 428.354L97.5315 427.334L95.8215 425.724H95.8515Z" fill="#C8432A"/>
<path d="M371.061 404.304L369.811 396.914L369.551 393.014L369.761 389.094L371.911 380.534L373.671 375.994L378.991 367.574L384.631 360.164L387.481 357.154L393.591 351.864L396.741 349.404L399.991 347.124L406.701 342.934L417.071 337.184L424.201 334.184L427.491 332.834L434.261 330.034L437.941 328.944L441.331 327.774L448.691 325.604L452.751 324.784L460.431 323.624L464.331 323.364L468.151 323.384L476.491 324.704L480.911 325.824L485.071 327.324L489.071 329.384L496.221 335.414L501.361 342.554L503.311 349.084L505.021 356.454L505.121 360.914L504.751 365.394L503.631 369.814L500.431 377.774L498.351 381.304L495.881 384.574L493.311 387.664L487.141 393.694L483.931 396.904L479.811 400.614L475.751 403.584L472.311 405.964L468.591 408.264L465.051 410.464L455.771 415.604L448.581 419.354L445.101 420.804L441.441 422.354L433.921 425.094L426.381 427.364L422.781 428.164L415.181 429.044L411.281 429.304L407.461 429.284L399.701 428.594L396.131 427.724L388.481 425.074L384.761 423.094L381.491 420.624L378.661 417.674L375.091 412.524L373.281 409.254L371.021 404.324L371.061 404.304Z" fill="#C8432A"/>
<path d="M1.29143 311.364L3.01143 307.914L4.08143 306.214L5.35143 304.644L8.83143 301.734L10.9414 300.374L15.7014 298.484L20.2814 297.114L22.3714 296.724L26.5114 296.374L28.5614 296.304L30.6014 296.344L34.6614 296.634L40.7114 297.384L44.5814 298.294L46.3614 298.724L50.0214 299.604L51.8814 300.264L53.6414 300.804L57.3514 302.124L59.2914 303.004L62.8314 304.844L64.5314 305.914L66.1114 307.074L69.1814 310.144L70.6814 311.944L71.9614 313.824L73.0014 315.894L74.1514 320.564L74.1314 325.084L72.9714 328.384L71.4514 331.964L70.1414 333.854L68.6314 335.604L66.8314 337.104L63.1014 339.444L61.1714 340.284L59.1614 340.894L57.1614 341.404L52.7714 342.044L50.4614 342.404L47.6214 342.704H45.0314L42.8814 342.654L40.6414 342.484L38.5114 342.324L33.1014 341.654L28.9814 341.034L27.1014 340.584L25.1114 340.124L21.1614 338.994L17.3414 337.664L15.6014 336.914L12.1814 334.984L10.4814 333.914L8.90143 332.754L5.89143 330.124L4.67143 328.684L2.29143 325.264L1.35143 323.314L0.741426 321.304L0.461426 319.224L0.531426 316.004L0.771426 314.094L1.32143 311.364H1.29143Z" fill="#C8432A"/>
<path d="M296.961 250.324L298.421 248.674L299.271 247.894L300.211 247.214L302.571 246.124L303.941 245.694L306.851 245.364L309.591 245.294L310.811 245.394L313.151 245.814L314.301 246.084L315.421 246.414L317.621 247.174L320.851 248.494L322.851 249.574L323.771 250.084L325.661 251.114L326.591 251.754L327.481 252.314L329.341 253.594L330.281 254.374L331.961 255.914L332.741 256.764L333.441 257.644L334.681 259.804L335.241 261.024L335.661 262.254L335.921 263.554L335.861 266.304L335.171 268.804L334.031 270.454L332.661 272.204L331.651 273.054L330.551 273.794L329.331 274.354L326.921 275.084L325.731 275.254L324.531 275.294L323.351 275.274L320.831 274.974L319.501 274.834L317.891 274.574L316.461 274.194L315.281 273.844L314.071 273.414L312.911 273.004L310.021 271.824L307.831 270.864L306.861 270.334L305.831 269.784L303.821 268.564L301.911 267.254L301.061 266.574L299.461 264.994L298.681 264.144L297.981 263.264L296.711 261.354L296.251 260.374L295.451 258.134L295.221 256.914L295.181 255.714L295.341 254.524L295.861 252.754L296.281 251.734L296.991 250.304L296.961 250.324Z" fill="#C8432A"/>
<path d="M454.681 537.434L454.911 535.244L455.141 534.124L455.511 533.034L456.791 530.774L457.651 529.624L459.821 527.654L462.001 526.004L463.041 525.374L465.191 524.354L466.281 523.904L467.381 523.514L469.611 522.854L473.001 522.044L475.261 521.754L476.301 521.634L478.441 521.374L479.571 521.354L480.621 521.294L482.871 521.254L484.091 521.344L486.361 521.614L487.481 521.844L488.561 522.154L490.821 523.184L491.991 523.844L493.051 524.594L494.021 525.494L495.571 527.764L496.471 530.194L496.511 532.194L496.411 534.414L496.091 535.684L495.631 536.924L494.971 538.084L493.441 540.084L492.571 540.924L491.611 541.654L490.641 542.324L488.421 543.544L487.261 544.204L485.801 544.934L484.421 545.454L483.261 545.854L482.031 546.214L480.851 546.554L477.821 547.284L475.491 547.784L474.391 547.924L473.231 548.074L470.881 548.254L468.571 548.304L467.491 548.244L465.271 547.894L464.151 547.664L463.071 547.354L460.931 546.544L459.991 546.014L458.031 544.664L457.131 543.814L456.401 542.854L455.831 541.794L455.221 540.054L454.961 538.984L454.711 537.414L454.681 537.434Z" fill="#C8432A"/>
<path d="M668.941 594.634L669.171 592.444L669.401 591.324L669.771 590.234L671.051 587.974L671.911 586.824L674.081 584.854L676.261 583.204L677.301 582.574L679.451 581.554L680.541 581.104L681.641 580.714L683.871 580.054L687.261 579.244L689.521 578.954L690.561 578.834L692.701 578.574L693.831 578.554L694.881 578.494L697.131 578.454L698.351 578.544L700.621 578.814L701.741 579.044L702.821 579.354L705.081 580.384L706.251 581.044L707.311 581.794L708.281 582.694L709.831 584.964L710.731 587.394L710.771 589.394L710.671 591.614L710.351 592.884L709.891 594.124L709.231 595.284L707.701 597.284L706.831 598.124L705.871 598.854L704.901 599.524L702.681 600.744L701.521 601.404L700.061 602.134L698.681 602.654L697.521 603.054L696.291 603.414L695.111 603.754L692.081 604.484L689.751 604.984L688.651 605.124L687.491 605.274L685.141 605.454L682.831 605.504L681.751 605.444L679.531 605.094L678.411 604.864L677.331 604.554L675.191 603.744L674.251 603.214L672.291 601.864L671.391 601.014L670.661 600.054L670.091 598.994L669.481 597.254L669.221 596.184L668.971 594.614L668.941 594.634Z" fill="#C8432A"/>
<path d="M308.981 727.324L309.051 726.634L309.121 726.284L309.231 725.944L309.631 725.234L309.901 724.874L310.581 724.254L311.261 723.734L311.591 723.534L312.261 723.214L312.601 723.074L312.951 722.954L313.651 722.744L314.711 722.494L315.421 722.404L315.751 722.364L316.421 722.284H316.771L317.101 722.254H317.811L318.191 722.274L318.901 722.364L319.251 722.434L319.591 722.534L320.301 722.854L320.671 723.064L321.001 723.304L321.301 723.584L321.791 724.294L322.071 725.054V725.684L322.051 726.384L321.951 726.784L321.811 727.174L321.601 727.544L321.121 728.174L320.851 728.434L320.551 728.664L320.251 728.874L319.551 729.254L319.191 729.464L318.731 729.694L318.301 729.854L317.941 729.984L317.551 730.094L317.181 730.204L316.231 730.434L315.501 730.594L315.161 730.634L314.801 730.684L314.071 730.744L313.341 730.764L313.001 730.744L312.301 730.634L311.951 730.564L311.611 730.464L310.941 730.214L310.641 730.044L310.031 729.624L309.751 729.354L309.521 729.054L309.341 728.724L309.151 728.174L309.071 727.834L308.991 727.344L308.981 727.324Z" fill="#C8432A"/>
<path d="M401.441 605.384L401.511 604.694L401.581 604.344L401.691 604.004L402.091 603.294L402.361 602.934L403.041 602.314L403.721 601.794L404.051 601.594L404.721 601.274L405.061 601.134L405.411 601.014L406.111 600.804L407.171 600.554L407.881 600.464L408.211 600.424L408.881 600.344H409.231L409.561 600.314H410.271L410.651 600.334L411.361 600.424L411.711 600.494L412.051 600.594L412.761 600.914L413.131 601.124L413.461 601.364L413.761 601.644L414.251 602.354L414.531 603.114V603.744L414.511 604.444L414.411 604.844L414.271 605.234L414.061 605.604L413.581 606.234L413.311 606.494L413.011 606.724L412.711 606.934L412.011 607.314L411.651 607.524L411.191 607.754L410.761 607.914L410.401 608.044L410.011 608.154L409.641 608.264L408.691 608.494L407.961 608.654L407.621 608.694L407.261 608.744L406.531 608.804L405.801 608.824L405.461 608.804L404.761 608.694L404.411 608.624L404.071 608.524L403.401 608.274L403.101 608.104L402.491 607.684L402.211 607.414L401.981 607.114L401.801 606.784L401.611 606.234L401.531 605.894L401.451 605.404L401.441 605.384Z" fill="#C8432A"/>
<path d="M619.981 677.484L620.051 676.794L620.121 676.444L620.231 676.104L620.631 675.394L620.901 675.034L621.581 674.414L622.261 673.894L622.591 673.694L623.261 673.374L623.601 673.234L623.951 673.114L624.651 672.904L625.711 672.654L626.421 672.564L626.751 672.524L627.421 672.444H627.771L628.101 672.414H628.811L629.191 672.434L629.901 672.524L630.251 672.594L630.591 672.694L631.301 673.014L631.671 673.224L632.001 673.464L632.301 673.744L632.791 674.454L633.071 675.214V675.844L633.051 676.544L632.951 676.944L632.811 677.334L632.601 677.704L632.121 678.334L631.851 678.594L631.551 678.824L631.251 679.034L630.551 679.414L630.191 679.624L629.731 679.854L629.301 680.014L628.941 680.144L628.551 680.254L628.181 680.364L627.231 680.594L626.501 680.754L626.161 680.794L625.801 680.844L625.071 680.904L624.341 680.924L624.001 680.904L623.301 680.794L622.951 680.724L622.611 680.624L621.941 680.374L621.641 680.204L621.031 679.784L620.751 679.514L620.521 679.214L620.341 678.884L620.151 678.334L620.071 677.994L619.991 677.504L619.981 677.484Z" fill="#C8432A"/>
<path d="M203.331 479.704L209.721 472.194L213.421 468.634L217.541 465.524L227.981 460.444L234.041 458.374L247.021 456.604L259.251 456.014L264.691 456.334L275.181 458.004L280.331 459.094L285.381 460.444L295.281 463.644L309.841 469.214L318.901 473.854L323.051 476.024L331.601 480.464L335.811 483.244L339.861 485.674L348.271 491.234L352.541 494.624L360.211 501.364L363.771 505.074L366.981 508.934L372.711 518.444L375.331 523.844L377.341 529.294L378.651 535.064L378.631 547.354L375.801 558.574L370.881 566.064L364.911 574.024L360.501 577.904L355.681 581.324L350.291 583.944L339.581 587.454L334.261 588.344L328.881 588.624L323.601 588.654L312.311 587.554L306.361 587.034L299.131 586.024L292.711 584.444L287.411 583.004L281.951 581.204L276.741 579.504L263.711 574.514L253.851 570.444L249.451 568.174L244.791 565.804L235.671 560.554L227.001 554.894L223.151 551.954L215.831 545.054L212.271 541.344L209.061 537.484L203.191 529.094L201.041 524.754L197.231 514.804L196.081 509.384L195.801 504.004L196.381 498.664L198.551 490.714L200.311 486.114L203.361 479.664L203.331 479.704Z" fill="#C8432A"/>
<path d="M551.312 569.164L555.272 566.554L557.462 565.414L559.781 564.534L565.281 563.594L568.362 563.454L574.591 564.384L580.312 565.754L582.781 566.634L587.392 568.814L589.622 570.004L591.772 571.304L595.911 574.114L601.882 578.644L605.442 582.004L607.062 583.564L610.411 586.764L611.982 588.614L613.522 590.274L616.651 593.974L618.161 596.114L620.792 600.254L621.932 602.444L622.892 604.654L624.262 609.814L624.742 612.654L624.942 615.444L624.772 618.284L623.112 623.954L620.302 628.754L617.031 631.554L613.202 634.424L610.642 635.624L607.952 636.554L605.112 637.034L599.692 637.214L597.122 636.914L594.602 636.324L592.161 635.624L587.102 633.604L584.422 632.564L581.221 631.124L578.471 629.534L576.221 628.154L573.942 626.594L571.772 625.114L566.432 621.064L562.432 617.864L560.702 616.224L558.872 614.504L555.372 610.854L552.132 607.074L550.752 605.204L548.302 601.034L547.161 598.844L546.202 596.634L544.622 591.974L544.212 589.684L543.792 584.584L543.992 581.934L544.582 579.414L545.572 577.024L547.642 573.644L549.072 571.764L551.341 569.204L551.312 569.164Z" fill="#C8432A"/>
<path d="M383.871 658.144L387.861 656.494L390.021 655.854L392.251 655.464L397.331 655.574L400.111 655.984L405.521 657.894L410.401 660.114L412.451 661.334L416.201 664.084L417.991 665.544L419.691 667.084L422.911 670.314L427.471 675.404L430.071 679.024L431.251 680.704L433.691 684.144L434.771 686.074L435.861 687.834L438.021 691.684L439.001 693.854L440.641 698.014L441.281 700.174L441.761 702.324L442.091 707.174L442.031 709.804L441.721 712.334L441.071 714.844L438.601 719.624L435.251 723.424L431.831 725.354L427.911 727.254L425.411 727.884L422.841 728.254L420.211 728.194L415.331 727.414L413.081 726.694L410.931 725.724L408.871 724.674L404.691 721.984L402.481 720.594L399.871 718.754L397.681 716.854L395.901 715.234L394.131 713.444L392.441 711.744L388.361 707.194L385.331 703.634L384.071 701.864L382.731 700.004L380.231 696.134L377.991 692.194L377.081 690.274L375.611 686.124L374.971 683.964L374.491 681.814L373.891 677.374L373.921 675.254L374.431 670.614L375.071 668.274L376.041 666.124L377.341 664.164L379.781 661.504L381.391 660.064L383.871 658.164V658.144Z" fill="#C8432A"/>
<path d="M214.901 669.874L214.261 666.064L214.131 664.054L214.241 662.034L215.351 657.624L216.261 655.284L219.001 650.944L221.911 647.124L223.381 645.574L226.531 642.854L228.161 641.584L229.841 640.414L233.301 638.254L238.641 635.294L242.321 633.744L244.021 633.044L247.511 631.604L249.411 631.044L251.161 630.444L254.951 629.324L257.041 628.904L261.001 628.304L263.011 628.174H264.981L269.281 628.864L271.561 629.434L273.701 630.204L275.761 631.264L279.441 634.374L282.091 638.054L283.101 641.414L283.981 645.214L284.031 647.514L283.841 649.824L283.271 652.104L281.621 656.204L280.551 658.024L279.281 659.714L277.961 661.304L274.781 664.414L273.121 666.064L270.991 667.974L268.901 669.504L267.131 670.734L265.211 671.914L263.391 673.044L258.611 675.694L254.901 677.624L253.111 678.374L251.221 679.174L247.351 680.584L243.471 681.754L241.621 682.164L237.711 682.614L235.701 682.744H233.731L229.731 682.374L227.891 681.924L223.951 680.554L222.041 679.534L220.351 678.264L218.891 676.744L217.051 674.084L216.111 672.394L214.951 669.854L214.901 669.874Z" fill="#C8432A"/>
<path d="M620.751 535.664L620.111 531.854L619.981 529.844L620.091 527.824L621.201 523.414L622.111 521.074L624.851 516.734L627.761 512.914L629.231 511.364L632.381 508.644L634.011 507.374L635.691 506.204L639.151 504.044L644.491 501.084L648.171 499.534L649.871 498.834L653.361 497.394L655.261 496.834L657.011 496.234L660.801 495.114L662.891 494.694L666.851 494.094L668.861 493.964H670.831L675.131 494.654L677.411 495.224L679.551 495.994L681.611 497.054L685.291 500.164L687.941 503.844L688.951 507.204L689.831 511.004L689.881 513.304L689.691 515.614L689.121 517.894L687.471 521.994L686.401 523.814L685.131 525.504L683.811 527.094L680.631 530.204L678.971 531.854L676.841 533.764L674.751 535.294L672.981 536.524L671.061 537.704L669.241 538.834L664.461 541.484L660.751 543.414L658.961 544.164L657.071 544.964L653.201 546.374L649.321 547.544L647.471 547.954L643.561 548.404L641.551 548.534H639.581L635.581 548.164L633.741 547.714L629.801 546.344L627.891 545.324L626.201 544.054L624.741 542.534L622.901 539.874L621.961 538.184L620.801 535.644L620.751 535.664Z" fill="#C8432A"/>
<path d="M469.041 630.234L470.501 628.584L471.351 627.804L472.291 627.124L474.651 626.034L476.021 625.604L478.931 625.274L481.671 625.204L482.891 625.304L485.231 625.724L486.381 625.994L487.501 626.324L489.701 627.084L492.931 628.404L494.931 629.484L495.851 629.994L497.741 631.024L498.671 631.664L499.561 632.224L501.421 633.504L502.361 634.284L504.041 635.824L504.821 636.674L505.521 637.554L506.761 639.714L507.321 640.934L507.741 642.164L508.001 643.464L507.941 646.214L507.251 648.714L506.111 650.364L504.741 652.114L503.731 652.964L502.631 653.704L501.411 654.264L499.001 654.994L497.811 655.164L496.611 655.204L495.431 655.184L492.911 654.884L491.581 654.744L489.971 654.484L488.541 654.104L487.361 653.754L486.151 653.324L484.991 652.914L482.101 651.734L479.911 650.774L478.941 650.244L477.911 649.694L475.901 648.474L473.991 647.164L473.141 646.484L471.541 644.904L470.761 644.054L470.061 643.174L468.791 641.264L468.331 640.284L467.531 638.044L467.301 636.824L467.261 635.624L467.421 634.434L467.941 632.664L468.361 631.644L469.071 630.214L469.041 630.234Z" fill="#C8432A"/>
<path d="M104.451 552.274L105.911 550.624L106.761 549.844L107.701 549.164L110.061 548.074L111.431 547.644L114.341 547.314L117.081 547.244L118.301 547.344L120.641 547.764L121.791 548.034L122.911 548.364L125.111 549.124L128.341 550.444L130.341 551.524L131.261 552.034L133.151 553.064L134.081 553.704L134.971 554.264L136.831 555.544L137.771 556.324L139.451 557.864L140.231 558.714L140.931 559.594L142.171 561.754L142.731 562.974L143.151 564.204L143.411 565.504L143.351 568.254L142.661 570.754L141.521 572.404L140.151 574.154L139.141 575.004L138.041 575.744L136.821 576.304L134.411 577.034L133.221 577.204L132.021 577.244L130.841 577.224L128.321 576.924L126.991 576.784L125.381 576.524L123.951 576.144L122.771 575.794L121.561 575.364L120.401 574.954L117.511 573.774L115.321 572.814L114.351 572.284L113.321 571.734L111.311 570.514L109.401 569.204L108.551 568.524L106.951 566.944L106.171 566.094L105.471 565.214L104.201 563.304L103.741 562.324L102.941 560.084L102.711 558.864L102.671 557.664L102.831 556.474L103.351 554.704L103.771 553.684L104.481 552.254L104.451 552.274Z" fill="#C8432A"/>
<path d="M506.942 712.294L508.402 710.644L509.252 709.864L510.192 709.184L512.552 708.094L513.922 707.664L516.832 707.334L519.572 707.264L520.792 707.364L523.132 707.784L524.282 708.054L525.402 708.384L527.602 709.144L530.832 710.464L532.832 711.544L533.752 712.054L535.642 713.084L536.572 713.724L537.462 714.284L539.322 715.564L540.262 716.344L541.942 717.884L542.722 718.734L543.422 719.614L544.662 721.774L545.222 722.994L545.642 724.224L545.902 725.524L545.842 728.274L545.152 730.774L544.012 732.424L542.642 734.174L541.632 735.024L540.532 735.764L539.312 736.324L536.902 737.054L535.712 737.224L534.512 737.264L533.332 737.244L530.812 736.944L529.482 736.804L527.872 736.544L526.442 736.164L525.262 735.814L524.052 735.384L522.892 734.974L520.002 733.794L517.812 732.834L516.842 732.304L515.812 731.754L513.802 730.534L511.892 729.224L511.042 728.544L509.442 726.964L508.662 726.114L507.962 725.234L506.692 723.324L506.232 722.344L505.432 720.104L505.202 718.884L505.162 717.684L505.322 716.494L505.842 714.724L506.262 713.704L506.972 712.274L506.942 712.294Z" fill="#C8432A"/>
</svg>
