<svg width="36" height="39" viewBox="0 0 36 39" fill="none" xmlns="http://www.w3.org/2000/svg">
<path d="M13.2498 37.4887L10.4831 36.5142L9.11137 35.918L7.83486 35.2228L5.41857 33.3521L4.27269 32.231L2.59998 29.7284L1.33811 27.3278L0.948624 26.2375L0.503581 24.0943L0.365004 23.0321L0.309448 21.9793L0.365004 19.8932L0.698936 16.7924L1.24959 14.8171L1.51576 13.9109L2.05543 12.0445L2.49497 11.1032L2.84478 10.207L3.72326 8.32438L4.33496 7.34737L5.62491 5.56683L6.39229 4.71759L7.23719 3.93285L9.51063 2.42851L10.8561 1.70013L12.2731 1.09013L13.8457 0.607889L17.4444 0.133789L20.9785 0.259047L23.6079 0.942326L26.4692 1.81725L27.996 2.54124L29.4276 3.36418L30.6748 4.33117L32.6564 6.31775L33.3914 7.33735L33.9537 8.39264L34.4323 9.43792L35.1161 11.7182L35.4939 12.9176L35.8419 14.3887L35.9512 15.7233L36.0013 16.83L35.9616 17.9817L35.928 19.079L35.6289 21.8534L35.3169 23.9659L35.0446 24.9266L34.7656 25.9412L34.0422 27.9516L33.1576 29.8887L32.6406 30.7668L31.2731 32.4841L30.5057 33.3327L29.6608 34.118L27.7274 35.6055L26.6499 36.1992L24.0773 37.339L22.5945 37.7768L21.0457 38.0417L19.431 38.1338L16.9103 38.0129L15.4085 37.8426L13.2504 37.4875H13.2517L13.2498 37.4887Z" fill="#D44F33"/>
<mask id="mask0_3494_155" style="mask-type:luminance" maskUnits="userSpaceOnUse" x="6" y="10" width="24" height="18">
<path d="M29.9336 10.8552H6.37634V27.4136H29.9336V10.8552Z" fill="white"/>
</mask>
<g mask="url(#mask0_3494_155)">
<path d="M29.933 18.3512L29.9129 18.0337V17.3397L29.8768 17.1631L29.8927 16.8644L29.8512 16.6226V16.245L29.7492 15.5511L29.6882 14.9022L29.6064 14.3279L29.5246 14.0417L29.4629 13.7549L29.2584 13.1962L29.1156 12.8793L28.8695 12.5317L28.6241 12.2299L28.1327 11.762L27.7029 11.4602L27.17 11.2334L26.474 11.0218L26.1266 10.9767L25.7555 10.9516L23.8386 10.9115L21.6976 10.9015L20.7849 10.8652L20.3808 10.9034L19.4626 10.9366L18.5951 10.9804L17.7093 10.951L17.2283 10.9723L16.8815 10.9209L16.362 10.9428L15.6691 10.9291L14.7833 10.8996L14.0709 10.8689L13.417 10.8552L10.5551 10.9516L10.1833 10.9767L9.83472 11.0218L9.13877 11.2334L8.60704 11.4602L8.17665 11.762L7.68521 12.2299L7.4398 12.5317L7.19439 12.8793L7.05092 13.1962L6.84641 13.7549L6.78475 14.0417L6.70356 14.3279L6.62176 14.9022L6.5601 15.5511L6.45754 16.245V16.6226L6.41663 16.8644L6.43129 17.1631L6.39588 17.3397V18.0337L6.37451 18.3512V18.6531L6.4087 19.1096L6.37451 19.5662V19.8681L6.39588 20.185V20.8795L6.43129 21.0561L6.41663 21.3549L6.45754 21.596V21.973L6.5601 22.6676L6.62176 23.3164L6.70356 23.8901L6.78475 24.1769L6.84641 24.4638L7.05092 25.0218L7.19439 25.3393L7.4398 25.6863L7.68521 25.9882L8.17665 26.4566L8.60704 26.7585L9.13877 26.9846L9.83472 27.1956L10.1833 27.2414L10.5771 27.2677L14.9188 27.3397L15.5146 27.3359L15.9963 27.3685L16.5732 27.3647L17.2661 27.3779L18.0933 27.3722L18.7862 27.3854L19.3253 27.3998L20.0377 27.413L20.8258 27.3716L21.6146 27.3666L22.0193 27.3816L22.4045 27.3791L22.7898 27.3948L23.9723 27.3779L25.9551 27.2533L26.126 27.242L26.4734 27.1963L27.1694 26.9852L27.7023 26.7591L28.1321 26.4572L28.6235 25.9888L28.8689 25.6869L29.115 25.3399L29.2578 25.0224L29.4623 24.4644L29.524 24.1776L29.6058 23.8907L29.6876 23.317L29.7486 22.6682L29.8506 21.9736V21.5966L29.8921 21.3555L29.8762 21.0568L29.9122 20.8801V20.1856L29.9324 19.8687V19.5668L29.8982 19.1103L29.9324 18.6537V18.3518L29.933 18.3512ZM8.19802 20.9027L8.1565 20.3284L8.11927 19.1096L8.1565 17.8909L8.19802 17.3172L8.21816 16.8036V16.426L8.29997 16.0941L8.32012 15.5661L8.36102 15.0682L8.44282 14.6761L8.52463 14.1776L8.60643 13.9058L8.83109 13.3321L9.05575 13.0453L9.44462 12.7134L9.93606 12.5173L10.5911 12.3965L12.5501 12.4033L13.6276 12.3965L14.5324 12.4653L14.9176 12.4804L15.5134 12.4766L15.9951 12.5092L16.572 12.5061L17.2649 12.5192L18.0921 12.5136L18.785 12.5267L19.324 12.5411L20.0365 12.5543L20.8246 12.5129L21.6134 12.5079L22.0181 12.523L22.4033 12.5205L23.5162 12.4804L24.3856 12.3977L25.938 12.439L26.3702 12.5186L26.8617 12.7146L27.2505 13.0465L27.4752 13.3334L27.7011 13.9071L27.7823 14.1789L27.8641 14.6774L27.9459 15.0695L27.9874 15.5674L28.0075 16.0953L28.0893 16.4272V16.8049L28.1095 17.3185L28.1504 17.8921L28.1876 19.1109L28.1504 20.3296L28.1095 20.9039L28.0893 21.4169V21.7945L28.0075 22.1265L27.9874 22.655L27.9459 23.1536L27.8641 23.5456L27.7823 24.0435L27.7011 24.316L27.4752 24.8896L27.2505 25.1759L26.8617 25.5078L26.3702 25.7044L25.7573 25.8172L22.7568 25.7452L20.7837 25.7282L20.3796 25.7664L19.4614 25.8003L18.5939 25.8441L17.7081 25.814L17.227 25.8353L16.8803 25.784L16.3608 25.8059L15.6679 25.7928L14.7821 25.7627L14.0696 25.732L13.4158 25.7182L10.5496 25.8178L9.93667 25.7051L9.44523 25.5084L9.05636 25.1765L8.8317 24.8903L8.60704 24.3166L8.52524 24.0442L8.44343 23.5463L8.36163 23.1542L8.32072 22.6557L8.30058 22.1271L8.21877 21.7952V21.4175L8.19863 20.9046L8.19802 20.9027Z" fill="white"/>
</g>
<path d="M21.1182 18.5397L20.8075 18.3531L20.4559 18.1496L20.2843 18.0481L19.9412 17.8615L19.7611 17.7763L19.5896 17.6748L19.418 17.5903L18.9278 17.3354L18.7721 17.2508L18.6085 17.1487L18.4291 17.0642L18.2654 16.9621L17.9224 16.7924L17.7587 16.7078L17.4889 16.5719L17.2435 16.4022L16.9083 16.2663L16.5732 16.0966L16.246 15.9269L16.0988 15.8586L15.9438 15.774H15.7393L15.674 15.9776V16.1642L15.6996 16.3853L15.7149 16.9959L15.7045 17.2164L15.7509 17.9711L15.7405 18.1207L15.7094 18.4433L15.7301 18.6243L15.699 18.7815V19.104L15.6678 19.3714L15.6575 19.5524V19.7648L15.6678 20.0009V20.1975L15.6575 20.4255V22.1578L15.674 22.3958L15.7802 22.4979L15.9194 22.4641L16.0665 22.3795L16.3443 22.2774L16.5079 22.1929L16.7777 22.1083L16.9578 22.0231L17.097 21.9724L17.2276 21.9042L17.4236 21.8196L17.7014 21.7181L18.02 21.5484L18.3387 21.4125L18.4773 21.3443L18.6244 21.2597L18.7636 21.1914L19.0902 21.0724L19.2618 20.9879L19.4412 20.8858L19.6866 20.7668L19.8252 20.6823L19.9479 20.5633L20.0951 20.5294L20.324 20.3935L20.4876 20.2745L20.6591 20.2238L20.7983 20.1556L20.9375 20.071L21.1585 19.9351L21.9265 19.3827C21.9668 19.3539 21.9857 19.3026 21.9741 19.2531L21.9418 19.1159C21.9308 19.0696 21.9027 19.0301 21.863 19.0057L21.1182 18.5429V18.5397Z" fill="white"/>
</svg>
