<svg width="296" height="57" viewBox="0 0 296 57" fill="none" xmlns="http://www.w3.org/2000/svg">
<path d="M16.46 54.9347L14.54 54.6147L13.42 54.2147L11.9 53.6547L10.38 52.8547L8.7 52.0547L7.58 51.2547L5.26 49.0147L4.14 47.5747L2.54 44.5347L1.9 43.0147L1.26 40.5347L1.18 39.4947L0.94 38.1347L0.78 36.2147L0.7 34.2947L0.62 32.4547L0.3 30.1347L0.62 28.1347L0.7 26.1347V24.7747L0.86 21.7347L1.18 18.5347L1.9 15.4147L2.38 13.8147L3.5 10.3747L5.18 7.25467L6.14 5.97468L7.18 4.85468L8.38 3.89468L9.66 3.01468L12.06 1.97468L14.46 1.57468L15.9 1.41467L17.42 1.33467L19.34 1.81467L19.82 3.81468V5.49467L19.34 7.57468L18.3 7.97468L15.82 8.29468L12.54 9.65468L11.34 10.8547L10.38 12.2147L8.86 15.0947L8.46 16.5347L8.14 17.9747L7.58 20.9347L7.5 22.3747V23.8947L7.42 26.5347V36.4547L7.66 39.1747L7.98 40.6147L8.86 42.3747L9.58 43.8947L11.58 45.8147L12.94 46.6947L15.98 48.1347L18.86 48.2947L19.9 50.4547V52.0547L20.06 54.1347L19.66 54.8547L18.46 55.1747L16.46 54.9347ZM33.8313 54.9347L33.3513 53.8147L33.1913 51.8147L33.1113 49.8147V47.2547L33.0313 45.8147L33.1913 43.8947L33.1113 41.9747L33.4313 39.9747L33.2713 38.8547V35.6547L33.4313 32.5347L33.2713 30.2947L33.3513 28.5347L33.4313 25.9747V23.2547L33.5113 20.5347V18.6147L33.4313 16.3747L33.5113 13.0147L33.6713 10.2147V8.53468L33.5113 7.25467V5.41467L33.4313 3.25467L34.0713 1.89468L35.2713 1.73467L36.7113 1.57468L38.1513 1.49467L39.1113 1.41467L40.2313 1.89468L40.5513 4.13468L40.4713 6.45468L40.5513 8.13467V16.2947L40.3913 18.9347L40.2313 21.8147V23.4947L40.4713 23.8147L42.2313 23.9747L43.8313 24.0547L47.0313 23.9747H48.6313L50.3913 23.2547L50.4713 22.1347V21.0147L50.3913 19.5747L50.5513 18.2147V15.5747L50.7113 13.4147L50.3913 11.4147L50.3113 7.65467L50.3913 4.13468L50.7913 1.97468L51.9913 1.57468L54.4713 1.89468L55.5913 1.81467L57.0313 2.05468L57.1913 4.61468V25.0147L57.5113 26.5347L57.1913 28.2947L57.1113 30.8547L57.3513 33.2547L57.5113 34.7747V36.0547L57.3513 37.6547L57.4313 39.2547L57.3513 40.4547L57.5113 41.4947L57.1913 43.7347L57.1113 45.4147V49.8947L57.1913 52.7747L56.2313 54.7747L52.1513 55.1747L51.1113 55.0947L50.4713 53.9747L50.3913 51.4947V37.9747L50.4713 35.9747V31.8947L48.7113 30.7747L45.4313 30.8547L42.1513 30.7747L40.2313 31.4947V38.4547L40.1513 41.1747L40.0713 42.6947L40.2313 44.7747L39.9913 47.4147L39.9113 50.1347L39.8313 51.8147L39.9113 54.0547L39.2713 54.8547H37.4313L35.1913 55.2547L33.8313 54.9347ZM74.14 54.9347L73.5 52.5347V40.3747L73.58 38.0547V36.0547L73.5 33.6547V31.4947L73.58 29.6547L73.82 26.9347V23.6547L74.06 22.0547L73.9 20.2147L74.14 16.9347L74.22 15.4147V10.6947L74.3 8.45467L74.14 3.17467L74.38 1.65468L76.78 1.25468H78.62L80.78 1.65468L81.34 2.29468L81.42 4.05467V10.0547L81.34 13.0947L81.18 15.9747L81.02 19.1747V31.6547L80.94 33.1747V37.7347L80.86 39.5747L80.78 41.3347L81.02 42.4547L80.94 43.7347L80.86 45.6547L81.02 48.3747V50.1347L81.1 52.6147V53.8947L80.86 54.7747L79.26 55.0947L77.42 55.0147L76.14 55.4147L74.14 54.9347ZM117.908 55.4147L117.428 54.6147L117.348 52.6947V51.0947L118.868 49.0947L121.428 49.4147L124.388 49.0947L125.908 48.6947L127.508 48.1347L129.028 47.0147L130.068 45.6547L130.788 42.3747L129.828 39.2547L129.188 37.8147L128.468 36.3747L126.948 33.8147L126.308 32.6147L124.868 30.1347L123.428 27.5747L122.628 26.2947L120.468 22.2947L119.668 21.0147L118.948 19.6547L118.308 18.2947L117.748 16.8547L116.948 14.4547L116.628 13.1747L116.708 11.7347L116.948 9.17467L117.908 6.45468L119.508 4.13468L121.908 2.45467L123.348 1.97468L126.468 1.33467L128.068 1.25468H131.508L133.668 1.73467L134.308 4.05467L133.828 6.45468L131.428 6.93467L128.068 7.01467L126.708 7.41468L124.388 8.77467L123.668 9.97467L123.348 12.6147L124.308 15.1747L124.868 16.4547L126.388 18.7747L127.748 21.2547L128.548 22.5347L129.748 24.6147L130.868 26.7747L131.588 28.0547L132.308 29.4147L133.028 30.6947L134.548 33.2547L135.188 34.6147L135.828 35.8947L136.628 37.9747L137.508 40.4547L137.828 42.2147L137.508 45.5747L137.028 47.0947L135.988 49.4947L134.628 51.5747L133.588 52.6147L132.388 53.5747L131.108 54.2947L128.308 55.3347L126.548 55.4147L124.708 55.8147H119.908L117.908 55.4147ZM151.249 54.9347L150.609 52.5347V40.3747L150.689 38.0547V36.0547L150.609 33.6547V31.4947L150.689 29.6547L150.929 26.9347V23.6547L151.169 22.0547L151.009 20.2147L151.249 16.9347L151.329 15.4147V10.6947L151.409 8.45467L151.249 3.17467L151.489 1.65468L153.889 1.25468H155.729L157.889 1.65468L158.449 2.29468L158.529 4.05467V10.0547L158.449 13.0947L158.289 15.9747L158.129 19.1747V31.6547L158.049 33.1747V37.7347L157.969 39.5747L157.889 41.3347L158.129 42.4547L158.049 43.7347L157.969 45.6547L158.129 48.3747V50.1347L158.209 52.6147V53.8947L157.969 54.7747L156.369 55.0947L154.529 55.0147L153.249 55.4147L151.249 54.9347ZM172.276 55.0947L170.916 55.1747L169.236 54.5347L169.476 52.6147L169.796 51.2547L170.196 48.7747L170.916 46.2147L171.236 44.6147L171.556 42.9347L172.356 39.4147L172.916 36.7747L173.156 35.8147L173.476 33.9747L173.876 32.2947L175.076 27.4947L175.396 24.6947L176.116 21.9747L176.436 20.4547L176.756 18.8547L177.156 17.0147L177.796 14.9347L178.196 13.0947L179.076 9.97467L179.476 8.53468L179.716 7.17468L180.356 3.81468L181.076 1.41467L182.916 1.01467L184.436 1.33467L186.036 3.65467L186.356 5.25468L187.156 8.29468L187.476 9.81468L188.276 13.0947L188.596 14.8547L189.396 18.1347L190.676 22.8547L191.076 24.5347L191.556 26.1347L191.956 27.8147L192.756 31.0947L193.236 32.6947L194.036 36.0547L194.516 37.6547L195.396 40.9347L196.596 45.3347L196.996 46.7747L197.876 49.6547L198.356 51.2547L198.996 53.5747L198.676 54.8547L198.116 55.2547L196.116 55.0947L192.996 55.0147L191.316 53.5747L190.996 51.8147L190.356 49.3347L189.956 47.5747L189.396 45.4947L188.676 45.0147L186.196 44.9347H183.636L182.116 44.6147L180.196 44.8547L178.596 44.7747L177.556 46.6147L177.236 48.2147L176.916 49.7347L176.676 51.3347L176.356 52.9347L175.396 54.9347L174.116 55.2547L172.276 55.0947ZM186.276 38.9347L187.636 38.2147L187.236 36.2147L186.036 31.7347L185.156 28.6947L183.956 23.8947L183.476 22.2147L182.436 22.1347L182.036 23.7347L181.476 27.0147L180.036 33.5747L179.396 36.5347L179.076 38.5347L180.676 38.9347H186.276ZM209.839 55.0947L209.439 54.5347L209.519 53.0147L209.599 50.2147V45.7347L209.679 44.2147V41.5747L209.839 39.2547V37.1747L209.919 34.7747V30.9347L209.999 29.1747L210.159 26.9347L209.999 25.5747L210.239 23.8147L210.319 22.0547V20.3747L210.399 17.9747L210.559 16.7747V15.5747L210.639 14.3747L210.399 12.1347L210.719 8.61468V4.13468L211.119 2.21467L211.919 1.81467L213.199 1.49467L215.039 2.37468L217.679 5.89467L220.479 9.73468L221.439 11.0947L223.439 13.8947L225.439 16.5347L227.359 19.0947L228.959 21.2547L230.159 22.6947L231.359 22.0547L234.879 16.7747L235.759 15.4147L239.439 10.0547L242.159 6.05468L243.679 3.97467L244.799 2.37468L246.239 1.89468H247.039L248.399 2.13467L249.119 4.05467L249.039 6.61467V9.33468L248.959 11.4147L248.879 12.9347V14.4547L248.799 15.4147L248.879 17.1747V18.8547L248.719 20.6147V37.0947L248.639 38.6947V42.0547L248.559 44.7747L248.639 46.7747V50.8547L248.559 52.5347L248.399 54.2947L247.199 54.8547L246.079 54.9347L244.879 55.1747L243.999 55.0947L242.799 55.0147L241.679 54.4547L241.519 52.2947L241.599 50.6147V43.8147L241.679 40.5347L241.839 37.5747L241.919 35.8147V34.0547L241.999 31.4147L242.239 30.3747L242.159 28.3747L242.239 26.5347V21.1747L242.159 18.3747L241.119 18.6147L240.239 19.8947L239.279 21.2547L237.519 23.8147L236.719 25.0947L235.839 26.3747L233.999 28.8547L233.119 30.0547L232.159 31.3347L230.799 32.5347L229.679 32.2147L228.079 30.6147L225.999 28.2147L225.039 27.0147L222.879 24.2147L220.639 21.4947L219.679 20.1347L218.319 18.1347L217.519 17.7347L217.439 18.5347L217.359 19.8147L217.279 21.1747L217.119 23.2547V31.2547L217.039 33.5747L216.799 35.2547V52.7747L216.319 54.8547L214.479 55.4147H211.679L209.839 55.0947ZM275.941 56.2147L273.221 55.2547L271.861 54.6147L270.581 53.8147L268.101 51.4947L266.901 50.0547L265.061 46.6947L263.621 43.4147L263.141 41.8947L262.501 38.8547L262.261 37.3347L262.101 35.8147L261.941 32.7747V28.2147L262.261 25.2547L262.421 23.8947L262.741 21.0947L263.061 19.6547L263.301 18.2947L263.941 15.4147L264.421 13.8947L265.461 11.0947L266.101 9.73468L266.821 8.45467L268.821 5.89467L270.021 4.61468L271.301 3.49468L272.741 2.53467L276.101 1.25468L279.461 0.854676L282.021 1.41467L284.821 2.21467L286.341 3.01468L287.781 3.97467L289.061 5.17467L291.141 7.73467L291.941 9.09468L292.581 10.5347L293.141 11.9747L294.021 15.1747L294.501 16.8547L294.981 18.8547L295.221 20.8547L295.381 22.4547L295.461 24.1347L295.541 25.7347V29.8147L295.461 32.9347L295.301 34.3747L295.141 35.8947L294.661 38.9347L294.021 41.8947L293.621 43.2547L292.501 45.9747L291.861 47.3347L291.141 48.6147L289.461 51.0947L288.501 52.1347L286.181 54.2147L284.821 55.0947L283.381 55.7347L281.861 56.1347L279.461 56.3747H278.021L275.941 56.2147ZM280.821 49.8147L282.741 48.6147L284.101 47.4947L285.861 44.6947L286.501 43.3347L287.781 40.3747L288.261 37.3347L288.661 34.3747L288.821 32.6147L288.981 30.9347L289.061 29.1747L288.981 25.8147L288.821 24.2147L288.421 20.6947L288.101 18.8547L287.381 15.2547L286.741 13.5747L284.821 10.8547L283.781 9.73468L281.941 8.29468L279.381 7.81468L276.261 8.53468L274.981 9.25468L273.221 11.2547L271.781 13.8147L271.221 15.3347L270.421 17.7347L269.781 20.2147L269.541 21.9747V24.2147L269.221 25.7347L269.141 28.7747L268.901 31.9747V35.0947L269.301 38.1347L269.541 39.5747L269.861 41.0147L270.901 44.1347L271.861 45.7347L274.501 48.4547L277.461 49.9747L278.821 50.2147L280.821 49.8147Z" fill="white"/>
</svg>
